<svg width="111" height="47" viewBox="0 0 111 47" fill="none" xmlns="http://www.w3.org/2000/svg">
<path d="M4.6484 12.616L23.5 1.73205L42.3516 12.616V34.384L23.5 45.2679L4.6484 34.384V12.616Z" stroke="#00FF29" stroke-width="3"/>
<path d="M7.39729 13.6789L24.6257 3.73205L41.8541 13.6789V33.5725L24.6257 43.5193L7.39729 33.5725V13.6789Z" stroke="black" stroke-width="3"/>
<path d="M105.089 13.611L90.5362 3.80854L75.9833 13.611V33.6404L90.5362 43.4428L105.089 33.6404V13.611Z" stroke="#00FF38" stroke-width="3"/>
<path d="M90.8654 13.4718L80.5932 4.03672L70.3211 13.4718V33.7796L80.5932 43.2147L90.8654 33.7796V13.4718Z" stroke="#2DFF42" stroke-width="3"/>
<path d="M22.1496 13.5291L34.027 3.92873L45.9044 13.5291V33.7222L34.027 43.3227L22.1496 33.7222V13.5291Z" stroke="black" stroke-width="3"/>
<path d="M106.032 13.611L91.4791 3.80854L76.9262 13.611V33.6404L91.4791 43.4428L106.032 33.6404V13.611Z" stroke="black" stroke-width="3"/>
<path d="M34.4124 13.384L42.5441 4.25514L50.6759 13.384V33.8673L42.5441 42.9962L34.4124 33.8673V13.384Z" stroke="black" stroke-width="3"/>
<path d="M91.8654 13.4718L81.5932 4.03672L71.3211 13.4718V33.7796L81.5932 43.2147L91.8654 33.7796V13.4718Z" stroke="black" stroke-width="3"/>
<path d="M40.8245 13.3348L47.886 4.41638L54.9476 13.3348V33.9166L47.886 42.835L40.8245 33.9166V13.3348Z" stroke="black" stroke-width="3"/>
<path d="M59.9019 12.9287L61 8.3852L62.0981 12.9287V34.0713L61 38.6148L59.9019 34.0713V12.9287Z" stroke="black" stroke-width="3"/>
</svg>
