<svg width="66" height="66" viewBox="0 0 66 66" fill="none" xmlns="http://www.w3.org/2000/svg">
<path d="M49.1857 20.4654L51.9481 25.25C54.7169 30.0457 54.7169 35.9543 51.9481 40.75L49.1857 45.5346C46.4169 50.3303 41.3 53.2846 35.7623 53.2846L30.2375 53.2846C24.6999 53.2846 19.583 50.3303 16.8142 45.5346L14.0518 40.75C11.2829 35.9543 11.2829 30.0457 14.0518 25.25L16.8142 20.4654C19.583 15.6697 24.6999 12.7154 30.2375 12.7154L35.7623 12.7154C41.3 12.7154 46.4169 15.6697 49.1857 20.4654Z" stroke="white"/>
<path d="M37 18.4642L43.5885 22.268C46.0637 23.6971 47.5885 26.3381 47.5885 29.1962V36.8039C47.5885 39.662 46.0637 42.303 43.5885 43.7321L37 47.5359C34.5248 48.965 31.4752 48.965 29 47.5359L22.4115 43.7321C19.9363 42.303 18.4115 39.662 18.4115 36.8039V29.1962C18.4115 26.3381 19.9363 23.6971 22.4115 22.268L29 18.4642C31.4752 17.0351 34.5248 17.0351 37 18.4642Z" stroke="white" stroke-width="2"/>
</svg>
