<svg width="48" height="30" viewBox="0 0 48 30" fill="none" xmlns="http://www.w3.org/2000/svg">
<path d="M26.7998 21.729H29.0498C29.2812 21.729 29.5024 21.7451 29.7134 21.7773C29.9272 21.8096 30.125 21.8667 30.3066 21.9487C30.4883 22.0308 30.6538 22.145 30.8032 22.2915C30.9526 22.438 31.0801 22.6255 31.1855 22.854C31.291 23.0825 31.3716 23.3579 31.4272 23.6802C31.4858 24.0024 31.5151 24.3804 31.5151 24.814C31.5151 25.2622 31.4888 25.6533 31.436 25.9873C31.3833 26.3184 31.3071 26.6025 31.2075 26.8398C31.1079 27.0742 30.9863 27.2676 30.8428 27.4199C30.6992 27.5693 30.5352 27.688 30.3506 27.7759C30.1689 27.8608 29.9683 27.9194 29.7485 27.9517C29.5317 27.9839 29.2988 28 29.0498 28H26.7998V21.729ZM28.7642 27.02C28.9136 27.02 29.0586 27.0171 29.1992 27.0112C29.3398 27.0024 29.4702 26.9761 29.5903 26.9321C29.7134 26.8882 29.8247 26.8223 29.9243 26.7344C30.0269 26.6436 30.1133 26.5161 30.1836 26.3521C30.2568 26.188 30.3125 25.9814 30.3506 25.7324C30.3916 25.4805 30.4121 25.1714 30.4121 24.8052C30.4121 24.4653 30.3931 24.1782 30.355 23.9438C30.3169 23.7065 30.2627 23.5103 30.1924 23.355C30.1221 23.1997 30.0371 23.0796 29.9375 22.9946C29.8408 22.9067 29.731 22.8423 29.6079 22.8013C29.4849 22.7573 29.3516 22.731 29.208 22.7222C29.0674 22.7134 28.9194 22.709 28.7642 22.709H27.8545V27.02H28.7642ZM35.1055 28.1362C34.8359 28.1362 34.5854 28.1172 34.354 28.0791C34.1226 28.041 33.9116 27.9751 33.7212 27.8813C33.5308 27.7847 33.3608 27.6572 33.2114 27.499C33.0649 27.3408 32.9404 27.1416 32.8379 26.9014C32.7354 26.6582 32.6577 26.3711 32.605 26.04C32.5522 25.709 32.5259 25.3237 32.5259 24.8843C32.5259 24.2251 32.5845 23.6831 32.7017 23.2583C32.8188 22.8335 32.9888 22.4995 33.2114 22.2563C33.4341 22.0103 33.7051 21.8403 34.0244 21.7466C34.3438 21.6499 34.7041 21.6016 35.1055 21.6016C35.3721 21.6016 35.6211 21.6221 35.8525 21.6631C36.084 21.7041 36.2949 21.7729 36.4854 21.8696C36.6758 21.9663 36.8442 22.0967 36.9907 22.2607C37.1372 22.4219 37.2603 22.624 37.3599 22.8672C37.4624 23.1104 37.54 23.3989 37.5928 23.7329C37.6455 24.064 37.6719 24.4478 37.6719 24.8843C37.6719 25.3208 37.6455 25.7046 37.5928 26.0356C37.54 26.3667 37.4624 26.6538 37.3599 26.897C37.2603 27.1372 37.1372 27.3379 36.9907 27.499C36.8442 27.6572 36.6758 27.7832 36.4854 27.877C36.2949 27.9707 36.084 28.0366 35.8525 28.0747C35.6211 28.1157 35.3721 28.1362 35.1055 28.1362ZM35.1055 27.165C35.3926 27.165 35.6299 27.1313 35.8174 27.064C36.0078 26.9966 36.1587 26.8779 36.27 26.708C36.3813 26.5352 36.459 26.3022 36.5029 26.0093C36.5498 25.7134 36.5732 25.3384 36.5732 24.8843C36.5732 24.4272 36.5498 24.0508 36.5029 23.7549C36.459 23.459 36.3813 23.2246 36.27 23.0518C36.1587 22.876 36.0078 22.7544 35.8174 22.687C35.6299 22.6167 35.3926 22.5815 35.1055 22.5815C34.8184 22.5815 34.5796 22.6167 34.3892 22.687C34.1987 22.7544 34.0479 22.876 33.9365 23.0518C33.8252 23.2246 33.7461 23.459 33.6992 23.7549C33.6553 24.0508 33.6333 24.4272 33.6333 24.8843C33.6333 25.3384 33.6553 25.7134 33.6992 26.0093C33.7461 26.3022 33.8252 26.5352 33.9365 26.708C34.0479 26.8779 34.1987 26.9966 34.3892 27.064C34.5796 27.1313 34.8184 27.165 35.1055 27.165ZM41.1348 28.1099C40.9326 28.1099 40.7305 28.0908 40.5283 28.0527C40.3291 28.0146 40.1387 27.9487 39.957 27.855C39.7783 27.7612 39.6113 27.6353 39.4561 27.4771C39.3008 27.3159 39.166 27.1138 39.0518 26.8706C38.9375 26.6245 38.8481 26.333 38.7837 25.9961C38.7192 25.6592 38.687 25.2651 38.687 24.814C38.687 24.3804 38.7236 24.001 38.7969 23.6758C38.8701 23.3477 38.9683 23.0649 39.0913 22.8276C39.2144 22.5903 39.3579 22.3955 39.522 22.2432C39.686 22.0879 39.8589 21.9648 40.0405 21.874C40.2222 21.7832 40.4067 21.7202 40.5942 21.6851C40.7817 21.647 40.9619 21.6279 41.1348 21.6279C41.4277 21.6279 41.6826 21.6426 41.8994 21.6719C42.1162 21.7012 42.2979 21.7334 42.4443 21.7686C42.6143 21.8096 42.7593 21.8564 42.8794 21.9092V22.665C42.7593 22.6562 42.6304 22.6475 42.4927 22.6387C42.3755 22.6328 42.2407 22.627 42.0884 22.6211C41.939 22.6123 41.7822 22.6079 41.6182 22.6079C41.4688 22.6079 41.3193 22.6138 41.1699 22.6255C41.0234 22.6372 40.8813 22.668 40.7437 22.7178C40.6089 22.7646 40.4829 22.835 40.3657 22.9287C40.2485 23.0225 40.146 23.1514 40.0581 23.3154C39.9731 23.4766 39.9058 23.6787 39.856 23.9219C39.8091 24.165 39.7856 24.4595 39.7856 24.8052C39.7856 25.1685 39.8105 25.479 39.8604 25.7368C39.9102 25.9946 39.979 26.21 40.0669 26.3828C40.1548 26.5557 40.2573 26.6919 40.3745 26.7915C40.4917 26.8911 40.6191 26.9673 40.7568 27.02C40.8945 27.0698 41.0381 27.1021 41.1875 27.1167C41.3369 27.1284 41.4863 27.1343 41.6357 27.1343C41.8291 27.1343 42.0049 27.1313 42.1631 27.1255C42.3213 27.1196 42.4561 27.1138 42.5674 27.1079C42.6992 27.0991 42.8179 27.0903 42.9233 27.0815V27.8374C42.7944 27.8901 42.6421 27.9355 42.4663 27.9736C42.314 28.0088 42.1265 28.0396 41.9038 28.0659C41.6841 28.0952 41.4277 28.1099 41.1348 28.1099Z" fill="black"/>
<path d="M22 7.5082C21.7856 8.8991 19.4715 8.45075 19.362 8.8991C18.7899 11.2399 20.2609 13.6889 17.5443 14.6945C16.1809 15.1992 14.6363 15.5 13 15.5C11.3637 15.5 9.81912 15.1992 8.45574 14.6945C5.73912 13.6889 7.21015 11.2399 6.63804 8.8991C6.52846 8.45075 4.49986 9.01644 3.99992 7.5082C3.49999 5.99996 2.88578 2.77972 4.21443 1.48099C5.37593 0.345649 7.85639 0.551606 9.66754 0.0617676C11.5 0.0617686 11 0.499976 13 0.553723C15 0.499976 15 0.0617907 16.3324 0.0617676C18.1436 0.551606 20.6241 0.345649 21.7856 1.48099C23.1142 2.77972 22.4999 5.99996 22 7.5082Z" fill="black"/>
<path d="M23 25C23 27.2091 18.5228 29 13 29C7.47715 29 3 27.2091 3 25C3 23.2089 5.94289 21.6928 10 21.1831C10.4851 21.1222 8.5 20.5 9 24.1548C10.5 27.5 12 27.5 13 27.5C14 27.5 15.5 27.5 17 24.1548C17.5 20.5 15.5149 21.1222 16 21.1831C20.0571 21.6928 23 23.2089 23 25Z" fill="black"/>
<ellipse cx="35" cy="7.5" rx="7.5" ry="4" transform="rotate(90 35 7.5)" fill="black"/>
<line x1="3" y1="17.5" x2="23" y2="17.5" stroke="black"/>
<line x1="0.5" y1="29" x2="0.5" y2="21" stroke="black"/>
<line x1="40.5" y1="15" x2="40.5" y2="2.18557e-08" stroke="black"/>
</svg>
