<svg width="95" height="48" viewBox="0 0 95 48" fill="none" xmlns="http://www.w3.org/2000/svg">
<path d="M20.4087 16.6818L20.4087 31.6818" stroke="black" stroke-width="2"/>
<path d="M23.8179 16.6818L23.8179 31.6818" stroke="black" stroke-width="2"/>
<path d="M27.2274 7.49923L21.4538 13.2726L27.2272 19.0462L33.0008 13.2728L27.2274 7.49923ZM27.2269 41.5462L33.0005 35.7728L27.227 29.9992L21.4534 35.7726L27.2269 41.5462ZM26.2273 13.2727L26.227 35.7727L28.227 35.7728L28.2273 13.2728L26.2273 13.2727Z" fill="black"/>
<path d="M29.9543 23.5L16.9998 23.5" stroke="black" stroke-width="2"/>
<path d="M40.5006 20.0909L34.7271 14.3174L28.9535 20.0909L34.7271 25.8644L40.5006 20.0909ZM6.45355 20.0909L12.2271 25.8644L18.0006 20.0909L12.2271 14.3174L6.45355 20.0909ZM34.7271 19.0909L23.4771 19.0909L23.4771 21.0909L34.7271 21.0909L34.7271 19.0909ZM23.4771 19.0909L12.2271 19.0909L12.2271 21.0909L23.4771 21.0909L23.4771 19.0909Z" fill="black"/>
<path d="M29.9543 26.9091H16.9998" stroke="black" stroke-width="2"/>
<rect x="70.5559" y="27.112" width="4.2471" height="10.6178" fill="black"/>
<rect x="75.8647" y="16.4942" width="3.18533" height="10.6178" fill="black"/>
<rect x="65.2471" y="27.112" width="4.2471" height="10.6178" fill="black"/>
<rect x="61" y="16.4942" width="3.18533" height="10.6178" fill="black"/>
<rect x="65.2471" y="16.4942" width="9.55598" height="10.6178" fill="black"/>
<circle cx="70.0253" cy="11.7162" r="3.71622" fill="black"/>
<rect x="1.5" y="1.5" width="92" height="45" rx="19.5" stroke="black" stroke-width="3"/>
</svg>
