<svg width="66" height="66" viewBox="0 0 66 66" fill="none" xmlns="http://www.w3.org/2000/svg">
<path d="M27 23L27 45" stroke="white" stroke-width="2"/>
<path d="M32 23L32 45" stroke="white" stroke-width="2"/>
<path d="M37.0006 12.2265L31.227 17.9999L37.0004 23.7735L42.774 18.0001L37.0006 12.2265ZM36.9999 56.7735L42.7735 51.0001L37.0001 45.2265L31.2265 50.9999L36.9999 56.7735ZM36.0005 18L36 51L38 51L38.0005 18L36.0005 18Z" fill="white"/>
<path d="M41 33L22 33" stroke="white" stroke-width="2"/>
<path d="M53.7735 28L48 22.2265L42.2265 28L48 33.7735L53.7735 28ZM9.2265 28L15 33.7735L20.7735 28L15 22.2265L9.2265 28ZM48 27L31.5 27L31.5 29L48 29L48 27ZM31.5 27L15 27L15 29L31.5 29L31.5 27Z" fill="white"/>
<path d="M41 38H22" stroke="white" stroke-width="2"/>
<circle cx="33" cy="33" r="30.5" stroke="white" stroke-width="5"/>
</svg>
