<svg width="58" height="55" viewBox="0 0 58 55" fill="none" xmlns="http://www.w3.org/2000/svg">
<line x1="0.837891" y1="11.3919" x2="57.3244" y2="11.3919" stroke="#DDEFDF"/>
<line x1="0.837891" y1="24.7703" x2="57.3244" y2="24.7703" stroke="#DDEFDF"/>
<line x1="0.837891" y1="36.6622" x2="57.3244" y2="36.6622" stroke="#DDEFDF"/>
<line x1="0.837891" y1="18.8243" x2="57.3244" y2="18.8243" stroke="#DDEFDF"/>
<line x1="0.837891" y1="30.7162" x2="57.3244" y2="30.7162" stroke="#DDEFDF"/>
<line x1="0.837891" y1="44.0946" x2="57.3244" y2="44.0946" stroke="#DDEFDF"/>
<line x1="45.9326" y1="3.02617e-08" x2="45.9326" y2="55" stroke="#DDEFDF"/>
<line x1="32.5542" y1="3.02617e-08" x2="32.5542" y2="55" stroke="#DDEFDF"/>
<line x1="20.6624" y1="3.02617e-08" x2="20.6624" y2="55" stroke="#DDEFDF"/>
<line x1="38.5" y1="3.02617e-08" x2="38.5" y2="55" stroke="#DDEFDF"/>
<line x1="26.6082" y1="3.02617e-08" x2="26.6082" y2="55" stroke="#DDEFDF"/>
<line x1="13.2297" y1="2.77399e-08" x2="13.2297" y2="55" stroke="#DDEFDF"/>
<rect x="29.6147" y="31.2296" width="4.71769" height="11.7942" fill="#00FF0A"/>
<rect x="35.5117" y="19.4354" width="3.53827" height="11.7942" fill="#00FF0A"/>
<rect x="23.7178" y="31.2296" width="4.71769" height="11.7942" fill="#00FF0A"/>
<rect x="19" y="19.4354" width="3.53827" height="11.7942" fill="#00FF0A"/>
<rect x="23.7178" y="19.4354" width="10.6148" height="11.7942" fill="#00FF0A"/>
<circle cx="29.0254" cy="14.128" r="4.12798" fill="#00FF0A"/>
<rect x="29.718" y="31.0039" width="4.2471" height="10.6178" fill="black"/>
<rect x="35.0269" y="20.3861" width="3.18533" height="10.6178" fill="black"/>
<rect x="24.4092" y="31.0039" width="4.2471" height="10.6178" fill="black"/>
<rect x="20.1621" y="20.3861" width="3.18533" height="10.6178" fill="black"/>
<rect x="24.4092" y="20.3861" width="9.55598" height="10.6178" fill="black"/>
<circle cx="29.1874" cy="15.6081" r="3.71622" fill="black"/>
</svg>
