<svg width="32" height="32" viewBox="0 0 32 32" fill="none" xmlns="http://www.w3.org/2000/svg">
<path d="M11.5 2.59808C14.2846 0.990381 17.7154 0.990381 20.5 2.59808L25.3564 5.40192C28.141 7.00962 29.8564 9.98076 29.8564 13.1962V18.8038C29.8564 22.0192 28.141 24.9904 25.3564 26.5981L20.5 29.4019C17.7154 31.0096 14.2846 31.0096 11.5 29.4019L6.64359 26.5981C3.85898 24.9904 2.14359 22.0192 2.14359 18.8038V13.1962C2.14359 9.98076 3.85898 7.00962 6.64359 5.40192L11.5 2.59808Z" fill="#FF0000"/>
<path d="M11.75 4.03109C14.3799 2.51271 17.6201 2.51271 20.25 4.03109L24.2404 6.33494C26.8703 7.85332 28.4904 10.6594 28.4904 13.6962V18.3038C28.4904 21.3406 26.8703 24.1467 24.2404 25.6651L20.25 27.9689C17.6201 29.4873 14.3799 29.4873 11.75 27.9689L7.75962 25.6651C5.12971 24.1467 3.50962 21.3406 3.50962 18.3038V13.6962C3.50962 10.6594 5.12971 7.85331 7.75962 6.33494L11.75 4.03109Z" fill="#FF0000" stroke="white"/>
<circle cx="16.0002" cy="16" r="2.18182" fill="black"/>
</svg>
