<svg width="44" height="17" viewBox="0 0 44 17" fill="none" xmlns="http://www.w3.org/2000/svg">
<rect x="44" width="17" height="44" rx="8.5" transform="rotate(90 44 0)" fill="#FF0000"/>
<path d="M9.99805 12H8.91406V3H9.99805V12ZM11.4512 8.77148C11.4512 8.15039 11.5723 7.5918 11.8145 7.0957C12.0605 6.59961 12.4004 6.2168 12.834 5.94727C13.2715 5.67773 13.7695 5.54297 14.3281 5.54297C15.1914 5.54297 15.8887 5.8418 16.4199 6.43945C16.9551 7.03711 17.2227 7.83203 17.2227 8.82422V8.90039C17.2227 9.51758 17.1035 10.0723 16.8652 10.5645C16.6309 11.0527 16.293 11.4336 15.8516 11.707C15.4141 11.9805 14.9102 12.1172 14.3398 12.1172C13.4805 12.1172 12.7832 11.8184 12.248 11.2207C11.7168 10.623 11.4512 9.83203 11.4512 8.84766V8.77148ZM12.541 8.90039C12.541 9.60352 12.7031 10.168 13.0273 10.5938C13.3555 11.0195 13.793 11.2324 14.3398 11.2324C14.8906 11.2324 15.3281 11.0176 15.6523 10.5879C15.9766 10.1543 16.1387 9.54883 16.1387 8.77148C16.1387 8.07617 15.9727 7.51367 15.6406 7.08398C15.3125 6.65039 14.875 6.43359 14.3281 6.43359C13.793 6.43359 13.3613 6.64648 13.0332 7.07227C12.7051 7.49805 12.541 8.10742 12.541 8.90039ZM18.3242 8.77734C18.3242 7.78906 18.5527 7.00391 19.0098 6.42188C19.4668 5.83594 20.0723 5.54297 20.8262 5.54297C21.5996 5.54297 22.2031 5.81641 22.6367 6.36328L22.6895 5.66016H23.6797V11.8477C23.6797 12.668 23.4355 13.3145 22.9473 13.7871C22.4629 14.2598 21.8105 14.4961 20.9902 14.4961C20.5332 14.4961 20.0859 14.3984 19.6484 14.2031C19.2109 14.0078 18.877 13.7402 18.6465 13.4004L19.209 12.75C19.6738 13.3242 20.2422 13.6113 20.9141 13.6113C21.4414 13.6113 21.8516 13.4629 22.1445 13.166C22.4414 12.8691 22.5898 12.4512 22.5898 11.9121V11.3672C22.1562 11.8672 21.5645 12.1172 20.8145 12.1172C20.0723 12.1172 19.4707 11.8184 19.0098 11.2207C18.5527 10.623 18.3242 9.80859 18.3242 8.77734ZM19.4141 8.90039C19.4141 9.61523 19.5605 10.1777 19.8535 10.5879C20.1465 10.9941 20.5566 11.1973 21.084 11.1973C21.7676 11.1973 22.2695 10.8867 22.5898 10.2656V7.37109C22.2578 6.76562 21.7598 6.46289 21.0957 6.46289C20.5684 6.46289 20.1562 6.66797 19.8594 7.07812C19.5625 7.48828 19.4141 8.0957 19.4141 8.90039ZM29.4746 12H28.3906V5.66016H29.4746V12ZM28.3027 3.97852C28.3027 3.80273 28.3555 3.6543 28.4609 3.5332C28.5703 3.41211 28.7305 3.35156 28.9414 3.35156C29.1523 3.35156 29.3125 3.41211 29.4219 3.5332C29.5312 3.6543 29.5859 3.80273 29.5859 3.97852C29.5859 4.1543 29.5312 4.30078 29.4219 4.41797C29.3125 4.53516 29.1523 4.59375 28.9414 4.59375C28.7305 4.59375 28.5703 4.53516 28.4609 4.41797C28.3555 4.30078 28.3027 4.1543 28.3027 3.97852ZM32.2402 5.66016L32.2754 6.45703C32.7598 5.84766 33.3926 5.54297 34.1738 5.54297C35.5137 5.54297 36.1895 6.29883 36.2012 7.81055V12H35.1172V7.80469C35.1133 7.34766 35.0078 7.00977 34.8008 6.79102C34.5977 6.57227 34.2793 6.46289 33.8457 6.46289C33.4941 6.46289 33.1855 6.55664 32.9199 6.74414C32.6543 6.93164 32.4473 7.17773 32.2988 7.48242V12H31.2148V5.66016H32.2402Z" fill="white"/>
</svg>
