<svg width="92" height="72" viewBox="0 0 92 72" fill="none" xmlns="http://www.w3.org/2000/svg">
<rect y="23" width="71" height="24" rx="11" fill="black"/>
<g filter="url(#filter0_ddd)">
<path d="M50 35L60 40.7735V29.2265L50 35ZM59 36H62V34H59V36Z" fill="white"/>
</g>
<g filter="url(#filter1_ddd)">
<path d="M36 35L46 40.7735V29.2265L36 35ZM45 36H48V34H45V36Z" fill="white"/>
</g>
<path d="M15.7344 38.373C15.3125 38.8691 14.6934 39.1172 13.877 39.1172C13.2012 39.1172 12.6855 38.9219 12.3301 38.5312C11.9785 38.1367 11.8008 37.5547 11.7969 36.7852V32.6602H12.8809V36.7559C12.8809 37.7168 13.2715 38.1973 14.0527 38.1973C14.8809 38.1973 15.4316 37.8887 15.7051 37.2715V32.6602H16.7891V39H15.7578L15.7344 38.373ZM18.4648 38.4316C18.4648 38.2441 18.5195 38.0879 18.6289 37.9629C18.7422 37.8379 18.9102 37.7754 19.1328 37.7754C19.3555 37.7754 19.5234 37.8379 19.6367 37.9629C19.7539 38.0879 19.8125 38.2441 19.8125 38.4316C19.8125 38.6113 19.7539 38.7617 19.6367 38.8828C19.5234 39.0039 19.3555 39.0645 19.1328 39.0645C18.9102 39.0645 18.7422 39.0039 18.6289 38.8828C18.5195 38.7617 18.4648 38.6113 18.4648 38.4316Z" fill="white"/>
<path d="M27.1758 35.9004C27.1758 36.8652 26.9551 37.6426 26.5137 38.2324C26.0723 38.8223 25.4746 39.1172 24.7207 39.1172C23.9512 39.1172 23.3457 38.873 22.9043 38.3848V41.4375H21.8203V32.6602H22.8105L22.8633 33.3633C23.3047 32.8164 23.918 32.543 24.7031 32.543C25.4648 32.543 26.0664 32.8301 26.5078 33.4043C26.9531 33.9785 27.1758 34.7773 27.1758 35.8008V35.9004ZM26.0918 35.7773C26.0918 35.0625 25.9395 34.498 25.6348 34.084C25.3301 33.6699 24.9121 33.4629 24.3809 33.4629C23.7246 33.4629 23.2324 33.7539 22.9043 34.3359V37.3652C23.2285 37.9434 23.7246 38.2324 24.3926 38.2324C24.9121 38.2324 25.3242 38.0273 25.6289 37.6172C25.9375 37.2031 26.0918 36.5898 26.0918 35.7773ZM28.582 38.4316C28.582 38.2441 28.6367 38.0879 28.7461 37.9629C28.8594 37.8379 29.0273 37.7754 29.25 37.7754C29.4727 37.7754 29.6406 37.8379 29.7539 37.9629C29.8711 38.0879 29.9297 38.2441 29.9297 38.4316C29.9297 38.6113 29.8711 38.7617 29.7539 38.8828C29.6406 39.0039 29.4727 39.0645 29.25 39.0645C29.0273 39.0645 28.8594 39.0039 28.7461 38.8828C28.6367 38.7617 28.582 38.6113 28.582 38.4316Z" fill="white"/>
<defs>
<filter id="filter0_ddd" x="20" y="0.226501" width="72" height="71.547" filterUnits="userSpaceOnUse" color-interpolation-filters="sRGB">
<feFlood flood-opacity="0" result="BackgroundImageFix"/>
<feColorMatrix in="SourceAlpha" type="matrix" values="0 0 0 0 0 0 0 0 0 0 0 0 0 0 0 0 0 0 127 0" result="hardAlpha"/>
<feOffset dy="1"/>
<feGaussianBlur stdDeviation="10"/>
<feComposite in2="hardAlpha" operator="out"/>
<feColorMatrix type="matrix" values="0 0 0 0 1 0 0 0 0 1 0 0 0 0 1 0 0 0 1 0"/>
<feBlend mode="normal" in2="BackgroundImageFix" result="effect1_dropShadow"/>
<feColorMatrix in="SourceAlpha" type="matrix" values="0 0 0 0 0 0 0 0 0 0 0 0 0 0 0 0 0 0 127 0" result="hardAlpha"/>
<feOffset dy="1"/>
<feGaussianBlur stdDeviation="15"/>
<feComposite in2="hardAlpha" operator="out"/>
<feColorMatrix type="matrix" values="0 0 0 0 1 0 0 0 0 1 0 0 0 0 1 0 0 0 1 0"/>
<feBlend mode="normal" in2="effect1_dropShadow" result="effect2_dropShadow"/>
<feColorMatrix in="SourceAlpha" type="matrix" values="0 0 0 0 0 0 0 0 0 0 0 0 0 0 0 0 0 0 127 0" result="hardAlpha"/>
<feOffset dy="1"/>
<feGaussianBlur stdDeviation="5"/>
<feComposite in2="hardAlpha" operator="out"/>
<feColorMatrix type="matrix" values="0 0 0 0 1 0 0 0 0 1 0 0 0 0 1 0 0 0 1 0"/>
<feBlend mode="normal" in2="effect2_dropShadow" result="effect3_dropShadow"/>
<feBlend mode="normal" in="SourceGraphic" in2="effect3_dropShadow" result="shape"/>
</filter>
<filter id="filter1_ddd" x="6" y="0.226501" width="72" height="71.547" filterUnits="userSpaceOnUse" color-interpolation-filters="sRGB">
<feFlood flood-opacity="0" result="BackgroundImageFix"/>
<feColorMatrix in="SourceAlpha" type="matrix" values="0 0 0 0 0 0 0 0 0 0 0 0 0 0 0 0 0 0 127 0" result="hardAlpha"/>
<feOffset dy="1"/>
<feGaussianBlur stdDeviation="10"/>
<feComposite in2="hardAlpha" operator="out"/>
<feColorMatrix type="matrix" values="0 0 0 0 1 0 0 0 0 1 0 0 0 0 1 0 0 0 1 0"/>
<feBlend mode="normal" in2="BackgroundImageFix" result="effect1_dropShadow"/>
<feColorMatrix in="SourceAlpha" type="matrix" values="0 0 0 0 0 0 0 0 0 0 0 0 0 0 0 0 0 0 127 0" result="hardAlpha"/>
<feOffset dy="1"/>
<feGaussianBlur stdDeviation="15"/>
<feComposite in2="hardAlpha" operator="out"/>
<feColorMatrix type="matrix" values="0 0 0 0 1 0 0 0 0 1 0 0 0 0 1 0 0 0 1 0"/>
<feBlend mode="normal" in2="effect1_dropShadow" result="effect2_dropShadow"/>
<feColorMatrix in="SourceAlpha" type="matrix" values="0 0 0 0 0 0 0 0 0 0 0 0 0 0 0 0 0 0 127 0" result="hardAlpha"/>
<feOffset dy="1"/>
<feGaussianBlur stdDeviation="5"/>
<feComposite in2="hardAlpha" operator="out"/>
<feColorMatrix type="matrix" values="0 0 0 0 1 0 0 0 0 1 0 0 0 0 1 0 0 0 1 0"/>
<feBlend mode="normal" in2="effect2_dropShadow" result="effect3_dropShadow"/>
<feBlend mode="normal" in="SourceGraphic" in2="effect3_dropShadow" result="shape"/>
</filter>
</defs>
</svg>
