<svg width="97" height="72" viewBox="0 0 97 72" fill="none" xmlns="http://www.w3.org/2000/svg">
<rect x="24" y="23" width="73" height="24" rx="5" fill="black"/>
<g filter="url(#filter0_ddd)">
<path d="M42 35L32 29.2265L32 40.7735L42 35ZM33 34L30 34L30 36L33 36L33 34Z" fill="white"/>
</g>
<g filter="url(#filter1_ddd)">
<path d="M59 35L49 29.2265L49 40.7735L59 35ZM50 34L47 34L47 36L50 36L50 34Z" fill="white"/>
</g>
<path d="M71.4512 39.1172C70.5918 39.1172 69.8926 38.8359 69.3535 38.2734C68.8145 37.707 68.5449 36.9512 68.5449 36.0059V35.8066C68.5449 35.1777 68.6641 34.6172 68.9023 34.125C69.1445 33.6289 69.4805 33.2422 69.9102 32.9648C70.3438 32.6836 70.8125 32.543 71.3164 32.543C72.1406 32.543 72.7812 32.8145 73.2383 33.3574C73.6953 33.9004 73.9238 34.6777 73.9238 35.6895V36.1406H69.6289C69.6445 36.7656 69.8262 37.2715 70.1738 37.6582C70.5254 38.041 70.9707 38.2324 71.5098 38.2324C71.8926 38.2324 72.2168 38.1543 72.4824 37.998C72.748 37.8418 72.9805 37.6348 73.1797 37.377L73.8418 37.8926C73.3105 38.709 72.5137 39.1172 71.4512 39.1172ZM71.3164 33.4336C70.8789 33.4336 70.5117 33.5938 70.2148 33.9141C69.918 34.2305 69.7344 34.6758 69.6641 35.25H72.8398V35.168C72.8086 34.6172 72.6602 34.1914 72.3945 33.8906C72.1289 33.5859 71.7695 33.4336 71.3164 33.4336ZM80.2871 34.9746L81.6934 32.6602H82.959L80.8848 35.7949L83.0234 39H81.7695L80.3047 36.627L78.8398 39H77.5801L79.7188 35.7949L77.6445 32.6602H78.8984L80.2871 34.9746ZM88.5605 31.125V32.6602H89.7441V33.498H88.5605V37.4297C88.5605 37.6836 88.6133 37.875 88.7188 38.0039C88.8242 38.1289 89.0039 38.1914 89.2578 38.1914C89.3828 38.1914 89.5547 38.168 89.7734 38.1211V39C89.4883 39.0781 89.2109 39.1172 88.9414 39.1172C88.457 39.1172 88.0918 38.9707 87.8457 38.6777C87.5996 38.3848 87.4766 37.9688 87.4766 37.4297V33.498H86.3223V32.6602H87.4766V31.125H88.5605Z" fill="white"/>
<defs>
<filter id="filter0_ddd" x="0" y="0.226494" width="72" height="71.547" filterUnits="userSpaceOnUse" color-interpolation-filters="sRGB">
<feFlood flood-opacity="0" result="BackgroundImageFix"/>
<feColorMatrix in="SourceAlpha" type="matrix" values="0 0 0 0 0 0 0 0 0 0 0 0 0 0 0 0 0 0 127 0" result="hardAlpha"/>
<feOffset dy="1"/>
<feGaussianBlur stdDeviation="10"/>
<feComposite in2="hardAlpha" operator="out"/>
<feColorMatrix type="matrix" values="0 0 0 0 1 0 0 0 0 1 0 0 0 0 1 0 0 0 1 0"/>
<feBlend mode="normal" in2="BackgroundImageFix" result="effect1_dropShadow"/>
<feColorMatrix in="SourceAlpha" type="matrix" values="0 0 0 0 0 0 0 0 0 0 0 0 0 0 0 0 0 0 127 0" result="hardAlpha"/>
<feOffset dy="1"/>
<feGaussianBlur stdDeviation="15"/>
<feComposite in2="hardAlpha" operator="out"/>
<feColorMatrix type="matrix" values="0 0 0 0 1 0 0 0 0 1 0 0 0 0 1 0 0 0 1 0"/>
<feBlend mode="normal" in2="effect1_dropShadow" result="effect2_dropShadow"/>
<feColorMatrix in="SourceAlpha" type="matrix" values="0 0 0 0 0 0 0 0 0 0 0 0 0 0 0 0 0 0 127 0" result="hardAlpha"/>
<feOffset dy="1"/>
<feGaussianBlur stdDeviation="5"/>
<feComposite in2="hardAlpha" operator="out"/>
<feColorMatrix type="matrix" values="0 0 0 0 1 0 0 0 0 1 0 0 0 0 1 0 0 0 1 0"/>
<feBlend mode="normal" in2="effect2_dropShadow" result="effect3_dropShadow"/>
<feBlend mode="normal" in="SourceGraphic" in2="effect3_dropShadow" result="shape"/>
</filter>
<filter id="filter1_ddd" x="17" y="0.226501" width="72" height="71.547" filterUnits="userSpaceOnUse" color-interpolation-filters="sRGB">
<feFlood flood-opacity="0" result="BackgroundImageFix"/>
<feColorMatrix in="SourceAlpha" type="matrix" values="0 0 0 0 0 0 0 0 0 0 0 0 0 0 0 0 0 0 127 0" result="hardAlpha"/>
<feOffset dy="1"/>
<feGaussianBlur stdDeviation="10"/>
<feComposite in2="hardAlpha" operator="out"/>
<feColorMatrix type="matrix" values="0 0 0 0 1 0 0 0 0 1 0 0 0 0 1 0 0 0 1 0"/>
<feBlend mode="normal" in2="BackgroundImageFix" result="effect1_dropShadow"/>
<feColorMatrix in="SourceAlpha" type="matrix" values="0 0 0 0 0 0 0 0 0 0 0 0 0 0 0 0 0 0 127 0" result="hardAlpha"/>
<feOffset dy="1"/>
<feGaussianBlur stdDeviation="15"/>
<feComposite in2="hardAlpha" operator="out"/>
<feColorMatrix type="matrix" values="0 0 0 0 1 0 0 0 0 1 0 0 0 0 1 0 0 0 1 0"/>
<feBlend mode="normal" in2="effect1_dropShadow" result="effect2_dropShadow"/>
<feColorMatrix in="SourceAlpha" type="matrix" values="0 0 0 0 0 0 0 0 0 0 0 0 0 0 0 0 0 0 127 0" result="hardAlpha"/>
<feOffset dy="1"/>
<feGaussianBlur stdDeviation="5"/>
<feComposite in2="hardAlpha" operator="out"/>
<feColorMatrix type="matrix" values="0 0 0 0 1 0 0 0 0 1 0 0 0 0 1 0 0 0 1 0"/>
<feBlend mode="normal" in2="effect2_dropShadow" result="effect3_dropShadow"/>
<feBlend mode="normal" in="SourceGraphic" in2="effect3_dropShadow" result="shape"/>
</filter>
</defs>
</svg>
