<svg width="110" height="111" viewBox="0 0 110 111" fill="none" xmlns="http://www.w3.org/2000/svg">
<g filter="url(#filter0_d)">
<circle cx="39.0034" cy="44.0035" r="9.0034" fill="#C4C4C4"/>
</g>
<g filter="url(#filter1_d)">
<circle cx="41.0034" cy="50.0035" r="9.0034" fill="#C4C4C4"/>
</g>
<g filter="url(#filter2_d)">
<circle cx="47.2925" cy="59.8688" r="9.0034" fill="#C4C4C4"/>
</g>
<g filter="url(#filter3_d)">
<circle cx="51.0034" cy="66.0035" r="9.0034" fill="#C4C4C4"/>
</g>
<g filter="url(#filter4_d)">
<circle cx="64.0132" cy="58.5827" r="9.0034" fill="#C4C4C4"/>
</g>
<g filter="url(#filter5_d)">
<circle cx="66.5864" cy="53.4379" r="9.0034" fill="#C4C4C4"/>
</g>
<g filter="url(#filter6_d)">
<circle cx="70.4448" cy="40.5759" r="9.0034" fill="#C4C4C4"/>
</g>
<g filter="url(#filter7_d)">
<circle cx="70.0034" cy="42.0035" r="9.0034" fill="#C4C4C4"/>
</g>
<g filter="url(#filter8_ddd)">
<path fill-rule="evenodd" clip-rule="evenodd" d="M69.0653 29.7791L78.7249 35.3561V46.51L75.2188 48.5343L79.384 52.6995L75.8722 65.8054L68.9817 67.6517L65.779 76.9914L50.4042 80L40.1113 68.1894L41.0991 65.3087L34.5779 61.5436V55.0543L30.6982 52.8144V38.7508L42.8777 31.7189L48.2122 34.7988L53.5467 31.7189L59.6261 35.2288L69.0653 29.7791Z" fill="black"/>
</g>
<path fill-rule="evenodd" clip-rule="evenodd" d="M60.9127 35.0178L60.5623 35.2201V45.6266L60.9728 45.8637L69.5341 43.5697V39.9954L60.9127 35.0178ZM61.9127 34.4404L70.5341 39.418V43.3017L71.1842 43.1275L75.4781 47.4214L78.5869 45.6266V35.2201L69.5746 30.0169L61.9127 34.4404ZM69.5341 44.605L62.1976 46.5708L69.5341 50.8065V44.605ZM70.5341 50.2759V44.337L70.8854 44.2429L74.5816 47.9391L70.5341 50.2759ZM69.5341 51.9612L60.8316 46.9368L58.5925 47.5368L57.7139 50.8158L60.7856 50.2147L68.194 58.7155L69.5341 57.9418V51.9612ZM68.8635 59.4837L70.5341 58.5192V51.4306L75.3136 48.6711L79.8844 53.2419L76.5905 65.5348L69.7722 67.3618L71.4543 62.4566L68.8635 59.4837ZM67.3116 59.225L60.411 51.307L57.4257 51.8911L55.2986 59.8297L59.3123 63.8434L67.3116 59.225ZM60.0444 64.5754L67.981 59.9932L70.3211 62.6783L68.6081 67.6737L64.2976 68.8287L60.0444 64.5754ZM58.4157 64.361L54.1832 60.1285L56.3332 52.1049L55.0551 52.355V52.7386L53.4485 53.6661V62.2891L49.7141 64.4452L53.9921 66.915L58.4157 64.361ZM48.7141 65.0225L53.9921 68.0697L59.1478 65.0931L63.9988 69.9441L68.2172 68.8138L65.4283 76.9464L50.6254 79.8431L40.7152 68.4718L41.28 66.8249L43.4362 68.0697L48.7141 65.0225ZM48.7141 63.8678L52.4485 61.7118V54.2435L43.9024 59.1775L43.3551 60.7738L48.7141 63.8678ZM43.0245 61.7376L47.7141 64.4452L43.4362 66.915L41.6105 65.861L43.0245 61.7376ZM42.4726 60.2643L42.5843 59.9386L42.4308 60.0272L38.45 57.7288V57.9418L42.4726 60.2643ZM37.45 57.1515V58.5192L42.1421 61.2281L40.7281 65.3515L34.4239 61.7118V55.4043L37.45 57.1515ZM38.45 56.5741L42.4308 58.8725L43.078 58.4988L44.8494 53.3332L52.4485 51.8462V51.3053L43.4362 46.102L38.45 48.9808V56.5741ZM37.45 49.5581V55.9968L34.4239 54.2496V51.3053L37.45 49.5581ZM38.45 47.8261L43.4362 44.9473L53.4485 50.7279V51.6505L54.0551 51.5318V38.7387L47.3408 34.8623L38.45 39.9954V47.8261ZM46.3408 34.2849L37.45 39.418V48.4034L33.4239 50.7279V53.6723L30.8066 52.1612V38.7387L42.4308 32.0275L46.3408 34.2849ZM47.3408 33.7076L53.9921 29.8675L60.9127 33.8631L69.5746 28.8622L79.5869 34.6428V46.204L76.2102 48.1535L80.9998 52.9431L77.407 66.3513L69.3813 68.5018L66.187 77.8169L50.2508 80.9354L39.582 68.6935L40.3976 66.3154L33.4239 62.2891V54.827L29.8066 52.7386V38.1614L42.4308 30.8728L47.3408 33.7076ZM48.3408 34.2849L55.0551 38.1614V51.3361L56.6213 51.0296L57.776 46.7203L59.6068 46.2297L59.5623 46.204V34.6428L59.9127 34.4404L53.9921 31.0222L48.3408 34.2849ZM52.4485 53.0888V52.8651L45.6081 54.2037L44.3962 57.7378L52.4485 53.0888Z" fill="white"/>
<defs>
<filter id="filter0_d" x="10" y="15.0001" width="58.0068" height="58.0068" filterUnits="userSpaceOnUse" color-interpolation-filters="sRGB">
<feFlood flood-opacity="0" result="BackgroundImageFix"/>
<feColorMatrix in="SourceAlpha" type="matrix" values="0 0 0 0 0 0 0 0 0 0 0 0 0 0 0 0 0 0 127 0" result="hardAlpha"/>
<feOffset/>
<feGaussianBlur stdDeviation="10"/>
<feComposite in2="hardAlpha" operator="out"/>
<feColorMatrix type="matrix" values="0 0 0 0 1 0 0 0 0 0 0 0 0 0 0 0 0 0 1 0"/>
<feBlend mode="normal" in2="BackgroundImageFix" result="effect1_dropShadow"/>
<feBlend mode="normal" in="SourceGraphic" in2="effect1_dropShadow" result="shape"/>
</filter>
<filter id="filter1_d" x="12" y="21.0001" width="58.0068" height="58.0068" filterUnits="userSpaceOnUse" color-interpolation-filters="sRGB">
<feFlood flood-opacity="0" result="BackgroundImageFix"/>
<feColorMatrix in="SourceAlpha" type="matrix" values="0 0 0 0 0 0 0 0 0 0 0 0 0 0 0 0 0 0 127 0" result="hardAlpha"/>
<feOffset/>
<feGaussianBlur stdDeviation="10"/>
<feComposite in2="hardAlpha" operator="out"/>
<feColorMatrix type="matrix" values="0 0 0 0 1 0 0 0 0 0 0 0 0 0 0 0 0 0 1 0"/>
<feBlend mode="normal" in2="BackgroundImageFix" result="effect1_dropShadow"/>
<feBlend mode="normal" in="SourceGraphic" in2="effect1_dropShadow" result="shape"/>
</filter>
<filter id="filter2_d" x="18.2891" y="30.8654" width="58.0068" height="58.0068" filterUnits="userSpaceOnUse" color-interpolation-filters="sRGB">
<feFlood flood-opacity="0" result="BackgroundImageFix"/>
<feColorMatrix in="SourceAlpha" type="matrix" values="0 0 0 0 0 0 0 0 0 0 0 0 0 0 0 0 0 0 127 0" result="hardAlpha"/>
<feOffset/>
<feGaussianBlur stdDeviation="10"/>
<feComposite in2="hardAlpha" operator="out"/>
<feColorMatrix type="matrix" values="0 0 0 0 0.14 0 0 0 0 0 0 0 0 0 1 0 0 0 1 0"/>
<feBlend mode="normal" in2="BackgroundImageFix" result="effect1_dropShadow"/>
<feBlend mode="normal" in="SourceGraphic" in2="effect1_dropShadow" result="shape"/>
</filter>
<filter id="filter3_d" x="22" y="40.0001" width="58.0068" height="58.0068" filterUnits="userSpaceOnUse" color-interpolation-filters="sRGB">
<feFlood flood-opacity="0" result="BackgroundImageFix"/>
<feColorMatrix in="SourceAlpha" type="matrix" values="0 0 0 0 0 0 0 0 0 0 0 0 0 0 0 0 0 0 127 0" result="hardAlpha"/>
<feOffset dy="3"/>
<feGaussianBlur stdDeviation="10"/>
<feComposite in2="hardAlpha" operator="out"/>
<feColorMatrix type="matrix" values="0 0 0 0 0.14 0 0 0 0 0 0 0 0 0 1 0 0 0 1 0"/>
<feBlend mode="normal" in2="BackgroundImageFix" result="effect1_dropShadow"/>
<feBlend mode="normal" in="SourceGraphic" in2="effect1_dropShadow" result="shape"/>
</filter>
<filter id="filter4_d" x="25.0098" y="22.5793" width="78.0068" height="78.0068" filterUnits="userSpaceOnUse" color-interpolation-filters="sRGB">
<feFlood flood-opacity="0" result="BackgroundImageFix"/>
<feColorMatrix in="SourceAlpha" type="matrix" values="0 0 0 0 0 0 0 0 0 0 0 0 0 0 0 0 0 0 127 0" result="hardAlpha"/>
<feOffset dy="3"/>
<feGaussianBlur stdDeviation="15"/>
<feComposite in2="hardAlpha" operator="out"/>
<feColorMatrix type="matrix" values="0 0 0 0 0 0 0 0 0 1 0 0 0 0 0.64 0 0 0 1 0"/>
<feBlend mode="normal" in2="BackgroundImageFix" result="effect1_dropShadow"/>
<feBlend mode="normal" in="SourceGraphic" in2="effect1_dropShadow" result="shape"/>
</filter>
<filter id="filter5_d" x="47.583" y="37.4345" width="38.0068" height="38.0068" filterUnits="userSpaceOnUse" color-interpolation-filters="sRGB">
<feFlood flood-opacity="0" result="BackgroundImageFix"/>
<feColorMatrix in="SourceAlpha" type="matrix" values="0 0 0 0 0 0 0 0 0 0 0 0 0 0 0 0 0 0 127 0" result="hardAlpha"/>
<feOffset dy="3"/>
<feGaussianBlur stdDeviation="5"/>
<feComposite in2="hardAlpha" operator="out"/>
<feColorMatrix type="matrix" values="0 0 0 0 0 0 0 0 0 1 0 0 0 0 0.0999999 0 0 0 1 0"/>
<feBlend mode="normal" in2="BackgroundImageFix" result="effect1_dropShadow"/>
<feBlend mode="normal" in="SourceGraphic" in2="effect1_dropShadow" result="shape"/>
</filter>
<filter id="filter6_d" x="41.4414" y="11.5725" width="58.0068" height="58.0068" filterUnits="userSpaceOnUse" color-interpolation-filters="sRGB">
<feFlood flood-opacity="0" result="BackgroundImageFix"/>
<feColorMatrix in="SourceAlpha" type="matrix" values="0 0 0 0 0 0 0 0 0 0 0 0 0 0 0 0 0 0 127 0" result="hardAlpha"/>
<feOffset/>
<feGaussianBlur stdDeviation="10"/>
<feComposite in2="hardAlpha" operator="out"/>
<feColorMatrix type="matrix" values="0 0 0 0 0.92 0 0 0 0 1 0 0 0 0 0 0 0 0 1 0"/>
<feBlend mode="normal" in2="BackgroundImageFix" result="effect1_dropShadow"/>
<feBlend mode="normal" in="SourceGraphic" in2="effect1_dropShadow" result="shape"/>
</filter>
<filter id="filter7_d" x="51" y="23.0001" width="38.0068" height="38.0068" filterUnits="userSpaceOnUse" color-interpolation-filters="sRGB">
<feFlood flood-opacity="0" result="BackgroundImageFix"/>
<feColorMatrix in="SourceAlpha" type="matrix" values="0 0 0 0 0 0 0 0 0 0 0 0 0 0 0 0 0 0 127 0" result="hardAlpha"/>
<feOffset/>
<feGaussianBlur stdDeviation="5"/>
<feComposite in2="hardAlpha" operator="out"/>
<feColorMatrix type="matrix" values="0 0 0 0 0.92 0 0 0 0 1 0 0 0 0 0 0 0 0 0.8 0"/>
<feBlend mode="normal" in2="BackgroundImageFix" result="effect1_dropShadow"/>
<feBlend mode="normal" in="SourceGraphic" in2="effect1_dropShadow" result="shape"/>
</filter>
<filter id="filter8_ddd" x="0.698242" y="0.779114" width="108.686" height="110.221" filterUnits="userSpaceOnUse" color-interpolation-filters="sRGB">
<feFlood flood-opacity="0" result="BackgroundImageFix"/>
<feColorMatrix in="SourceAlpha" type="matrix" values="0 0 0 0 0 0 0 0 0 0 0 0 0 0 0 0 0 0 127 0" result="hardAlpha"/>
<feOffset dy="1"/>
<feGaussianBlur stdDeviation="10"/>
<feComposite in2="hardAlpha" operator="out"/>
<feColorMatrix type="matrix" values="0 0 0 0 1 0 0 0 0 1 0 0 0 0 1 0 0 0 1 0"/>
<feBlend mode="normal" in2="BackgroundImageFix" result="effect1_dropShadow"/>
<feColorMatrix in="SourceAlpha" type="matrix" values="0 0 0 0 0 0 0 0 0 0 0 0 0 0 0 0 0 0 127 0" result="hardAlpha"/>
<feOffset dy="1"/>
<feGaussianBlur stdDeviation="15"/>
<feComposite in2="hardAlpha" operator="out"/>
<feColorMatrix type="matrix" values="0 0 0 0 1 0 0 0 0 1 0 0 0 0 1 0 0 0 1 0"/>
<feBlend mode="normal" in2="effect1_dropShadow" result="effect2_dropShadow"/>
<feColorMatrix in="SourceAlpha" type="matrix" values="0 0 0 0 0 0 0 0 0 0 0 0 0 0 0 0 0 0 127 0" result="hardAlpha"/>
<feOffset dy="1"/>
<feGaussianBlur stdDeviation="5"/>
<feComposite in2="hardAlpha" operator="out"/>
<feColorMatrix type="matrix" values="0 0 0 0 1 0 0 0 0 1 0 0 0 0 1 0 0 0 1 0"/>
<feBlend mode="normal" in2="effect2_dropShadow" result="effect3_dropShadow"/>
<feBlend mode="normal" in="SourceGraphic" in2="effect3_dropShadow" result="shape"/>
</filter>
</defs>
</svg>
