<svg width="640" height="467" viewBox="0 0 640 467" fill="none" xmlns="http://www.w3.org/2000/svg">
<path d="M128.52 303.711C136.905 305.015 132.997 316.388 137.909 323.307C140.841 327.437 145.649 328.066 146.449 333.067C147.499 339.633 142.809 344.492 136.647 346.991C128.165 350.43 124.716 335.839 115.602 336.677C101.649 337.962 93.1441 353.57 96.6407 367.14C98.7528 375.336 103.992 378.462 110.678 383.653C112.722 385.24 113.79 386.335 116.157 387.382C127.487 392.397 103.028 363.895 112.469 355.873C117.012 352.013 121.718 348.877 127.085 351.472C133.777 354.709 132.025 363.463 129.297 370.378C124.933 381.445 112.216 378.114 100.554 380.467C93.5872 381.872 86.9399 377.05 82.4777 382.582C76.3971 390.121 95.8848 391.246 105.562 391.648C117.255 392.134 128.314 391.434 133.564 380.974C137.039 374.049 129.677 367.818 133.595 361.133C136.637 355.942 142.003 356.477 145.969 351.952C150.166 347.163 153.271 343.95 153.704 337.598C154.231 329.861 151.366 324.076 144.896 319.8C132.425 311.558 118.154 360.505 116.651 345.633C115.555 334.794 133.385 332.005 130.599 321.473C129.584 317.638 127.726 315.976 125.566 312.648C120.705 305.152 118.603 290.957 110.75 295.217C103.299 299.259 117.521 309.441 113.273 316.776C107.238 327.198 91.4095 309.649 82.4479 317.694C71.8086 327.246 132.673 319.869 118.693 322.867C114.868 323.687 112.63 324.471 108.743 324.031C97.934 322.808 97.9962 310.607 89.2648 304.12C63.6397 285.081 147.752 355.1 125.099 377.594C102.142 400.39 34.6232 362.966 52.5089 337.674C70.3946 312.381 72.8136 353.109 86.1359 349.204C93.3579 347.088 100.381 345.618 102.004 338.269C104.37 327.55 78.4147 325.07 74.0682 335.15C69.6414 345.416 97.4786 330.142 102.237 340.259C107.625 351.716 85.2971 382.252 80.5083 364.32C75.7196 346.389 104.247 363.658 112.159 353.219C122.085 340.124 92.079 305.156 107.267 311.427C116.283 315.15 119.936 322.031 122.063 331.55C126.711 352.355 73.649 347.302 80.8643 367.361C88.5687 388.781 128.637 373.992 137.346 352.961C146.845 330.022 122.703 302.285 97.8886 303.111C69.1504 304.067 94.0568 392.554 73.4021 372.549C64.958 364.371 61.0842 356.828 61.1081 345.073C61.1306 333.976 62.7245 313.067 72.166 318.898C78.7253 322.949 71.1865 333.218 77.2563 337.971C86.3839 345.119 94.841 317.216 103.768 324.614C110.496 330.189 113.106 341.273 106.369 346.836C99.6601 352.375 93.7609 339.569 85.0878 340.249C71.6359 341.304 55.6959 348.482 58.4056 362.2C61.1154 375.919 100.445 358.198 93.3029 370.22C89.09 377.311 82.3977 379.873 74.1785 379.183C60.6126 378.043 59.5416 362.279 56.8528 348.933C53.7318 333.443 54.3589 321.651 63.9583 309.1C69.9528 301.261 75.0187 297.285 84.413 294.265C90.2483 292.389 93.8738 292.315 100.002 292.44C108.248 292.609 117.688 289.058 120.679 296.745C124.064 305.442 111.063 308.821 102.292 312.01C93.0188 315.381 81.8981 303.022 77.0283 311.604C73.9361 317.053 75.5797 321.925 78.2282 327.603C85.0024 342.126 107.607 338.74 119.264 327.743C126.58 320.842 118.582 302.164 128.52 303.711Z" stroke="white" stroke-width="2"/>
<g filter="url(#filter0_ddd_912:127)">
<rect x="35.5" y="273.5" width="133" height="133" stroke="white" stroke-width="11" shape-rendering="crispEdges"/>
</g>
<mask id="path-3-inside-1_912:127" fill="white">
<path d="M439.524 347.903C439.524 348.673 439.83 349.412 440.374 349.956C440.919 350.501 441.657 350.807 442.427 350.807C443.197 350.807 443.936 350.501 444.48 349.956C445.025 349.412 445.33 348.673 445.33 347.903L442.427 347.903L439.524 347.903Z"/>
</mask>
<path d="M439.524 347.903C439.524 348.673 439.83 349.412 440.374 349.956C440.919 350.501 441.657 350.807 442.427 350.807C443.197 350.807 443.936 350.501 444.48 349.956C445.025 349.412 445.33 348.673 445.33 347.903L442.427 347.903L439.524 347.903Z" stroke="white" stroke-width="42" mask="url(#path-3-inside-1_912:127)"/>
<path d="M444.097 348.597C442.025 318.464 426.064 289.334 421.289 263.678C413.516 221.926 443.471 119.394 371.07 139.729C294.252 161.303 497.751 241.897 429.86 263.678C374.344 281.489 350.384 185.092 363.086 169.487C376.435 153.087 383.771 166.947 395.748 147.236C417.756 111.014 401.874 105.616 390.304 105.616C371.253 105.616 378.534 115.978 358.41 103.744M394.363 10.4684C394.363 10.4684 307.426 53.4203 358.41 103.744M358.41 103.744C341.877 96.3988 337.85 97.4091 323.067 82.7717C305.275 65.1554 308.886 41.0009 290.245 16.7959" stroke="white" stroke-width="3"/>
<path d="M442.073 348.699C442.073 348.699 440.556 267.699 470.777 232.613C485.504 215.515 503.978 217.077 517.013 198.588C530.024 180.133 534.447 165.697 534.042 142.999" stroke="white" stroke-width="3"/>
<path d="M441.043 348.03C441.043 348.03 477.937 274.473 407.848 239.241C373.693 222.072 321.572 221.477 292.693 203.226C263.869 185.01 257.364 171.388 267.644 150.773" stroke="white" stroke-width="3"/>
<path d="M442.316 347.854C445.829 299.771 464.483 277.021 497.461 242.431C507.872 231.512 525.05 223.386 538.832 218.376M629.559 194.165C600.889 209.407 574.034 207.955 538.832 218.376M538.832 218.376C568.707 199.245 576.418 201.46 583.47 182.915C588.96 168.475 583.47 131.382 583.47 131.382" stroke="white" stroke-width="3"/>
<path d="M442.2 348.037C436.756 304.488 546.354 211.947 488.289 193.802C469.462 187.918 426.352 267.075 443.234 277.996C470.495 295.631 473.785 290.335 530.392 249.689C587 209.044 588.337 147.713 546.354 119.406C498.45 87.1071 477.9 92.1579 466.812 100.564C453.59 110.589 457.619 133.406 466.812 147.713C495.268 191.995 548.919 114.582 530.392 25.05" stroke="white" stroke-width="3"/>
<path d="M442.974 349.541C442.974 349.541 446.591 322.331 435.667 316.464C426.196 311.378 407.089 322.854 398.783 316.464C386.379 306.922 383.068 278.767 394.023 277.15C404.978 275.533 406.898 294.729 398.783 301.01C390.669 307.29 374.581 312.037 369.023 302.861C361.724 290.81 368.721 286.39 364.016 281.579C358.551 275.99 353.847 282.725 343.446 275.722M286.149 231.666C286.149 231.666 321.191 276.889 343.446 275.722M343.446 275.722C328.986 259.222 325.178 235.412 326.069 226.101C327.59 210.207 320.074 164.886 309.375 159.689" stroke="white" stroke-width="3"/>
<path d="M443.264 346.514C439.98 352.147 477.534 381.826 469.287 342.891C466.681 330.586 445.194 355.089 442.131 354.409C436.256 353.104 474.349 333.463 444.655 342.478C437.427 344.672 426.363 349.45 433.221 351.557C440.802 353.887 468.643 349.411 463.31 345.274C459.947 342.664 445.67 350.91 441.998 348.484C435.708 344.326 432.49 346.789 434.281 353.452C437.608 365.836 451.359 342.967 443.264 346.514ZM443.264 346.514C450.723 333.719 414.402 347.195 428.957 354.409C443.512 361.623 424.347 335.579 423.634 358.204C422.921 380.828 452.503 363.247 458.569 361.198M443.264 346.514C443.264 346.514 463.55 358.755 458.569 361.198M443.264 346.514C443.264 346.514 436.803 348.269 420.938 342.478C415.916 340.645 416.711 344.698 410.874 345.847C403.629 347.274 408.153 349.945 414.916 351.568C418.767 352.492 421.98 351.965 425.717 350.493C431.471 348.226 418.148 335.5 424.347 333.463C434.725 330.054 428.723 337.63 430.029 340.282C433.221 346.759 438.637 344.964 438.637 344.964C438.637 344.964 491.138 361.007 456 370.847C434.613 376.836 444.335 352.659 444.655 349.118C445.181 343.289 422.81 360.425 430.029 363.527C436.98 366.514 450.49 363.666 458.569 361.198" stroke="white" stroke-width="3"/>
<g filter="url(#filter1_ddd_912:127)">
<path d="M374 342V405H507V342" stroke="white" stroke-width="11"/>
</g>
<path d="M15.1582 461.249C15.9313 461.249 16.5776 461.032 17.0972 460.599C17.6229 460.16 17.9074 459.594 17.9507 458.901H19.0176C18.9867 459.514 18.7949 460.073 18.4424 460.581C18.0898 461.082 17.6198 461.474 17.0322 461.759C16.4508 462.043 15.8262 462.186 15.1582 462.186C13.8408 462.186 12.7956 461.728 12.0225 460.812C11.2555 459.897 10.8721 458.666 10.8721 457.12V456.786C10.8721 455.797 11.0452 454.921 11.3916 454.161C11.738 453.4 12.2327 452.812 12.876 452.398C13.5254 451.984 14.283 451.776 15.1489 451.776C16.2498 451.776 17.1559 452.104 17.8672 452.76C18.5846 453.415 18.9681 454.278 19.0176 455.348H17.9507C17.9012 454.563 17.6167 453.929 17.0972 453.446C16.5838 452.964 15.9344 452.723 15.1489 452.723C14.147 452.723 13.3677 453.084 12.811 453.808C12.2606 454.532 11.9854 455.546 11.9854 456.851V457.176C11.9854 458.456 12.2606 459.455 12.811 460.172C13.3677 460.89 14.1501 461.249 15.1582 461.249ZM24.3984 456.035L27.1074 451.962H28.4248L25.02 456.888L28.5732 462H27.2651L24.4077 457.751L21.5503 462H20.2422L23.7861 456.888L20.3813 451.962H21.6895L24.3984 456.035ZM29.6865 456.833C29.6865 455.868 29.8721 454.999 30.2432 454.226C30.6204 453.452 31.1493 452.853 31.8296 452.426C32.5161 451.993 33.2923 451.776 34.1582 451.776C35.4941 451.776 36.5765 452.246 37.4053 453.187C38.234 454.12 38.6484 455.361 38.6484 456.907V457.139C38.6484 458.11 38.4598 458.985 38.0825 459.764C37.7114 460.537 37.1857 461.134 36.5054 461.555C35.825 461.975 35.0488 462.186 34.1768 462.186C32.847 462.186 31.7646 461.719 30.9297 460.785C30.1009 459.845 29.6865 458.601 29.6865 457.055V456.833ZM30.7998 457.139C30.7998 458.339 31.109 459.325 31.7275 460.098C32.3522 460.865 33.1686 461.249 34.1768 461.249C35.1787 461.249 35.9889 460.865 36.6074 460.098C37.2321 459.325 37.5444 458.308 37.5444 457.046V456.833C37.5444 456.066 37.4022 455.364 37.1177 454.727C36.8332 454.09 36.4342 453.598 35.9209 453.251C35.4076 452.899 34.82 452.723 34.1582 452.723C33.1686 452.723 32.3615 453.112 31.7368 453.892C31.1121 454.665 30.7998 455.679 30.7998 456.935V457.139ZM41.0698 462V451.962H44.7529C46.027 451.962 47.0042 452.191 47.6846 452.648C48.3649 453.1 48.7051 453.765 48.7051 454.643C48.7051 455.144 48.5535 455.592 48.2505 455.988C47.9474 456.378 47.5052 456.662 46.9238 456.842C47.5794 456.965 48.1051 457.247 48.501 457.686C48.903 458.125 49.104 458.635 49.104 459.217C49.104 460.101 48.7762 460.788 48.1206 461.276C47.4712 461.759 46.5496 462 45.356 462H41.0698ZM42.1738 457.38V461.072H45.3931C46.228 461.072 46.8713 460.911 47.3228 460.59C47.7743 460.268 48 459.804 48 459.198C48 458.642 47.7743 458.199 47.3228 457.872C46.8713 457.544 46.228 457.38 45.3931 457.38H42.1738ZM42.1738 456.452H44.9849C46.729 456.427 47.6011 455.834 47.6011 454.671C47.6011 454.059 47.3599 453.613 46.8774 453.335C46.4012 453.05 45.693 452.908 44.7529 452.908H42.1738V456.452ZM57.9175 462C57.8062 461.685 57.735 461.218 57.7041 460.599C57.3145 461.106 56.8166 461.499 56.2104 461.777C55.6105 462.049 54.9735 462.186 54.2993 462.186C53.3345 462.186 52.5521 461.917 51.9521 461.378C51.3584 460.84 51.0615 460.16 51.0615 459.337C51.0615 458.36 51.4666 457.587 52.2769 457.018C53.0933 456.449 54.2282 456.165 55.6816 456.165H57.6948V455.023C57.6948 454.306 57.4722 453.743 57.0269 453.335C56.5877 452.921 55.9445 452.713 55.0972 452.713C54.3241 452.713 53.6839 452.911 53.1768 453.307C52.6696 453.703 52.416 454.179 52.416 454.736L51.3027 454.727C51.3027 453.929 51.6738 453.239 52.416 452.658C53.1582 452.07 54.0705 451.776 55.1528 451.776C56.2723 451.776 57.1536 452.058 57.7969 452.621C58.4463 453.177 58.7803 453.957 58.7988 454.958V459.708C58.7988 460.68 58.9009 461.406 59.105 461.889V462H57.9175ZM54.4292 461.202C55.1714 461.202 55.8332 461.023 56.4146 460.664C57.0021 460.305 57.4289 459.826 57.6948 459.226V457.018H55.7095C54.6024 457.03 53.7365 457.235 53.1118 457.63C52.4871 458.02 52.1748 458.558 52.1748 459.245C52.1748 459.807 52.382 460.274 52.7964 460.646C53.217 461.017 53.7612 461.202 54.4292 461.202ZM69.4771 462H68.3638V457.398H62.9551V462H61.8418V451.962H62.9551V456.461H68.3638V451.962H69.4771V462ZM80.1646 462H79.0513V457.398H73.6426V462H72.5293V451.962H73.6426V456.461H79.0513V451.962H80.1646V462ZM89.7388 451.962H90.8521V462H89.7388V453.752L84.3208 462H83.2168V451.962H84.3208V460.219L89.7388 451.962ZM100.426 451.962H101.54V462H100.426V453.752L95.0083 462H93.9043V451.962H95.0083V460.219L100.426 451.962ZM100.371 448.344C100.371 449.055 100.126 449.63 99.6377 450.069C99.1553 450.508 98.5059 450.728 97.6895 450.728C96.8854 450.728 96.236 450.512 95.7412 450.079C95.2526 449.639 95.0083 449.061 95.0083 448.344H95.9546C95.9546 448.857 96.1061 449.25 96.4092 449.522C96.7184 449.794 97.1452 449.93 97.6895 449.93C98.2337 449.93 98.6574 449.788 98.9604 449.503C99.2697 449.219 99.4243 448.832 99.4243 448.344H100.371ZM116.847 462H115.734V452.917H110.325V462H109.212V451.962H116.847V462ZM119.213 456.833C119.213 455.868 119.398 454.999 119.77 454.226C120.147 453.452 120.676 452.853 121.356 452.426C122.042 451.993 122.819 451.776 123.685 451.776C125.021 451.776 126.103 452.246 126.932 453.187C127.76 454.12 128.175 455.361 128.175 456.907V457.139C128.175 458.11 127.986 458.985 127.609 459.764C127.238 460.537 126.712 461.134 126.032 461.555C125.351 461.975 124.575 462.186 123.703 462.186C122.373 462.186 121.291 461.719 120.456 460.785C119.627 459.845 119.213 458.601 119.213 457.055V456.833ZM120.326 457.139C120.326 458.339 120.635 459.325 121.254 460.098C121.879 460.865 122.695 461.249 123.703 461.249C124.705 461.249 125.515 460.865 126.134 460.098C126.758 459.325 127.071 458.308 127.071 457.046V456.833C127.071 456.066 126.929 455.364 126.644 454.727C126.36 454.09 125.961 453.598 125.447 453.251C124.934 452.899 124.346 452.723 123.685 452.723C122.695 452.723 121.888 453.112 121.263 453.892C120.639 454.665 120.326 455.679 120.326 456.935V457.139ZM137.48 452.908H133.825V462H132.711V452.908H129.195V451.962H137.48V452.908ZM142.453 462.186C141.599 462.186 140.826 461.975 140.133 461.555C139.447 461.134 138.912 460.55 138.528 459.801C138.145 459.047 137.953 458.202 137.953 457.269V456.87C137.953 455.905 138.139 455.036 138.51 454.263C138.887 453.49 139.41 452.883 140.078 452.444C140.746 451.999 141.469 451.776 142.249 451.776C143.467 451.776 144.432 452.194 145.143 453.029C145.861 453.858 146.219 454.993 146.219 456.434V457.055H139.057V457.269C139.057 458.407 139.382 459.356 140.031 460.117C140.687 460.871 141.509 461.249 142.499 461.249C143.093 461.249 143.615 461.14 144.067 460.924C144.525 460.707 144.939 460.361 145.31 459.885L146.006 460.414C145.189 461.595 144.005 462.186 142.453 462.186ZM142.249 452.723C141.414 452.723 140.708 453.029 140.133 453.641C139.564 454.253 139.218 455.076 139.094 456.109H145.115V455.988C145.084 455.023 144.809 454.238 144.29 453.632C143.77 453.026 143.09 452.723 142.249 452.723ZM156.09 462H154.977V457.398H149.568V462H148.455V451.962H149.568V456.461H154.977V451.962H156.09V462ZM159.143 451.962H160.256V461.063H165.665V451.962H166.778V461.063H167.798L167.715 464.978H166.694V462H159.143V451.962ZM171.129 462H170.016V451.962H171.129V462ZM169.821 449.058C169.821 448.848 169.889 448.672 170.025 448.529C170.161 448.381 170.347 448.307 170.582 448.307C170.817 448.307 171.002 448.381 171.138 448.529C171.28 448.672 171.352 448.848 171.352 449.058C171.352 449.268 171.28 449.445 171.138 449.587C171.002 449.729 170.817 449.8 170.582 449.8C170.347 449.8 170.161 449.729 170.025 449.587C169.889 449.445 169.821 449.268 169.821 449.058ZM180.49 462C180.378 461.685 180.307 461.218 180.276 460.599C179.887 461.106 179.389 461.499 178.783 461.777C178.183 462.049 177.546 462.186 176.872 462.186C175.907 462.186 175.124 461.917 174.524 461.378C173.931 460.84 173.634 460.16 173.634 459.337C173.634 458.36 174.039 457.587 174.849 457.018C175.666 456.449 176.8 456.165 178.254 456.165H180.267V455.023C180.267 454.306 180.044 453.743 179.599 453.335C179.16 452.921 178.517 452.713 177.669 452.713C176.896 452.713 176.256 452.911 175.749 453.307C175.242 453.703 174.988 454.179 174.988 454.736L173.875 454.727C173.875 453.929 174.246 453.239 174.988 452.658C175.73 452.07 176.643 451.776 177.725 451.776C178.845 451.776 179.726 452.058 180.369 452.621C181.019 453.177 181.353 453.957 181.371 454.958V459.708C181.371 460.68 181.473 461.406 181.677 461.889V462H180.49ZM177.001 461.202C177.744 461.202 178.405 461.023 178.987 460.664C179.574 460.305 180.001 459.826 180.267 459.226V457.018H178.282C177.175 457.03 176.309 457.235 175.684 457.63C175.059 458.02 174.747 458.558 174.747 459.245C174.747 459.807 174.954 460.274 175.369 460.646C175.789 461.017 176.333 461.202 177.001 461.202ZM192.059 451.962V462H190.945V452.917H186.835L186.659 456.675C186.585 458.066 186.446 459.13 186.242 459.866C186.038 460.596 185.735 461.134 185.333 461.48C184.931 461.827 184.396 462 183.728 462H183.301V461.017L183.644 460.998C184.281 460.986 184.739 460.676 185.017 460.07C185.295 459.464 185.478 458.382 185.564 456.823L185.769 451.962H192.059Z" fill="white"/>
<path d="M353.568 462V451.962H357.251C358.525 451.962 359.502 452.191 360.183 452.648C360.863 453.1 361.203 453.765 361.203 454.643C361.203 455.144 361.052 455.592 360.749 455.988C360.445 456.378 360.003 456.662 359.422 456.842C360.077 456.965 360.603 457.247 360.999 457.686C361.401 458.125 361.602 458.635 361.602 459.217C361.602 460.101 361.274 460.788 360.619 461.276C359.969 461.759 359.048 462 357.854 462H353.568ZM354.672 457.38V461.072H357.891C358.726 461.072 359.369 460.911 359.821 460.59C360.272 460.268 360.498 459.804 360.498 459.198C360.498 458.642 360.272 458.199 359.821 457.872C359.369 457.544 358.726 457.38 357.891 457.38H354.672ZM354.672 456.452H357.483C359.227 456.427 360.099 455.834 360.099 454.671C360.099 454.059 359.858 453.613 359.375 453.335C358.899 453.05 358.191 452.908 357.251 452.908H354.672V456.452ZM365.322 462H364.209V451.962H365.322V462ZM364.014 449.058C364.014 448.848 364.082 448.672 364.218 448.529C364.354 448.381 364.54 448.307 364.775 448.307C365.01 448.307 365.195 448.381 365.332 448.529C365.474 448.672 365.545 448.848 365.545 449.058C365.545 449.268 365.474 449.445 365.332 449.587C365.195 449.729 365.01 449.8 364.775 449.8C364.54 449.8 364.354 449.729 364.218 449.587C364.082 449.445 364.014 449.268 364.014 449.058ZM368.115 461.063L368.606 460.423C369.386 459.365 369.834 457.819 369.952 455.784L370.128 451.962H376.056V461.063H377.095V464.95H375.991V462H368.449V464.95H367.382L367.391 461.063H368.115ZM369.395 461.063H374.943V453.001H371.186L371.065 455.608C370.954 458.001 370.397 459.82 369.395 461.063ZM381.966 457.398H380.426V462H379.303V451.962H380.426V456.415H381.947L385.63 451.962H387.031L382.912 456.833L387.486 462H386.02L381.966 457.398ZM397.162 457.083C397.162 458.648 396.816 459.891 396.123 460.812C395.43 461.728 394.503 462.186 393.34 462.186C391.967 462.186 390.915 461.703 390.186 460.738V465.859H389.082V451.962H390.111L390.167 453.381C390.891 452.311 391.939 451.776 393.312 451.776C394.512 451.776 395.452 452.231 396.132 453.14C396.819 454.049 397.162 455.311 397.162 456.925V457.083ZM396.049 456.888C396.049 455.608 395.786 454.597 395.26 453.854C394.735 453.112 394.002 452.741 393.062 452.741C392.381 452.741 391.797 452.905 391.308 453.233C390.819 453.561 390.445 454.037 390.186 454.662V459.477C390.451 460.052 390.832 460.491 391.327 460.794C391.821 461.097 392.406 461.249 393.08 461.249C394.014 461.249 394.741 460.877 395.26 460.135C395.786 459.387 396.049 458.305 396.049 456.888ZM406.226 451.962H407.339V462H406.226V453.752L400.808 462H399.704V451.962H400.808V460.219L406.226 451.962ZM417.526 452.908H413.871V462H412.757V452.908H409.241V451.962H417.526V452.908ZM425.95 451.962H427.063V462H425.95V453.752L420.532 462H419.428V451.962H420.532V460.219L425.95 451.962ZM436.637 451.962H437.75V462H436.637V453.752L431.219 462H430.115V451.962H431.219V460.219L436.637 451.962ZM436.582 448.344C436.582 449.055 436.337 449.63 435.849 450.069C435.366 450.508 434.717 450.728 433.9 450.728C433.096 450.728 432.447 450.512 431.952 450.079C431.464 449.639 431.219 449.061 431.219 448.344H432.166C432.166 448.857 432.317 449.25 432.62 449.522C432.929 449.794 433.356 449.93 433.9 449.93C434.445 449.93 434.868 449.788 435.171 449.503C435.481 449.219 435.635 448.832 435.635 448.344H436.582ZM453.058 462H451.945V452.917H446.536V462H445.423V451.962H453.058V462ZM455.424 456.833C455.424 455.868 455.609 454.999 455.98 454.226C456.358 453.452 456.887 452.853 457.567 452.426C458.253 451.993 459.03 451.776 459.896 451.776C461.231 451.776 462.314 452.246 463.143 453.187C463.971 454.12 464.386 455.361 464.386 456.907V457.139C464.386 458.11 464.197 458.985 463.82 459.764C463.449 460.537 462.923 461.134 462.243 461.555C461.562 461.975 460.786 462.186 459.914 462.186C458.584 462.186 457.502 461.719 456.667 460.785C455.838 459.845 455.424 458.601 455.424 457.055V456.833ZM456.537 457.139C456.537 458.339 456.846 459.325 457.465 460.098C458.09 460.865 458.906 461.249 459.914 461.249C460.916 461.249 461.726 460.865 462.345 460.098C462.969 459.325 463.282 458.308 463.282 457.046V456.833C463.282 456.066 463.139 455.364 462.855 454.727C462.57 454.09 462.172 453.598 461.658 453.251C461.145 452.899 460.557 452.723 459.896 452.723C458.906 452.723 458.099 453.112 457.474 453.892C456.849 454.665 456.537 455.679 456.537 456.935V457.139ZM473.691 452.908H470.036V462H468.922V452.908H465.406V451.962H473.691V452.908ZM478.664 462.186C477.81 462.186 477.037 461.975 476.344 461.555C475.658 461.134 475.123 460.55 474.739 459.801C474.356 459.047 474.164 458.202 474.164 457.269V456.87C474.164 455.905 474.35 455.036 474.721 454.263C475.098 453.49 475.621 452.883 476.289 452.444C476.957 451.999 477.68 451.776 478.459 451.776C479.678 451.776 480.643 452.194 481.354 453.029C482.071 453.858 482.43 454.993 482.43 456.434V457.055H475.268V457.269C475.268 458.407 475.593 459.356 476.242 460.117C476.898 460.871 477.72 461.249 478.71 461.249C479.304 461.249 479.826 461.14 480.278 460.924C480.736 460.707 481.15 460.361 481.521 459.885L482.217 460.414C481.4 461.595 480.216 462.186 478.664 462.186ZM478.459 452.723C477.625 452.723 476.919 453.029 476.344 453.641C475.775 454.253 475.429 455.076 475.305 456.109H481.326V455.988C481.295 455.023 481.02 454.238 480.5 453.632C479.981 453.026 479.301 452.723 478.459 452.723ZM492.301 462H491.188V457.398H485.779V462H484.666V451.962H485.779V456.461H491.188V451.962H492.301V462ZM495.354 451.962H496.467V461.063H501.875V451.962H502.989V461.063H504.009L503.926 464.978H502.905V462H495.354V451.962ZM507.34 462H506.227V451.962H507.34V462ZM506.032 449.058C506.032 448.848 506.1 448.672 506.236 448.529C506.372 448.381 506.557 448.307 506.792 448.307C507.028 448.307 507.213 448.381 507.349 448.529C507.491 448.672 507.562 448.848 507.562 449.058C507.562 449.268 507.491 449.445 507.349 449.587C507.213 449.729 507.028 449.8 506.792 449.8C506.557 449.8 506.372 449.729 506.236 449.587C506.1 449.445 506.032 449.268 506.032 449.058ZM516.701 462C516.589 461.685 516.518 461.218 516.487 460.599C516.098 461.106 515.6 461.499 514.994 461.777C514.394 462.049 513.757 462.186 513.083 462.186C512.118 462.186 511.335 461.917 510.735 461.378C510.142 460.84 509.845 460.16 509.845 459.337C509.845 458.36 510.25 457.587 511.06 457.018C511.876 456.449 513.011 456.165 514.465 456.165H516.478V455.023C516.478 454.306 516.255 453.743 515.81 453.335C515.371 452.921 514.728 452.713 513.88 452.713C513.107 452.713 512.467 452.911 511.96 453.307C511.453 453.703 511.199 454.179 511.199 454.736L510.086 454.727C510.086 453.929 510.457 453.239 511.199 452.658C511.941 452.07 512.854 451.776 513.936 451.776C515.056 451.776 515.937 452.058 516.58 452.621C517.229 453.177 517.563 453.957 517.582 454.958V459.708C517.582 460.68 517.684 461.406 517.888 461.889V462H516.701ZM513.212 461.202C513.955 461.202 514.616 461.023 515.198 460.664C515.785 460.305 516.212 459.826 516.478 459.226V457.018H514.493C513.386 457.03 512.52 457.235 511.895 457.63C511.27 458.02 510.958 458.558 510.958 459.245C510.958 459.807 511.165 460.274 511.58 460.646C512 461.017 512.544 461.202 513.212 461.202ZM528.27 451.962V462H527.156V452.917H523.046L522.87 456.675C522.796 458.066 522.657 459.13 522.453 459.866C522.249 460.596 521.945 461.134 521.543 461.48C521.141 461.827 520.606 462 519.938 462H519.512V461.017L519.855 460.998C520.492 460.986 520.95 460.676 521.228 460.07C521.506 459.464 521.689 458.382 521.775 456.823L521.979 451.962H528.27Z" fill="white"/>
<defs>
<filter id="filter0_ddd_912:127" x="0" y="239" width="204" height="204" filterUnits="userSpaceOnUse" color-interpolation-filters="sRGB">
<feFlood flood-opacity="0" result="BackgroundImageFix"/>
<feColorMatrix in="SourceAlpha" type="matrix" values="0 0 0 0 0 0 0 0 0 0 0 0 0 0 0 0 0 0 127 0" result="hardAlpha"/>
<feOffset dy="1"/>
<feGaussianBlur stdDeviation="10"/>
<feComposite in2="hardAlpha" operator="out"/>
<feColorMatrix type="matrix" values="0 0 0 0 1 0 0 0 0 1 0 0 0 0 1 0 0 0 1 0"/>
<feBlend mode="normal" in2="BackgroundImageFix" result="effect1_dropShadow_912:127"/>
<feColorMatrix in="SourceAlpha" type="matrix" values="0 0 0 0 0 0 0 0 0 0 0 0 0 0 0 0 0 0 127 0" result="hardAlpha"/>
<feOffset dy="1"/>
<feGaussianBlur stdDeviation="15"/>
<feComposite in2="hardAlpha" operator="out"/>
<feColorMatrix type="matrix" values="0 0 0 0 1 0 0 0 0 1 0 0 0 0 1 0 0 0 1 0"/>
<feBlend mode="normal" in2="effect1_dropShadow_912:127" result="effect2_dropShadow_912:127"/>
<feColorMatrix in="SourceAlpha" type="matrix" values="0 0 0 0 0 0 0 0 0 0 0 0 0 0 0 0 0 0 127 0" result="hardAlpha"/>
<feOffset dy="1"/>
<feGaussianBlur stdDeviation="5"/>
<feComposite in2="hardAlpha" operator="out"/>
<feColorMatrix type="matrix" values="0 0 0 0 1 0 0 0 0 1 0 0 0 0 1 0 0 0 1 0"/>
<feBlend mode="normal" in2="effect2_dropShadow_912:127" result="effect3_dropShadow_912:127"/>
<feBlend mode="normal" in="SourceGraphic" in2="effect3_dropShadow_912:127" result="shape"/>
</filter>
<filter id="filter1_ddd_912:127" x="338.5" y="313" width="204" height="128.5" filterUnits="userSpaceOnUse" color-interpolation-filters="sRGB">
<feFlood flood-opacity="0" result="BackgroundImageFix"/>
<feColorMatrix in="SourceAlpha" type="matrix" values="0 0 0 0 0 0 0 0 0 0 0 0 0 0 0 0 0 0 127 0" result="hardAlpha"/>
<feOffset dy="1"/>
<feGaussianBlur stdDeviation="10"/>
<feComposite in2="hardAlpha" operator="out"/>
<feColorMatrix type="matrix" values="0 0 0 0 1 0 0 0 0 1 0 0 0 0 1 0 0 0 1 0"/>
<feBlend mode="normal" in2="BackgroundImageFix" result="effect1_dropShadow_912:127"/>
<feColorMatrix in="SourceAlpha" type="matrix" values="0 0 0 0 0 0 0 0 0 0 0 0 0 0 0 0 0 0 127 0" result="hardAlpha"/>
<feOffset dy="1"/>
<feGaussianBlur stdDeviation="15"/>
<feComposite in2="hardAlpha" operator="out"/>
<feColorMatrix type="matrix" values="0 0 0 0 1 0 0 0 0 1 0 0 0 0 1 0 0 0 1 0"/>
<feBlend mode="normal" in2="effect1_dropShadow_912:127" result="effect2_dropShadow_912:127"/>
<feColorMatrix in="SourceAlpha" type="matrix" values="0 0 0 0 0 0 0 0 0 0 0 0 0 0 0 0 0 0 127 0" result="hardAlpha"/>
<feOffset dy="1"/>
<feGaussianBlur stdDeviation="5"/>
<feComposite in2="hardAlpha" operator="out"/>
<feColorMatrix type="matrix" values="0 0 0 0 1 0 0 0 0 1 0 0 0 0 1 0 0 0 1 0"/>
<feBlend mode="normal" in2="effect2_dropShadow_912:127" result="effect3_dropShadow_912:127"/>
<feBlend mode="normal" in="SourceGraphic" in2="effect3_dropShadow_912:127" result="shape"/>
</filter>
</defs>
</svg>
