<svg width="30" height="15" viewBox="0 0 30 15" fill="none" xmlns="http://www.w3.org/2000/svg">
<rect y="15" width="15" height="30" rx="7.5" transform="rotate(-90 0 15)" fill="#F2F2F2"/>
<path d="M6.45117 11.1172C5.5918 11.1172 4.89258 10.8359 4.35352 10.2734C3.81445 9.70703 3.54492 8.95117 3.54492 8.00586V7.80664C3.54492 7.17773 3.66406 6.61719 3.90234 6.125C4.14453 5.62891 4.48047 5.24219 4.91016 4.96484C5.34375 4.68359 5.8125 4.54297 6.31641 4.54297C7.14062 4.54297 7.78125 4.81445 8.23828 5.35742C8.69531 5.90039 8.92383 6.67773 8.92383 7.68945V8.14063H4.62891C4.64453 8.76563 4.82617 9.27148 5.17383 9.6582C5.52539 10.041 5.9707 10.2324 6.50977 10.2324C6.89258 10.2324 7.2168 10.1543 7.48242 9.99805C7.74805 9.8418 7.98047 9.63477 8.17969 9.37695L8.8418 9.89258C8.31055 10.709 7.51367 11.1172 6.45117 11.1172ZM6.31641 5.43359C5.87891 5.43359 5.51172 5.59375 5.21484 5.91406C4.91797 6.23047 4.73438 6.67578 4.66406 7.25H7.83984V7.16797C7.80859 6.61719 7.66016 6.19141 7.39453 5.89063C7.12891 5.58594 6.76953 5.43359 6.31641 5.43359ZM15.2871 6.97461L16.6934 4.66016H17.959L15.8848 7.79492L18.0234 11H16.7695L15.3047 8.62695L13.8398 11H12.5801L14.7188 7.79492L12.6445 4.66016H13.8984L15.2871 6.97461ZM23.5605 3.125V4.66016H24.7441V5.49805H23.5605V9.42969C23.5605 9.68359 23.6133 9.875 23.7188 10.0039C23.8242 10.1289 24.0039 10.1914 24.2578 10.1914C24.3828 10.1914 24.5547 10.168 24.7734 10.1211V11C24.4883 11.0781 24.2109 11.1172 23.9414 11.1172C23.457 11.1172 23.0918 10.9707 22.8457 10.6777C22.5996 10.3848 22.4766 9.96875 22.4766 9.42969V5.49805H21.3223V4.66016H22.4766V3.125H23.5605Z" fill="black"/>
</svg>
