<svg width="26" height="21" viewBox="0 0 26 21" fill="none" xmlns="http://www.w3.org/2000/svg">
<rect x="15.3228" y="0.146271" width="14.0744" height="14.0744" transform="rotate(45 15.3228 0.146271)" fill="#BEBEBE"/>
<rect x="10.2004" width="14.0744" height="14.0744" transform="rotate(45 10.2004 0)" fill="black"/>
<line x1="3" y1="8.5" x2="22" y2="8.5" stroke="#AD00FF"/>
<line x1="3" y1="11.5" x2="22" y2="11.5" stroke="#ADFF00"/>
<path d="M9.45166 10.2886H7.02588V11.8135H9.89111V13H5.4834V6.60156H9.8999V7.79248H7.02588V9.1416H9.45166V10.2886ZM12.9058 8.72852L13.9517 6.60156H15.7139L13.9253 9.77441L15.7622 13H13.9824L12.9058 10.8335L11.8291 13H10.0537L11.8862 9.77441L10.1021 6.60156H11.8599L12.9058 8.72852ZM21.2905 7.79248H19.3701V13H17.8276V7.79248H15.9424V6.60156H21.2905V7.79248Z" fill="white"/>
</svg>
