<svg width="194" height="63" viewBox="0 0 194 63" fill="none" xmlns="http://www.w3.org/2000/svg">
<path d="M30.0645 38.9648C27.2754 41.4121 23.1738 42.6357 17.7598 42.6357C12.3594 42.6357 8.25781 41.4121 5.45508 38.9648C2.65234 36.5039 1.25098 32.6143 1.25098 27.2959C1.25098 21.9775 2.65234 18.0947 5.45508 15.6475C8.25781 13.2002 12.3594 11.9766 17.7598 11.9766C23.1738 11.9766 27.2754 13.2002 30.0645 15.6475C32.8672 18.0947 34.2686 21.9775 34.2686 27.2959C34.2686 32.6143 32.8672 36.5039 30.0645 38.9648ZM24.4658 19.9746C23.085 18.334 20.8496 17.5137 17.7598 17.5137C14.6836 17.5137 12.4482 18.334 11.0537 19.9746C9.67285 21.6152 8.98242 24.0625 8.98242 27.3164C8.98242 30.5566 9.67285 32.9971 11.0537 34.6377C12.4482 36.2646 14.6836 37.0781 17.7598 37.0781C20.8496 37.0781 23.085 36.2646 24.4658 34.6377C25.8467 32.9971 26.5371 30.5566 26.5371 27.3164C26.5371 24.0625 25.8467 21.6152 24.4658 19.9746ZM36.1963 16.4678V14.54C36.1963 13.9795 36.3809 13.5146 36.75 13.1455C37.1328 12.7764 37.5908 12.5918 38.124 12.5918H62.0771C62.6104 12.5918 63.0615 12.7764 63.4307 13.1455C63.8135 13.5146 64.0049 13.9795 64.0049 14.54V16.8369C64.0049 17.3975 63.8818 17.9375 63.6357 18.457C63.4033 18.9766 63.1846 19.3457 62.9795 19.5645L62.0771 20.4873L45.9375 36.1963H62.2822C62.8428 36.1963 63.3008 36.3809 63.6562 36.75C64.0254 37.1191 64.21 37.584 64.21 38.1445V40.0723C64.21 40.6328 64.0254 41.0977 63.6562 41.4668C63.3008 41.8223 62.8428 42 62.2822 42H38.4727C37.9395 42 37.4814 41.8223 37.0986 41.4668C36.7295 41.0977 36.5449 40.6328 36.5449 40.0723V37.7959C36.5449 36.4834 37.1875 35.1846 38.4727 33.8994L54.0996 18.3955H38.124C37.5908 18.3955 37.1328 18.2178 36.75 17.8623C36.3809 17.4932 36.1963 17.0283 36.1963 16.4678ZM68.1885 40.0723V14.54C68.1885 14.0068 68.3799 13.5488 68.7627 13.166C69.1455 12.7832 69.6172 12.5918 70.1777 12.5918H73.9922C74.5254 12.5918 74.9766 12.7832 75.3457 13.166C75.7285 13.5488 75.9199 14.0068 75.9199 14.54V23.7686H90.0293V14.54C90.0293 14.0068 90.2207 13.5488 90.6035 13.166C90.9863 12.7832 91.4443 12.5918 91.9775 12.5918H95.792C96.3525 12.5918 96.8174 12.7832 97.1865 13.166C97.5693 13.5488 97.7607 14.0068 97.7607 14.54V40.0723C97.7607 40.6055 97.5625 41.0635 97.166 41.4463C96.7832 41.8154 96.3252 42 95.792 42H91.9775C91.4443 42 90.9863 41.8223 90.6035 41.4668C90.2207 41.0977 90.0293 40.6465 90.0293 40.1133V29.5723H75.9199V40.1133C75.9199 40.6465 75.7285 41.0977 75.3457 41.4668C74.9766 41.8223 74.5254 42 73.9922 42H70.1777C69.6445 42 69.1797 41.8154 68.7832 41.4463C68.3867 41.0635 68.1885 40.6055 68.1885 40.0723ZM103.667 40.1133V14.54C103.667 14.0068 103.858 13.5488 104.241 13.166C104.624 12.7832 105.082 12.5918 105.615 12.5918H109.43C109.99 12.5918 110.455 12.7832 110.824 13.166C111.207 13.5488 111.398 14.0068 111.398 14.54V40.0723C111.398 40.6055 111.2 41.0635 110.804 41.4463C110.421 41.8154 109.963 42 109.43 42H105.615C105.082 42 104.624 41.8223 104.241 41.4668C103.858 41.0977 103.667 40.6465 103.667 40.1133ZM117.284 40.0723V14.54C117.284 14.0068 117.469 13.5488 117.838 13.166C118.207 12.7832 118.658 12.5918 119.191 12.5918H125.221C125.699 12.5918 126.205 12.7832 126.738 13.166C127.271 13.5488 127.709 14.0068 128.051 14.54L140.438 33.5918V14.499C140.438 13.9658 140.622 13.5146 140.991 13.1455C141.374 12.7764 141.832 12.5918 142.365 12.5918H145.893C146.426 12.5918 146.877 12.7764 147.246 13.1455C147.629 13.5146 147.82 13.9795 147.82 14.54V40.0723C147.82 40.6055 147.629 41.0635 147.246 41.4463C146.877 41.8154 146.426 42 145.893 42H139.084C138.551 42 138.004 41.8154 137.443 41.4463C136.883 41.0635 136.438 40.6055 136.11 40.0723L124.77 22.4766V40.0723C124.77 40.6055 124.578 41.0635 124.195 41.4463C123.826 41.8154 123.375 42 122.842 42H119.232C118.699 42 118.241 41.8154 117.858 41.4463C117.476 41.0635 117.284 40.6055 117.284 40.0723ZM151.286 40.1133L156.434 20.5898C157.828 15.2715 162.367 12.6055 170.051 12.5918H181.104C181.61 12.5918 182.027 12.7832 182.355 13.166C182.697 13.5488 182.868 13.9932 182.868 14.499V40.1133C182.868 40.6465 182.677 41.0977 182.294 41.4668C181.911 41.8223 181.453 42 180.92 42H177.064C176.504 42 176.039 41.8223 175.67 41.4668C175.314 41.0977 175.137 40.6328 175.137 40.0723V34.9043H160.556L159.182 40.0723C159.045 40.6328 158.737 41.0977 158.259 41.4668C157.78 41.8223 157.274 42 156.741 42H152.701C152.168 42 151.785 41.8496 151.553 41.5488C151.32 41.2344 151.204 40.9609 151.204 40.7285C151.218 40.4961 151.245 40.291 151.286 40.1133ZM162.073 29.1006H175.137V18.3955H169.292C167.979 18.3955 166.831 18.7715 165.847 19.5234C164.876 20.2617 164.22 21.2598 163.878 22.5176L162.073 29.1006Z" fill="#AD00FF"/>
<path d="M31.3486 39.0371C28.626 41.4261 24.6221 42.6206 19.3369 42.6206C14.0651 42.6206 10.0612 41.4261 7.3252 39.0371C4.58919 36.6348 3.22119 32.8377 3.22119 27.646C3.22119 22.4543 4.58919 18.6639 7.3252 16.2749C10.0612 13.8859 14.0651 12.6914 19.3369 12.6914C24.6221 12.6914 28.626 13.8859 31.3486 16.2749C34.0846 18.6639 35.4526 22.4543 35.4526 27.646C35.4526 32.8377 34.0846 36.6348 31.3486 39.0371ZM25.8833 20.499C24.5353 18.8975 22.3532 18.0967 19.3369 18.0967C16.334 18.0967 14.1519 18.8975 12.7905 20.499C11.4425 22.1006 10.7686 24.4896 10.7686 27.666C10.7686 30.8291 11.4425 33.2114 12.7905 34.813C14.1519 36.4012 16.334 37.1953 19.3369 37.1953C22.3532 37.1953 24.5353 36.4012 25.8833 34.813C27.2313 33.2114 27.9053 30.8291 27.9053 27.666C27.9053 24.4896 27.2313 22.1006 25.8833 20.499ZM37.3345 17.0757V15.1938C37.3345 14.6466 37.5146 14.1929 37.875 13.8325C38.2487 13.4722 38.6958 13.292 39.2163 13.292H62.5991C63.1196 13.292 63.5601 13.4722 63.9204 13.8325C64.2941 14.1929 64.481 14.6466 64.481 15.1938V17.436C64.481 17.9832 64.3608 18.5104 64.1206 19.0176C63.8937 19.5247 63.6802 19.8851 63.48 20.0986L62.5991 20.9995L46.8438 36.3345H62.7993C63.3465 36.3345 63.7936 36.5146 64.1406 36.875C64.501 37.2354 64.6812 37.6891 64.6812 38.2363V40.1182C64.6812 40.6654 64.501 41.1191 64.1406 41.4795C63.7936 41.8265 63.3465 42 62.7993 42H39.5566C39.0361 42 38.589 41.8265 38.2153 41.4795C37.855 41.1191 37.6748 40.6654 37.6748 40.1182V37.896C37.6748 36.6147 38.3021 35.3468 39.5566 34.0923L54.8115 18.9575H39.2163C38.6958 18.9575 38.2487 18.784 37.875 18.437C37.5146 18.0767 37.3345 17.6229 37.3345 17.0757ZM68.5649 40.1182V15.1938C68.5649 14.6733 68.7518 14.2262 69.1255 13.8525C69.4992 13.4788 69.9596 13.292 70.5068 13.292H74.2305C74.751 13.292 75.1914 13.4788 75.5518 13.8525C75.9255 14.2262 76.1123 14.6733 76.1123 15.1938V24.2026H89.8857V15.1938C89.8857 14.6733 90.0726 14.2262 90.4463 13.8525C90.82 13.4788 91.2671 13.292 91.7876 13.292H95.5112C96.0584 13.292 96.5122 13.4788 96.8726 13.8525C97.2463 14.2262 97.4331 14.6733 97.4331 15.1938V40.1182C97.4331 40.6387 97.2396 41.0858 96.8525 41.4595C96.4788 41.8198 96.0317 42 95.5112 42H91.7876C91.2671 42 90.82 41.8265 90.4463 41.4795C90.0726 41.1191 89.8857 40.6787 89.8857 40.1582V29.8682H76.1123V40.1582C76.1123 40.6787 75.9255 41.1191 75.5518 41.4795C75.1914 41.8265 74.751 42 74.2305 42H70.5068C69.9863 42 69.5326 41.8198 69.1455 41.4595C68.7585 41.0858 68.5649 40.6387 68.5649 40.1182ZM103.199 40.1582V15.1938C103.199 14.6733 103.386 14.2262 103.759 13.8525C104.133 13.4788 104.58 13.292 105.101 13.292H108.824C109.371 13.292 109.825 13.4788 110.186 13.8525C110.559 14.2262 110.746 14.6733 110.746 15.1938V40.1182C110.746 40.6387 110.553 41.0858 110.166 41.4595C109.792 41.8198 109.345 42 108.824 42H105.101C104.58 42 104.133 41.8265 103.759 41.4795C103.386 41.1191 103.199 40.6787 103.199 40.1582ZM116.492 40.1182V15.1938C116.492 14.6733 116.672 14.2262 117.032 13.8525C117.393 13.4788 117.833 13.292 118.354 13.292H124.239C124.706 13.292 125.2 13.4788 125.721 13.8525C126.241 14.2262 126.668 14.6733 127.002 15.1938L139.094 33.792V15.1538C139.094 14.6333 139.274 14.1929 139.634 13.8325C140.008 13.4722 140.455 13.292 140.976 13.292H144.419C144.939 13.292 145.38 13.4722 145.74 13.8325C146.114 14.1929 146.301 14.6466 146.301 15.1938V40.1182C146.301 40.6387 146.114 41.0858 145.74 41.4595C145.38 41.8198 144.939 42 144.419 42H137.772C137.252 42 136.718 41.8198 136.171 41.4595C135.624 41.0858 135.19 40.6387 134.87 40.1182L123.799 22.9414V40.1182C123.799 40.6387 123.612 41.0858 123.238 41.4595C122.878 41.8198 122.438 42 121.917 42H118.394C117.873 42 117.426 41.8198 117.052 41.4595C116.679 41.0858 116.492 40.6387 116.492 40.1182ZM149.684 40.1582L154.709 21.0996C156.07 15.9079 160.501 13.3053 168.002 13.292H178.792C179.286 13.292 179.693 13.4788 180.014 13.8525C180.347 14.2262 180.514 14.66 180.514 15.1538V40.1582C180.514 40.6787 180.327 41.1191 179.954 41.4795C179.58 41.8265 179.133 42 178.612 42H174.849C174.301 42 173.848 41.8265 173.487 41.4795C173.14 41.1191 172.967 40.6654 172.967 40.1182V35.0732H158.733L157.392 40.1182C157.258 40.6654 156.958 41.1191 156.491 41.4795C156.024 41.8265 155.53 42 155.009 42H151.065C150.545 42 150.171 41.8532 149.944 41.5596C149.717 41.2526 149.604 40.9857 149.604 40.7588C149.617 40.5319 149.644 40.3317 149.684 40.1582ZM160.214 29.4077H172.967V18.9575H167.261C165.98 18.9575 164.859 19.3245 163.898 20.0586C162.95 20.7793 162.31 21.7536 161.976 22.9814L160.214 29.4077Z" fill="black"/>
<path d="M4.96094 61.1562V50.9219C4.96094 50.7812 5.00521 50.6667 5.09375 50.5781C5.1875 50.4844 5.30208 50.4375 5.4375 50.4375H6.94531C7.08073 50.4375 7.19271 50.4844 7.28125 50.5781C7.375 50.6667 7.42188 50.7812 7.42188 50.9219V51.1562C8.24479 50.5729 9.20052 50.2812 10.2891 50.2812C11.3776 50.2812 12.2865 50.6667 13.0156 51.4375C13.7448 52.2031 14.1094 53.3021 14.1094 54.7344C14.1094 56.1615 13.7318 57.2552 12.9766 58.0156C12.2214 58.776 11.2031 59.1562 9.92188 59.1562C9.26042 59.1562 8.50781 59.0234 7.66406 58.7578V61.1562C7.66406 61.2969 7.61719 61.4115 7.52344 61.5C7.4349 61.5938 7.32292 61.6406 7.1875 61.6406H5.4375C5.30208 61.6406 5.1875 61.5938 5.09375 61.5C5.00521 61.4115 4.96094 61.2969 4.96094 61.1562ZM7.66406 56.9531C8.33594 57.1667 8.90104 57.2734 9.35938 57.2734C10.0729 57.2734 10.5781 57.0703 10.875 56.6641C11.1771 56.2578 11.3281 55.6094 11.3281 54.7188C11.3281 53.8281 11.1849 53.1823 10.8984 52.7812C10.6172 52.375 10.1927 52.1719 9.625 52.1719C9.0625 52.1719 8.40885 52.4062 7.66406 52.875V56.9531ZM16.1016 58.4375C15.4141 57.9583 15.0703 57.2812 15.0703 56.4062C15.0703 55.5312 15.4141 54.8594 16.1016 54.3906C16.7943 53.9219 17.6849 53.6875 18.7734 53.6875H21.3594C21.3594 53.0781 21.2318 52.6536 20.9766 52.4141C20.7214 52.1745 20.2734 52.0547 19.6328 52.0547C18.9974 52.0547 18.5495 52.2135 18.2891 52.5312C18.0339 52.8438 17.7188 53 17.3438 53H16.1797C16.0391 53 15.9219 52.9557 15.8281 52.8672C15.7396 52.7734 15.6953 52.6589 15.6953 52.5234C15.6953 51.0286 17.1146 50.2812 19.9531 50.2812C21.1927 50.2812 22.1875 50.5599 22.9375 51.1172C23.6875 51.6693 24.0625 52.526 24.0625 53.6875V58.5234C24.0625 58.6641 24.0182 58.7786 23.9297 58.8672C23.8411 58.9557 23.7266 59 23.5859 59H22.0781C21.9375 59 21.8229 58.9557 21.7344 58.8672C21.6458 58.7734 21.6016 58.6589 21.6016 58.5234V58.2812C20.7786 58.8698 19.8281 59.1615 18.75 59.1562C17.6771 59.1562 16.7943 58.9167 16.1016 58.4375ZM18.9609 55.4609C18.5964 55.4609 18.3073 55.5495 18.0938 55.7266C17.8854 55.9036 17.7812 56.1328 17.7812 56.4141C17.7812 56.6953 17.8906 56.9271 18.1094 57.1094C18.3281 57.2917 18.638 57.3828 19.0391 57.3828C19.8411 57.3828 20.6146 57.1484 21.3594 56.6797V55.4609H18.9609ZM25.5078 52.8047C25.5078 51.1224 26.8646 50.2812 29.5781 50.2812C32.4323 50.2812 33.8594 51.0286 33.8594 52.5234C33.8594 52.6589 33.8151 52.7734 33.7266 52.8672C33.638 52.9557 33.5234 53 33.3828 53H32.2188C31.8438 53 31.5286 52.8438 31.2734 52.5312C31.0182 52.2135 30.5156 52.0547 29.7656 52.0547C28.7344 52.0547 28.2188 52.3047 28.2188 52.8047C28.2188 53.0391 28.4193 53.2344 28.8203 53.3906C29.2266 53.5469 29.7188 53.6849 30.2969 53.8047C30.8802 53.9193 31.4609 54.0677 32.0391 54.25C32.6172 54.4323 33.1068 54.724 33.5078 55.125C33.9141 55.5208 34.1172 56.0234 34.1172 56.6328C34.1172 58.3151 32.6849 59.1562 29.8203 59.1562C26.9557 59.1562 25.5234 58.4115 25.5234 56.9219C25.5234 56.7812 25.5677 56.6667 25.6562 56.5781C25.75 56.4844 25.8672 56.4375 26.0078 56.4375H27.1719C27.5469 56.4375 27.862 56.5964 28.1172 56.9141C28.3724 57.2266 28.875 57.3828 29.625 57.3828C30.8177 57.3828 31.4141 57.1328 31.4141 56.6328C31.4141 56.3984 31.2109 56.2031 30.8047 56.0469C30.4036 55.8906 29.9115 55.7526 29.3281 55.6328C28.7448 55.5078 28.1641 55.3568 27.5859 55.1797C27.013 54.9974 26.5234 54.7057 26.1172 54.3047C25.7109 53.9036 25.5078 53.4036 25.5078 52.8047ZM35.0859 52.8047C35.0859 51.1224 36.4427 50.2812 39.1562 50.2812C42.0104 50.2812 43.4375 51.0286 43.4375 52.5234C43.4375 52.6589 43.3932 52.7734 43.3047 52.8672C43.2161 52.9557 43.1016 53 42.9609 53H41.7969C41.4219 53 41.1068 52.8438 40.8516 52.5312C40.5964 52.2135 40.0938 52.0547 39.3438 52.0547C38.3125 52.0547 37.7969 52.3047 37.7969 52.8047C37.7969 53.0391 37.9974 53.2344 38.3984 53.3906C38.8047 53.5469 39.2969 53.6849 39.875 53.8047C40.4583 53.9193 41.0391 54.0677 41.6172 54.25C42.1953 54.4323 42.6849 54.724 43.0859 55.125C43.4922 55.5208 43.6953 56.0234 43.6953 56.6328C43.6953 58.3151 42.263 59.1562 39.3984 59.1562C36.5339 59.1562 35.1016 58.4115 35.1016 56.9219C35.1016 56.7812 35.1458 56.6667 35.2344 56.5781C35.3281 56.4844 35.4453 56.4375 35.5859 56.4375H36.75C37.125 56.4375 37.4401 56.5964 37.6953 56.9141C37.9505 57.2266 38.4531 57.3828 39.2031 57.3828C40.3958 57.3828 40.9922 57.1328 40.9922 56.6328C40.9922 56.3984 40.7891 56.2031 40.3828 56.0469C39.9818 55.8906 39.4896 55.7526 38.9062 55.6328C38.3229 55.5078 37.7422 55.3568 37.1641 55.1797C36.5911 54.9974 36.1016 54.7057 35.6953 54.3047C35.2891 53.9036 35.0859 53.4036 35.0859 52.8047ZM45.1484 48.8047V48.5391C45.1484 48.263 45.2266 48.0443 45.3828 47.8828C45.5443 47.7214 45.7656 47.6406 46.0469 47.6406H47.0156C47.2917 47.6406 47.5104 47.7214 47.6719 47.8828C47.8333 48.0391 47.9141 48.2578 47.9141 48.5391V48.8047C47.9141 49.0807 47.8333 49.2995 47.6719 49.4609C47.5156 49.6224 47.2969 49.7031 47.0156 49.7031H46.0469C45.7708 49.7031 45.5521 49.6224 45.3906 49.4609C45.2292 49.2995 45.1484 49.0807 45.1484 48.8047ZM45.1797 58.5234V51.1094C45.1797 50.9688 45.224 50.8542 45.3125 50.7656C45.4062 50.6771 45.5208 50.6328 45.6562 50.6328H47.4062C47.5469 50.6328 47.6615 50.6797 47.75 50.7734C47.8385 50.862 47.8828 50.974 47.8828 51.1094V58.5234C47.8828 58.6641 47.8359 58.7786 47.7422 58.8672C47.6536 58.9557 47.5417 59 47.4062 59H45.6562C45.5156 59 45.401 58.9557 45.3125 58.8672C45.224 58.7786 45.1797 58.6641 45.1797 58.5234ZM50.5703 58.0312C49.7578 57.2812 49.3516 56.1771 49.3516 54.7188C49.3516 53.2552 49.7578 52.151 50.5703 51.4062C51.3828 50.6562 52.5495 50.2812 54.0703 50.2812C55.5964 50.2812 56.7656 50.6562 57.5781 51.4062C58.3906 52.151 58.7969 53.2552 58.7969 54.7188C58.7969 56.1771 58.3906 57.2812 57.5781 58.0312C56.7656 58.7812 55.5964 59.1562 54.0703 59.1562C52.5495 59.1562 51.3828 58.7812 50.5703 58.0312ZM52.5469 52.6875C52.224 53.1094 52.0625 53.7839 52.0625 54.7109C52.0625 55.638 52.224 56.3151 52.5469 56.7422C52.8698 57.1693 53.3776 57.3828 54.0703 57.3828C54.7682 57.3828 55.2786 57.1693 55.6016 56.7422C55.9297 56.3151 56.0938 55.638 56.0938 54.7109C56.0938 53.7839 55.9297 53.1094 55.6016 52.6875C55.2786 52.2656 54.7682 52.0547 54.0703 52.0547C53.3776 52.0547 52.8698 52.2656 52.5469 52.6875ZM60.2422 58.5234V50.9219C60.2422 50.7812 60.2865 50.6667 60.375 50.5781C60.4688 50.4844 60.5833 50.4375 60.7188 50.4375H62.4688C62.6042 50.4375 62.7161 50.4844 62.8047 50.5781C62.8984 50.6667 62.9453 50.7812 62.9453 50.9219V51.4141C63.8411 50.6589 64.7943 50.2812 65.8047 50.2812C66.8203 50.2812 67.6458 50.5911 68.2812 51.2109C68.9167 51.8255 69.2344 52.7682 69.2344 54.0391V58.5234C69.2344 58.6589 69.1875 58.7734 69.0938 58.8672C69.0052 58.9557 68.8906 59 68.75 59H67.0078C66.8724 59 66.7578 58.9557 66.6641 58.8672C66.5755 58.7734 66.5312 58.6589 66.5312 58.5234V54.0391C66.5312 52.7943 66.0339 52.1719 65.0391 52.1719C64.388 52.1719 63.6901 52.5443 62.9453 53.2891V58.5234C62.9453 58.6589 62.8984 58.7734 62.8047 58.8672C62.7161 58.9557 62.6042 59 62.4688 59H60.7188C60.5833 59 60.4688 58.9557 60.375 58.8672C60.2865 58.7734 60.2422 58.6589 60.2422 58.5234ZM76.7734 48.8047V48.5391C76.7734 48.263 76.8516 48.0443 77.0078 47.8828C77.1693 47.7214 77.3906 47.6406 77.6719 47.6406H78.6406C78.9167 47.6406 79.1354 47.7214 79.2969 47.8828C79.4583 48.0391 79.5391 48.2578 79.5391 48.5391V48.8047C79.5391 49.0807 79.4583 49.2995 79.2969 49.4609C79.1406 49.6224 78.9219 49.7031 78.6406 49.7031H77.6719C77.3958 49.7031 77.1771 49.6224 77.0156 49.4609C76.8542 49.2995 76.7734 49.0807 76.7734 48.8047ZM76.8047 58.5234V51.1094C76.8047 50.9688 76.849 50.8542 76.9375 50.7656C77.0312 50.6771 77.1458 50.6328 77.2812 50.6328H79.0312C79.1719 50.6328 79.2865 50.6797 79.375 50.7734C79.4635 50.862 79.5078 50.974 79.5078 51.1094V58.5234C79.5078 58.6641 79.4609 58.7786 79.3672 58.8672C79.2786 58.9557 79.1667 59 79.0312 59H77.2812C77.1406 59 77.026 58.9557 76.9375 58.8672C76.849 58.7786 76.8047 58.6641 76.8047 58.5234ZM81.4609 58.5234V50.9219C81.4609 50.7812 81.5052 50.6667 81.5938 50.5781C81.6875 50.4844 81.8021 50.4375 81.9375 50.4375H83.6875C83.8229 50.4375 83.9349 50.4844 84.0234 50.5781C84.1172 50.6667 84.1641 50.7812 84.1641 50.9219V51.4141C85.0599 50.6589 86.013 50.2812 87.0234 50.2812C88.0391 50.2812 88.8646 50.5911 89.5 51.2109C90.1354 51.8255 90.4531 52.7682 90.4531 54.0391V58.5234C90.4531 58.6589 90.4062 58.7734 90.3125 58.8672C90.224 58.9557 90.1094 59 89.9688 59H88.2266C88.0911 59 87.9766 58.9557 87.8828 58.8672C87.7943 58.7734 87.75 58.6589 87.75 58.5234V54.0391C87.75 52.7943 87.2526 52.1719 86.2578 52.1719C85.6068 52.1719 84.9089 52.5443 84.1641 53.2891V58.5234C84.1641 58.6589 84.1172 58.7734 84.0234 58.8672C83.9349 58.9557 83.8229 59 83.6875 59H81.9375C81.8021 59 81.6875 58.9557 81.5938 58.8672C81.5052 58.7734 81.4609 58.6589 81.4609 58.5234ZM102.133 59.1562C100.674 59.1562 99.5391 58.7812 98.7266 58.0312C97.9141 57.2812 97.5078 56.1797 97.5078 54.7266C97.5078 53.2682 97.9115 52.1641 98.7188 51.4141C99.526 50.6589 100.648 50.2812 102.086 50.2812C103.529 50.2812 104.635 50.5104 105.406 50.9688C106.182 51.4271 106.57 52.1042 106.57 53C106.57 53.1406 106.523 53.2552 106.43 53.3438C106.341 53.4323 106.227 53.4766 106.086 53.4766H104.922C104.568 53.4766 104.268 53.2865 104.023 52.9062C103.716 52.4167 103.172 52.1719 102.391 52.1719C101.615 52.1719 101.07 52.3724 100.758 52.7734C100.451 53.1693 100.297 53.8177 100.297 54.7188C100.297 55.6198 100.456 56.2708 100.773 56.6719C101.096 57.0729 101.654 57.2734 102.445 57.2734C103.242 57.2734 103.794 57.0286 104.102 56.5391C104.346 56.1536 104.646 55.9609 105 55.9609H106.164C106.305 55.9609 106.419 56.0078 106.508 56.1016C106.602 56.1901 106.648 56.3021 106.648 56.4375C106.648 57.3333 106.26 58.0104 105.484 58.4688C104.714 58.9271 103.596 59.1562 102.133 59.1562ZM113.852 52.4219L112.648 52.375C111.945 52.375 111.273 52.7604 110.633 53.5312V58.5234C110.633 58.6641 110.586 58.7786 110.492 58.8672C110.404 58.9557 110.292 59 110.156 59H108.406C108.266 59 108.151 58.9557 108.062 58.8672C107.974 58.7786 107.93 58.6641 107.93 58.5234V50.9219C107.93 50.7812 107.974 50.6667 108.062 50.5781C108.156 50.4844 108.271 50.4375 108.406 50.4375H110.156C110.297 50.4375 110.411 50.4844 110.5 50.5781C110.589 50.6667 110.633 50.7812 110.633 50.9219V51.4141C111.164 51.0286 111.674 50.7448 112.164 50.5625C112.659 50.375 113.305 50.2812 114.102 50.2812C114.242 50.2812 114.357 50.3281 114.445 50.4219C114.539 50.5104 114.586 50.6224 114.586 50.7578V51.9453C114.586 52.0859 114.539 52.2005 114.445 52.2891C114.357 52.3776 114.242 52.4219 114.102 52.4219H113.852ZM116.352 58.0156C115.549 57.2552 115.148 56.1615 115.148 54.7344C115.148 53.3021 115.552 52.2031 116.359 51.4375C117.167 50.6667 118.286 50.2812 119.719 50.2812C121.151 50.2812 122.268 50.6562 123.07 51.4062C123.872 52.151 124.273 53.2214 124.273 54.6172V55.0625C124.273 55.2031 124.227 55.3203 124.133 55.4141C124.044 55.5026 123.93 55.5469 123.789 55.5469H117.906C117.958 56.1875 118.141 56.6536 118.453 56.9453C118.771 57.237 119.276 57.3828 119.969 57.3828C120.661 57.3828 121.135 57.2266 121.391 56.9141C121.646 56.6016 121.961 56.4427 122.336 56.4375H123.5C123.641 56.4375 123.755 56.4844 123.844 56.5781C123.938 56.6667 123.984 56.7812 123.984 56.9219C123.984 58.4167 122.56 59.1615 119.711 59.1562C118.273 59.1562 117.154 58.776 116.352 58.0156ZM117.891 53.8984H121.523C121.471 52.6693 120.867 52.0547 119.711 52.0547C118.56 52.0547 117.953 52.6693 117.891 53.8984ZM126.258 58.4375C125.57 57.9583 125.227 57.2812 125.227 56.4062C125.227 55.5312 125.57 54.8594 126.258 54.3906C126.951 53.9219 127.841 53.6875 128.93 53.6875H131.516C131.516 53.0781 131.388 52.6536 131.133 52.4141C130.878 52.1745 130.43 52.0547 129.789 52.0547C129.154 52.0547 128.706 52.2135 128.445 52.5312C128.19 52.8438 127.875 53 127.5 53H126.336C126.195 53 126.078 52.9557 125.984 52.8672C125.896 52.7734 125.852 52.6589 125.852 52.5234C125.852 51.0286 127.271 50.2812 130.109 50.2812C131.349 50.2812 132.344 50.5599 133.094 51.1172C133.844 51.6693 134.219 52.526 134.219 53.6875V58.5234C134.219 58.6641 134.174 58.7786 134.086 58.8672C133.997 58.9557 133.883 59 133.742 59H132.234C132.094 59 131.979 58.9557 131.891 58.8672C131.802 58.7734 131.758 58.6589 131.758 58.5234V58.2812C130.935 58.8698 129.984 59.1615 128.906 59.1562C127.833 59.1562 126.951 58.9167 126.258 58.4375ZM129.117 55.4609C128.753 55.4609 128.464 55.5495 128.25 55.7266C128.042 55.9036 127.938 56.1328 127.938 56.4141C127.938 56.6953 128.047 56.9271 128.266 57.1094C128.484 57.2917 128.794 57.3828 129.195 57.3828C129.997 57.3828 130.771 57.1484 131.516 56.6797V55.4609H129.117ZM140.227 57.3047L141.297 57.2109H141.586C141.727 57.2109 141.841 57.2552 141.93 57.3438C142.023 57.4323 142.07 57.5469 142.07 57.6875V58.5234C142.07 58.638 142.023 58.7422 141.93 58.8359C141.841 58.9245 141.727 58.9792 141.586 59C141.055 59.1042 140.362 59.1562 139.508 59.1562C137.268 59.1562 136.148 57.9844 136.148 55.6406V48.2812C136.148 48.1406 136.193 48.026 136.281 47.9375C136.375 47.8438 136.49 47.7969 136.625 47.7969H138.375C138.51 47.7969 138.622 47.8438 138.711 47.9375C138.805 48.026 138.852 48.1406 138.852 48.2812V50.8906H141.031C141.167 50.8906 141.279 50.9349 141.367 51.0234C141.461 51.112 141.508 51.2266 141.508 51.3672V52.2969C141.508 52.4375 141.461 52.5521 141.367 52.6406C141.279 52.7292 141.167 52.7734 141.031 52.7734H138.852V55.6406C138.852 56.1719 138.977 56.5833 139.227 56.875C139.477 57.1615 139.81 57.3047 140.227 57.3047ZM143.352 48.8047V48.5391C143.352 48.263 143.43 48.0443 143.586 47.8828C143.747 47.7214 143.969 47.6406 144.25 47.6406H145.219C145.495 47.6406 145.714 47.7214 145.875 47.8828C146.036 48.0391 146.117 48.2578 146.117 48.5391V48.8047C146.117 49.0807 146.036 49.2995 145.875 49.4609C145.719 49.6224 145.5 49.7031 145.219 49.7031H144.25C143.974 49.7031 143.755 49.6224 143.594 49.4609C143.432 49.2995 143.352 49.0807 143.352 48.8047ZM143.383 58.5234V51.1094C143.383 50.9688 143.427 50.8542 143.516 50.7656C143.609 50.6771 143.724 50.6328 143.859 50.6328H145.609C145.75 50.6328 145.865 50.6797 145.953 50.7734C146.042 50.862 146.086 50.974 146.086 51.1094V58.5234C146.086 58.6641 146.039 58.7786 145.945 58.8672C145.857 58.9557 145.745 59 145.609 59H143.859C143.719 59 143.604 58.9557 143.516 58.8672C143.427 58.7786 143.383 58.6641 143.383 58.5234ZM147.641 50.4375H149.141C149.365 50.4375 149.576 50.5026 149.773 50.6328C149.971 50.7578 150.112 50.9219 150.195 51.125L152.328 55.9922L154.453 51.125C154.536 50.9219 154.677 50.7578 154.875 50.6328C155.073 50.5026 155.284 50.4375 155.508 50.4375H157.016C157.198 50.4375 157.318 50.5052 157.375 50.6406C157.401 50.6927 157.411 50.7604 157.406 50.8438C157.406 50.9219 157.383 51.0156 157.336 51.125L153.961 58.3125C153.867 58.5156 153.719 58.6823 153.516 58.8125C153.318 58.9375 153.112 59 152.898 59H151.75C151.536 59 151.331 58.9375 151.133 58.8125C150.935 58.6823 150.789 58.5156 150.695 58.3125L147.32 51.125C147.268 51.0104 147.242 50.9141 147.242 50.8359C147.242 50.5703 147.375 50.4375 147.641 50.4375ZM158.539 48.8047V48.5391C158.539 48.263 158.617 48.0443 158.773 47.8828C158.935 47.7214 159.156 47.6406 159.438 47.6406H160.406C160.682 47.6406 160.901 47.7214 161.062 47.8828C161.224 48.0391 161.305 48.2578 161.305 48.5391V48.8047C161.305 49.0807 161.224 49.2995 161.062 49.4609C160.906 49.6224 160.688 49.7031 160.406 49.7031H159.438C159.161 49.7031 158.943 49.6224 158.781 49.4609C158.62 49.2995 158.539 49.0807 158.539 48.8047ZM158.57 58.5234V51.1094C158.57 50.9688 158.615 50.8542 158.703 50.7656C158.797 50.6771 158.911 50.6328 159.047 50.6328H160.797C160.938 50.6328 161.052 50.6797 161.141 50.7734C161.229 50.862 161.273 50.974 161.273 51.1094V58.5234C161.273 58.6641 161.227 58.7786 161.133 58.8672C161.044 58.9557 160.932 59 160.797 59H159.047C158.906 59 158.792 58.9557 158.703 58.8672C158.615 58.7786 158.57 58.6641 158.57 58.5234ZM167.305 57.3047L168.375 57.2109H168.664C168.805 57.2109 168.919 57.2552 169.008 57.3438C169.102 57.4323 169.148 57.5469 169.148 57.6875V58.5234C169.148 58.638 169.102 58.7422 169.008 58.8359C168.919 58.9245 168.805 58.9792 168.664 59C168.133 59.1042 167.44 59.1562 166.586 59.1562C164.346 59.1562 163.227 57.9844 163.227 55.6406V48.2812C163.227 48.1406 163.271 48.026 163.359 47.9375C163.453 47.8438 163.568 47.7969 163.703 47.7969H165.453C165.589 47.7969 165.701 47.8438 165.789 47.9375C165.883 48.026 165.93 48.1406 165.93 48.2812V50.8906H168.109C168.245 50.8906 168.357 50.9349 168.445 51.0234C168.539 51.112 168.586 51.2266 168.586 51.3672V52.2969C168.586 52.4375 168.539 52.5521 168.445 52.6406C168.357 52.7292 168.245 52.7734 168.109 52.7734H165.93V55.6406C165.93 56.1719 166.055 56.5833 166.305 56.875C166.555 57.1615 166.888 57.3047 167.305 57.3047ZM171.938 59.8125L172.961 59.9453C173.695 59.9453 174.208 59.4062 174.5 58.3281C173.615 58.3281 172.875 58.0625 172.281 57.5312C171.688 56.9948 171.177 56.0443 170.75 54.6797L169.586 50.9062C169.57 50.8646 169.562 50.8177 169.562 50.7656C169.562 50.7083 169.594 50.6406 169.656 50.5625C169.724 50.4844 169.823 50.4427 169.953 50.4375H171.586C171.737 50.4375 171.88 50.4896 172.016 50.5938C172.156 50.6927 172.247 50.8177 172.289 50.9688L173.312 54.2812C173.568 55.0938 173.826 55.6562 174.086 55.9688C174.352 56.2812 174.664 56.4375 175.023 56.4375L176.578 50.9688C176.62 50.8177 176.701 50.6927 176.82 50.5938C176.945 50.4896 177.083 50.4375 177.234 50.4375H178.883C179.013 50.4375 179.109 50.4792 179.172 50.5625C179.234 50.6458 179.266 50.7161 179.266 50.7734C179.266 50.8255 179.26 50.8698 179.25 50.9062L177.203 58.2031C176.839 59.4948 176.385 60.4167 175.844 60.9688C175.307 61.5208 174.615 61.7969 173.766 61.7969C172.917 61.7969 172.315 61.7656 171.961 61.7031C171.612 61.6406 171.393 61.5625 171.305 61.4688C171.216 61.3802 171.172 61.276 171.172 61.1562V60.2969C171.172 60.1562 171.216 60.0391 171.305 59.9453C171.393 59.8568 171.508 59.8125 171.648 59.8125H171.938Z" fill="#85FF72"/>
<path d="M4.96094 60.1562V49.9219C4.96094 49.7812 5.00521 49.6667 5.09375 49.5781C5.1875 49.4844 5.30208 49.4375 5.4375 49.4375H6.94531C7.08073 49.4375 7.19271 49.4844 7.28125 49.5781C7.375 49.6667 7.42188 49.7812 7.42188 49.9219V50.1562C8.24479 49.5729 9.20052 49.2812 10.2891 49.2812C11.3776 49.2812 12.2865 49.6667 13.0156 50.4375C13.7448 51.2031 14.1094 52.3021 14.1094 53.7344C14.1094 55.1615 13.7318 56.2552 12.9766 57.0156C12.2214 57.776 11.2031 58.1562 9.92188 58.1562C9.26042 58.1562 8.50781 58.0234 7.66406 57.7578V60.1562C7.66406 60.2969 7.61719 60.4115 7.52344 60.5C7.4349 60.5938 7.32292 60.6406 7.1875 60.6406H5.4375C5.30208 60.6406 5.1875 60.5938 5.09375 60.5C5.00521 60.4115 4.96094 60.2969 4.96094 60.1562ZM7.66406 55.9531C8.33594 56.1667 8.90104 56.2734 9.35938 56.2734C10.0729 56.2734 10.5781 56.0703 10.875 55.6641C11.1771 55.2578 11.3281 54.6094 11.3281 53.7188C11.3281 52.8281 11.1849 52.1823 10.8984 51.7812C10.6172 51.375 10.1927 51.1719 9.625 51.1719C9.0625 51.1719 8.40885 51.4062 7.66406 51.875V55.9531ZM16.1016 57.4375C15.4141 56.9583 15.0703 56.2812 15.0703 55.4062C15.0703 54.5312 15.4141 53.8594 16.1016 53.3906C16.7943 52.9219 17.6849 52.6875 18.7734 52.6875H21.3594C21.3594 52.0781 21.2318 51.6536 20.9766 51.4141C20.7214 51.1745 20.2734 51.0547 19.6328 51.0547C18.9974 51.0547 18.5495 51.2135 18.2891 51.5312C18.0339 51.8438 17.7188 52 17.3438 52H16.1797C16.0391 52 15.9219 51.9557 15.8281 51.8672C15.7396 51.7734 15.6953 51.6589 15.6953 51.5234C15.6953 50.0286 17.1146 49.2812 19.9531 49.2812C21.1927 49.2812 22.1875 49.5599 22.9375 50.1172C23.6875 50.6693 24.0625 51.526 24.0625 52.6875V57.5234C24.0625 57.6641 24.0182 57.7786 23.9297 57.8672C23.8411 57.9557 23.7266 58 23.5859 58H22.0781C21.9375 58 21.8229 57.9557 21.7344 57.8672C21.6458 57.7734 21.6016 57.6589 21.6016 57.5234V57.2812C20.7786 57.8698 19.8281 58.1615 18.75 58.1562C17.6771 58.1562 16.7943 57.9167 16.1016 57.4375ZM18.9609 54.4609C18.5964 54.4609 18.3073 54.5495 18.0938 54.7266C17.8854 54.9036 17.7812 55.1328 17.7812 55.4141C17.7812 55.6953 17.8906 55.9271 18.1094 56.1094C18.3281 56.2917 18.638 56.3828 19.0391 56.3828C19.8411 56.3828 20.6146 56.1484 21.3594 55.6797V54.4609H18.9609ZM25.5078 51.8047C25.5078 50.1224 26.8646 49.2812 29.5781 49.2812C32.4323 49.2812 33.8594 50.0286 33.8594 51.5234C33.8594 51.6589 33.8151 51.7734 33.7266 51.8672C33.638 51.9557 33.5234 52 33.3828 52H32.2188C31.8438 52 31.5286 51.8438 31.2734 51.5312C31.0182 51.2135 30.5156 51.0547 29.7656 51.0547C28.7344 51.0547 28.2188 51.3047 28.2188 51.8047C28.2188 52.0391 28.4193 52.2344 28.8203 52.3906C29.2266 52.5469 29.7188 52.6849 30.2969 52.8047C30.8802 52.9193 31.4609 53.0677 32.0391 53.25C32.6172 53.4323 33.1068 53.724 33.5078 54.125C33.9141 54.5208 34.1172 55.0234 34.1172 55.6328C34.1172 57.3151 32.6849 58.1562 29.8203 58.1562C26.9557 58.1562 25.5234 57.4115 25.5234 55.9219C25.5234 55.7812 25.5677 55.6667 25.6562 55.5781C25.75 55.4844 25.8672 55.4375 26.0078 55.4375H27.1719C27.5469 55.4375 27.862 55.5964 28.1172 55.9141C28.3724 56.2266 28.875 56.3828 29.625 56.3828C30.8177 56.3828 31.4141 56.1328 31.4141 55.6328C31.4141 55.3984 31.2109 55.2031 30.8047 55.0469C30.4036 54.8906 29.9115 54.7526 29.3281 54.6328C28.7448 54.5078 28.1641 54.3568 27.5859 54.1797C27.013 53.9974 26.5234 53.7057 26.1172 53.3047C25.7109 52.9036 25.5078 52.4036 25.5078 51.8047ZM35.0859 51.8047C35.0859 50.1224 36.4427 49.2812 39.1562 49.2812C42.0104 49.2812 43.4375 50.0286 43.4375 51.5234C43.4375 51.6589 43.3932 51.7734 43.3047 51.8672C43.2161 51.9557 43.1016 52 42.9609 52H41.7969C41.4219 52 41.1068 51.8438 40.8516 51.5312C40.5964 51.2135 40.0938 51.0547 39.3438 51.0547C38.3125 51.0547 37.7969 51.3047 37.7969 51.8047C37.7969 52.0391 37.9974 52.2344 38.3984 52.3906C38.8047 52.5469 39.2969 52.6849 39.875 52.8047C40.4583 52.9193 41.0391 53.0677 41.6172 53.25C42.1953 53.4323 42.6849 53.724 43.0859 54.125C43.4922 54.5208 43.6953 55.0234 43.6953 55.6328C43.6953 57.3151 42.263 58.1562 39.3984 58.1562C36.5339 58.1562 35.1016 57.4115 35.1016 55.9219C35.1016 55.7812 35.1458 55.6667 35.2344 55.5781C35.3281 55.4844 35.4453 55.4375 35.5859 55.4375H36.75C37.125 55.4375 37.4401 55.5964 37.6953 55.9141C37.9505 56.2266 38.4531 56.3828 39.2031 56.3828C40.3958 56.3828 40.9922 56.1328 40.9922 55.6328C40.9922 55.3984 40.7891 55.2031 40.3828 55.0469C39.9818 54.8906 39.4896 54.7526 38.9062 54.6328C38.3229 54.5078 37.7422 54.3568 37.1641 54.1797C36.5911 53.9974 36.1016 53.7057 35.6953 53.3047C35.2891 52.9036 35.0859 52.4036 35.0859 51.8047ZM45.1484 47.8047V47.5391C45.1484 47.263 45.2266 47.0443 45.3828 46.8828C45.5443 46.7214 45.7656 46.6406 46.0469 46.6406H47.0156C47.2917 46.6406 47.5104 46.7214 47.6719 46.8828C47.8333 47.0391 47.9141 47.2578 47.9141 47.5391V47.8047C47.9141 48.0807 47.8333 48.2995 47.6719 48.4609C47.5156 48.6224 47.2969 48.7031 47.0156 48.7031H46.0469C45.7708 48.7031 45.5521 48.6224 45.3906 48.4609C45.2292 48.2995 45.1484 48.0807 45.1484 47.8047ZM45.1797 57.5234V50.1094C45.1797 49.9688 45.224 49.8542 45.3125 49.7656C45.4062 49.6771 45.5208 49.6328 45.6562 49.6328H47.4062C47.5469 49.6328 47.6615 49.6797 47.75 49.7734C47.8385 49.862 47.8828 49.974 47.8828 50.1094V57.5234C47.8828 57.6641 47.8359 57.7786 47.7422 57.8672C47.6536 57.9557 47.5417 58 47.4062 58H45.6562C45.5156 58 45.401 57.9557 45.3125 57.8672C45.224 57.7786 45.1797 57.6641 45.1797 57.5234ZM50.5703 57.0312C49.7578 56.2812 49.3516 55.1771 49.3516 53.7188C49.3516 52.2552 49.7578 51.151 50.5703 50.4062C51.3828 49.6562 52.5495 49.2812 54.0703 49.2812C55.5964 49.2812 56.7656 49.6562 57.5781 50.4062C58.3906 51.151 58.7969 52.2552 58.7969 53.7188C58.7969 55.1771 58.3906 56.2812 57.5781 57.0312C56.7656 57.7812 55.5964 58.1562 54.0703 58.1562C52.5495 58.1562 51.3828 57.7812 50.5703 57.0312ZM52.5469 51.6875C52.224 52.1094 52.0625 52.7839 52.0625 53.7109C52.0625 54.638 52.224 55.3151 52.5469 55.7422C52.8698 56.1693 53.3776 56.3828 54.0703 56.3828C54.7682 56.3828 55.2786 56.1693 55.6016 55.7422C55.9297 55.3151 56.0938 54.638 56.0938 53.7109C56.0938 52.7839 55.9297 52.1094 55.6016 51.6875C55.2786 51.2656 54.7682 51.0547 54.0703 51.0547C53.3776 51.0547 52.8698 51.2656 52.5469 51.6875ZM60.2422 57.5234V49.9219C60.2422 49.7812 60.2865 49.6667 60.375 49.5781C60.4688 49.4844 60.5833 49.4375 60.7188 49.4375H62.4688C62.6042 49.4375 62.7161 49.4844 62.8047 49.5781C62.8984 49.6667 62.9453 49.7812 62.9453 49.9219V50.4141C63.8411 49.6589 64.7943 49.2812 65.8047 49.2812C66.8203 49.2812 67.6458 49.5911 68.2812 50.2109C68.9167 50.8255 69.2344 51.7682 69.2344 53.0391V57.5234C69.2344 57.6589 69.1875 57.7734 69.0938 57.8672C69.0052 57.9557 68.8906 58 68.75 58H67.0078C66.8724 58 66.7578 57.9557 66.6641 57.8672C66.5755 57.7734 66.5312 57.6589 66.5312 57.5234V53.0391C66.5312 51.7943 66.0339 51.1719 65.0391 51.1719C64.388 51.1719 63.6901 51.5443 62.9453 52.2891V57.5234C62.9453 57.6589 62.8984 57.7734 62.8047 57.8672C62.7161 57.9557 62.6042 58 62.4688 58H60.7188C60.5833 58 60.4688 57.9557 60.375 57.8672C60.2865 57.7734 60.2422 57.6589 60.2422 57.5234ZM76.7734 47.8047V47.5391C76.7734 47.263 76.8516 47.0443 77.0078 46.8828C77.1693 46.7214 77.3906 46.6406 77.6719 46.6406H78.6406C78.9167 46.6406 79.1354 46.7214 79.2969 46.8828C79.4583 47.0391 79.5391 47.2578 79.5391 47.5391V47.8047C79.5391 48.0807 79.4583 48.2995 79.2969 48.4609C79.1406 48.6224 78.9219 48.7031 78.6406 48.7031H77.6719C77.3958 48.7031 77.1771 48.6224 77.0156 48.4609C76.8542 48.2995 76.7734 48.0807 76.7734 47.8047ZM76.8047 57.5234V50.1094C76.8047 49.9688 76.849 49.8542 76.9375 49.7656C77.0312 49.6771 77.1458 49.6328 77.2812 49.6328H79.0312C79.1719 49.6328 79.2865 49.6797 79.375 49.7734C79.4635 49.862 79.5078 49.974 79.5078 50.1094V57.5234C79.5078 57.6641 79.4609 57.7786 79.3672 57.8672C79.2786 57.9557 79.1667 58 79.0312 58H77.2812C77.1406 58 77.026 57.9557 76.9375 57.8672C76.849 57.7786 76.8047 57.6641 76.8047 57.5234ZM81.4609 57.5234V49.9219C81.4609 49.7812 81.5052 49.6667 81.5938 49.5781C81.6875 49.4844 81.8021 49.4375 81.9375 49.4375H83.6875C83.8229 49.4375 83.9349 49.4844 84.0234 49.5781C84.1172 49.6667 84.1641 49.7812 84.1641 49.9219V50.4141C85.0599 49.6589 86.013 49.2812 87.0234 49.2812C88.0391 49.2812 88.8646 49.5911 89.5 50.2109C90.1354 50.8255 90.4531 51.7682 90.4531 53.0391V57.5234C90.4531 57.6589 90.4062 57.7734 90.3125 57.8672C90.224 57.9557 90.1094 58 89.9688 58H88.2266C88.0911 58 87.9766 57.9557 87.8828 57.8672C87.7943 57.7734 87.75 57.6589 87.75 57.5234V53.0391C87.75 51.7943 87.2526 51.1719 86.2578 51.1719C85.6068 51.1719 84.9089 51.5443 84.1641 52.2891V57.5234C84.1641 57.6589 84.1172 57.7734 84.0234 57.8672C83.9349 57.9557 83.8229 58 83.6875 58H81.9375C81.8021 58 81.6875 57.9557 81.5938 57.8672C81.5052 57.7734 81.4609 57.6589 81.4609 57.5234ZM102.133 58.1562C100.674 58.1562 99.5391 57.7812 98.7266 57.0312C97.9141 56.2812 97.5078 55.1797 97.5078 53.7266C97.5078 52.2682 97.9115 51.1641 98.7188 50.4141C99.526 49.6589 100.648 49.2812 102.086 49.2812C103.529 49.2812 104.635 49.5104 105.406 49.9688C106.182 50.4271 106.57 51.1042 106.57 52C106.57 52.1406 106.523 52.2552 106.43 52.3438C106.341 52.4323 106.227 52.4766 106.086 52.4766H104.922C104.568 52.4766 104.268 52.2865 104.023 51.9062C103.716 51.4167 103.172 51.1719 102.391 51.1719C101.615 51.1719 101.07 51.3724 100.758 51.7734C100.451 52.1693 100.297 52.8177 100.297 53.7188C100.297 54.6198 100.456 55.2708 100.773 55.6719C101.096 56.0729 101.654 56.2734 102.445 56.2734C103.242 56.2734 103.794 56.0286 104.102 55.5391C104.346 55.1536 104.646 54.9609 105 54.9609H106.164C106.305 54.9609 106.419 55.0078 106.508 55.1016C106.602 55.1901 106.648 55.3021 106.648 55.4375C106.648 56.3333 106.26 57.0104 105.484 57.4688C104.714 57.9271 103.596 58.1562 102.133 58.1562ZM113.852 51.4219L112.648 51.375C111.945 51.375 111.273 51.7604 110.633 52.5312V57.5234C110.633 57.6641 110.586 57.7786 110.492 57.8672C110.404 57.9557 110.292 58 110.156 58H108.406C108.266 58 108.151 57.9557 108.062 57.8672C107.974 57.7786 107.93 57.6641 107.93 57.5234V49.9219C107.93 49.7812 107.974 49.6667 108.062 49.5781C108.156 49.4844 108.271 49.4375 108.406 49.4375H110.156C110.297 49.4375 110.411 49.4844 110.5 49.5781C110.589 49.6667 110.633 49.7812 110.633 49.9219V50.4141C111.164 50.0286 111.674 49.7448 112.164 49.5625C112.659 49.375 113.305 49.2812 114.102 49.2812C114.242 49.2812 114.357 49.3281 114.445 49.4219C114.539 49.5104 114.586 49.6224 114.586 49.7578V50.9453C114.586 51.0859 114.539 51.2005 114.445 51.2891C114.357 51.3776 114.242 51.4219 114.102 51.4219H113.852ZM116.352 57.0156C115.549 56.2552 115.148 55.1615 115.148 53.7344C115.148 52.3021 115.552 51.2031 116.359 50.4375C117.167 49.6667 118.286 49.2812 119.719 49.2812C121.151 49.2812 122.268 49.6562 123.07 50.4062C123.872 51.151 124.273 52.2214 124.273 53.6172V54.0625C124.273 54.2031 124.227 54.3203 124.133 54.4141C124.044 54.5026 123.93 54.5469 123.789 54.5469H117.906C117.958 55.1875 118.141 55.6536 118.453 55.9453C118.771 56.237 119.276 56.3828 119.969 56.3828C120.661 56.3828 121.135 56.2266 121.391 55.9141C121.646 55.6016 121.961 55.4427 122.336 55.4375H123.5C123.641 55.4375 123.755 55.4844 123.844 55.5781C123.938 55.6667 123.984 55.7812 123.984 55.9219C123.984 57.4167 122.56 58.1615 119.711 58.1562C118.273 58.1562 117.154 57.776 116.352 57.0156ZM117.891 52.8984H121.523C121.471 51.6693 120.867 51.0547 119.711 51.0547C118.56 51.0547 117.953 51.6693 117.891 52.8984ZM126.258 57.4375C125.57 56.9583 125.227 56.2812 125.227 55.4062C125.227 54.5312 125.57 53.8594 126.258 53.3906C126.951 52.9219 127.841 52.6875 128.93 52.6875H131.516C131.516 52.0781 131.388 51.6536 131.133 51.4141C130.878 51.1745 130.43 51.0547 129.789 51.0547C129.154 51.0547 128.706 51.2135 128.445 51.5312C128.19 51.8438 127.875 52 127.5 52H126.336C126.195 52 126.078 51.9557 125.984 51.8672C125.896 51.7734 125.852 51.6589 125.852 51.5234C125.852 50.0286 127.271 49.2812 130.109 49.2812C131.349 49.2812 132.344 49.5599 133.094 50.1172C133.844 50.6693 134.219 51.526 134.219 52.6875V57.5234C134.219 57.6641 134.174 57.7786 134.086 57.8672C133.997 57.9557 133.883 58 133.742 58H132.234C132.094 58 131.979 57.9557 131.891 57.8672C131.802 57.7734 131.758 57.6589 131.758 57.5234V57.2812C130.935 57.8698 129.984 58.1615 128.906 58.1562C127.833 58.1562 126.951 57.9167 126.258 57.4375ZM129.117 54.4609C128.753 54.4609 128.464 54.5495 128.25 54.7266C128.042 54.9036 127.938 55.1328 127.938 55.4141C127.938 55.6953 128.047 55.9271 128.266 56.1094C128.484 56.2917 128.794 56.3828 129.195 56.3828C129.997 56.3828 130.771 56.1484 131.516 55.6797V54.4609H129.117ZM140.227 56.3047L141.297 56.2109H141.586C141.727 56.2109 141.841 56.2552 141.93 56.3438C142.023 56.4323 142.07 56.5469 142.07 56.6875V57.5234C142.07 57.638 142.023 57.7422 141.93 57.8359C141.841 57.9245 141.727 57.9792 141.586 58C141.055 58.1042 140.362 58.1562 139.508 58.1562C137.268 58.1562 136.148 56.9844 136.148 54.6406V47.2812C136.148 47.1406 136.193 47.026 136.281 46.9375C136.375 46.8438 136.49 46.7969 136.625 46.7969H138.375C138.51 46.7969 138.622 46.8438 138.711 46.9375C138.805 47.026 138.852 47.1406 138.852 47.2812V49.8906H141.031C141.167 49.8906 141.279 49.9349 141.367 50.0234C141.461 50.112 141.508 50.2266 141.508 50.3672V51.2969C141.508 51.4375 141.461 51.5521 141.367 51.6406C141.279 51.7292 141.167 51.7734 141.031 51.7734H138.852V54.6406C138.852 55.1719 138.977 55.5833 139.227 55.875C139.477 56.1615 139.81 56.3047 140.227 56.3047ZM143.352 47.8047V47.5391C143.352 47.263 143.43 47.0443 143.586 46.8828C143.747 46.7214 143.969 46.6406 144.25 46.6406H145.219C145.495 46.6406 145.714 46.7214 145.875 46.8828C146.036 47.0391 146.117 47.2578 146.117 47.5391V47.8047C146.117 48.0807 146.036 48.2995 145.875 48.4609C145.719 48.6224 145.5 48.7031 145.219 48.7031H144.25C143.974 48.7031 143.755 48.6224 143.594 48.4609C143.432 48.2995 143.352 48.0807 143.352 47.8047ZM143.383 57.5234V50.1094C143.383 49.9688 143.427 49.8542 143.516 49.7656C143.609 49.6771 143.724 49.6328 143.859 49.6328H145.609C145.75 49.6328 145.865 49.6797 145.953 49.7734C146.042 49.862 146.086 49.974 146.086 50.1094V57.5234C146.086 57.6641 146.039 57.7786 145.945 57.8672C145.857 57.9557 145.745 58 145.609 58H143.859C143.719 58 143.604 57.9557 143.516 57.8672C143.427 57.7786 143.383 57.6641 143.383 57.5234ZM147.641 49.4375H149.141C149.365 49.4375 149.576 49.5026 149.773 49.6328C149.971 49.7578 150.112 49.9219 150.195 50.125L152.328 54.9922L154.453 50.125C154.536 49.9219 154.677 49.7578 154.875 49.6328C155.073 49.5026 155.284 49.4375 155.508 49.4375H157.016C157.198 49.4375 157.318 49.5052 157.375 49.6406C157.401 49.6927 157.411 49.7604 157.406 49.8438C157.406 49.9219 157.383 50.0156 157.336 50.125L153.961 57.3125C153.867 57.5156 153.719 57.6823 153.516 57.8125C153.318 57.9375 153.112 58 152.898 58H151.75C151.536 58 151.331 57.9375 151.133 57.8125C150.935 57.6823 150.789 57.5156 150.695 57.3125L147.32 50.125C147.268 50.0104 147.242 49.9141 147.242 49.8359C147.242 49.5703 147.375 49.4375 147.641 49.4375ZM158.539 47.8047V47.5391C158.539 47.263 158.617 47.0443 158.773 46.8828C158.935 46.7214 159.156 46.6406 159.438 46.6406H160.406C160.682 46.6406 160.901 46.7214 161.062 46.8828C161.224 47.0391 161.305 47.2578 161.305 47.5391V47.8047C161.305 48.0807 161.224 48.2995 161.062 48.4609C160.906 48.6224 160.688 48.7031 160.406 48.7031H159.438C159.161 48.7031 158.943 48.6224 158.781 48.4609C158.62 48.2995 158.539 48.0807 158.539 47.8047ZM158.57 57.5234V50.1094C158.57 49.9688 158.615 49.8542 158.703 49.7656C158.797 49.6771 158.911 49.6328 159.047 49.6328H160.797C160.938 49.6328 161.052 49.6797 161.141 49.7734C161.229 49.862 161.273 49.974 161.273 50.1094V57.5234C161.273 57.6641 161.227 57.7786 161.133 57.8672C161.044 57.9557 160.932 58 160.797 58H159.047C158.906 58 158.792 57.9557 158.703 57.8672C158.615 57.7786 158.57 57.6641 158.57 57.5234ZM167.305 56.3047L168.375 56.2109H168.664C168.805 56.2109 168.919 56.2552 169.008 56.3438C169.102 56.4323 169.148 56.5469 169.148 56.6875V57.5234C169.148 57.638 169.102 57.7422 169.008 57.8359C168.919 57.9245 168.805 57.9792 168.664 58C168.133 58.1042 167.44 58.1562 166.586 58.1562C164.346 58.1562 163.227 56.9844 163.227 54.6406V47.2812C163.227 47.1406 163.271 47.026 163.359 46.9375C163.453 46.8438 163.568 46.7969 163.703 46.7969H165.453C165.589 46.7969 165.701 46.8438 165.789 46.9375C165.883 47.026 165.93 47.1406 165.93 47.2812V49.8906H168.109C168.245 49.8906 168.357 49.9349 168.445 50.0234C168.539 50.112 168.586 50.2266 168.586 50.3672V51.2969C168.586 51.4375 168.539 51.5521 168.445 51.6406C168.357 51.7292 168.245 51.7734 168.109 51.7734H165.93V54.6406C165.93 55.1719 166.055 55.5833 166.305 55.875C166.555 56.1615 166.888 56.3047 167.305 56.3047ZM171.938 58.8125L172.961 58.9453C173.695 58.9453 174.208 58.4062 174.5 57.3281C173.615 57.3281 172.875 57.0625 172.281 56.5312C171.688 55.9948 171.177 55.0443 170.75 53.6797L169.586 49.9062C169.57 49.8646 169.562 49.8177 169.562 49.7656C169.562 49.7083 169.594 49.6406 169.656 49.5625C169.724 49.4844 169.823 49.4427 169.953 49.4375H171.586C171.737 49.4375 171.88 49.4896 172.016 49.5938C172.156 49.6927 172.247 49.8177 172.289 49.9688L173.312 53.2812C173.568 54.0938 173.826 54.6562 174.086 54.9688C174.352 55.2812 174.664 55.4375 175.023 55.4375L176.578 49.9688C176.62 49.8177 176.701 49.6927 176.82 49.5938C176.945 49.4896 177.083 49.4375 177.234 49.4375H178.883C179.013 49.4375 179.109 49.4792 179.172 49.5625C179.234 49.6458 179.266 49.7161 179.266 49.7734C179.266 49.8255 179.26 49.8698 179.25 49.9062L177.203 57.2031C176.839 58.4948 176.385 59.4167 175.844 59.9688C175.307 60.5208 174.615 60.7969 173.766 60.7969C172.917 60.7969 172.315 60.7656 171.961 60.7031C171.612 60.6406 171.393 60.5625 171.305 60.4688C171.216 60.3802 171.172 60.276 171.172 60.1562V59.2969C171.172 59.1562 171.216 59.0391 171.305 58.9453C171.393 58.8568 171.508 58.8125 171.648 58.8125H171.938Z" fill="black"/>
</svg>
