<svg width="103" height="42" viewBox="0 0 103 42" fill="none" xmlns="http://www.w3.org/2000/svg">
<path d="M15.0322 19.4824C13.6377 20.7061 11.5869 21.3179 8.87988 21.3179C6.17969 21.3179 4.12891 20.7061 2.72754 19.4824C1.32617 18.252 0.625488 16.3071 0.625488 13.6479C0.625488 10.9888 1.32617 9.04736 2.72754 7.82373C4.12891 6.6001 6.17969 5.98828 8.87988 5.98828C11.5869 5.98828 13.6377 6.6001 15.0322 7.82373C16.4336 9.04736 17.1343 10.9888 17.1343 13.6479C17.1343 16.3071 16.4336 18.252 15.0322 19.4824ZM12.2329 9.9873C11.5425 9.16699 10.4248 8.75684 8.87988 8.75684C7.3418 8.75684 6.22412 9.16699 5.52686 9.9873C4.83643 10.8076 4.49121 12.0312 4.49121 13.6582C4.49121 15.2783 4.83643 16.4985 5.52686 17.3188C6.22412 18.1323 7.3418 18.5391 8.87988 18.5391C10.4248 18.5391 11.5425 18.1323 12.2329 17.3188C12.9233 16.4985 13.2686 15.2783 13.2686 13.6582C13.2686 12.0312 12.9233 10.8076 12.2329 9.9873ZM18.0981 8.23389V7.27002C18.0981 6.98975 18.1904 6.75732 18.375 6.57275C18.5664 6.38818 18.7954 6.2959 19.062 6.2959H31.0386C31.3052 6.2959 31.5308 6.38818 31.7153 6.57275C31.9067 6.75732 32.0024 6.98975 32.0024 7.27002V8.41846C32.0024 8.69873 31.9409 8.96875 31.8179 9.22852C31.7017 9.48828 31.5923 9.67285 31.4897 9.78223L31.0386 10.2437L22.9688 18.0981H31.1411C31.4214 18.0981 31.6504 18.1904 31.8281 18.375C32.0127 18.5596 32.105 18.792 32.105 19.0723V20.0361C32.105 20.3164 32.0127 20.5488 31.8281 20.7334C31.6504 20.9111 31.4214 21 31.1411 21H19.2363C18.9697 21 18.7407 20.9111 18.5493 20.7334C18.3647 20.5488 18.2725 20.3164 18.2725 20.0361V18.8979C18.2725 18.2417 18.5938 17.5923 19.2363 16.9497L27.0498 9.19775H19.062C18.7954 9.19775 18.5664 9.10889 18.375 8.93115C18.1904 8.74658 18.0981 8.51416 18.0981 8.23389ZM34.0942 20.0361V7.27002C34.0942 7.00342 34.1899 6.77441 34.3813 6.58301C34.5728 6.3916 34.8086 6.2959 35.0889 6.2959H36.9961C37.2627 6.2959 37.4883 6.3916 37.6729 6.58301C37.8643 6.77441 37.96 7.00342 37.96 7.27002V11.8843H45.0146V7.27002C45.0146 7.00342 45.1104 6.77441 45.3018 6.58301C45.4932 6.3916 45.7222 6.2959 45.9888 6.2959H47.896C48.1763 6.2959 48.4087 6.3916 48.5933 6.58301C48.7847 6.77441 48.8804 7.00342 48.8804 7.27002V20.0361C48.8804 20.3027 48.7812 20.5317 48.583 20.7231C48.3916 20.9077 48.1626 21 47.896 21H45.9888C45.7222 21 45.4932 20.9111 45.3018 20.7334C45.1104 20.5488 45.0146 20.3232 45.0146 20.0566V14.7861H37.96V20.0566C37.96 20.3232 37.8643 20.5488 37.6729 20.7334C37.4883 20.9111 37.2627 21 36.9961 21H35.0889C34.8223 21 34.5898 20.9077 34.3916 20.7231C34.1934 20.5317 34.0942 20.3027 34.0942 20.0361ZM51.8335 20.0566V7.27002C51.8335 7.00342 51.9292 6.77441 52.1206 6.58301C52.312 6.3916 52.541 6.2959 52.8076 6.2959H54.7148C54.9951 6.2959 55.2275 6.3916 55.4121 6.58301C55.6035 6.77441 55.6992 7.00342 55.6992 7.27002V20.0361C55.6992 20.3027 55.6001 20.5317 55.4019 20.7231C55.2104 20.9077 54.9814 21 54.7148 21H52.8076C52.541 21 52.312 20.9111 52.1206 20.7334C51.9292 20.5488 51.8335 20.3232 51.8335 20.0566ZM58.6421 20.0361V7.27002C58.6421 7.00342 58.7344 6.77441 58.9189 6.58301C59.1035 6.3916 59.3291 6.2959 59.5957 6.2959H62.6104C62.8496 6.2959 63.1025 6.3916 63.3691 6.58301C63.6357 6.77441 63.8545 7.00342 64.0254 7.27002L70.2188 16.7959V7.24951C70.2188 6.98291 70.311 6.75732 70.4956 6.57275C70.687 6.38818 70.916 6.2959 71.1826 6.2959H72.9463C73.2129 6.2959 73.4385 6.38818 73.623 6.57275C73.8145 6.75732 73.9102 6.98975 73.9102 7.27002V20.0361C73.9102 20.3027 73.8145 20.5317 73.623 20.7231C73.4385 20.9077 73.2129 21 72.9463 21H69.542C69.2754 21 69.002 20.9077 68.7217 20.7231C68.4414 20.5317 68.2192 20.3027 68.0552 20.0361L62.3848 11.2383V20.0361C62.3848 20.3027 62.2891 20.5317 62.0977 20.7231C61.9131 20.9077 61.6875 21 61.4209 21H59.6162C59.3496 21 59.1206 20.9077 58.9292 20.7231C58.7378 20.5317 58.6421 20.3027 58.6421 20.0361ZM75.6431 20.0566L78.2168 10.2949C78.9141 7.63574 81.1836 6.30273 85.0254 6.2959H90.5522C90.8052 6.2959 91.0137 6.3916 91.1777 6.58301C91.3486 6.77441 91.4341 6.99658 91.4341 7.24951V20.0566C91.4341 20.3232 91.3384 20.5488 91.147 20.7334C90.9556 20.9111 90.7266 21 90.46 21H88.5322C88.252 21 88.0195 20.9111 87.835 20.7334C87.6572 20.5488 87.5684 20.3164 87.5684 20.0361V17.4521H80.2778L79.5908 20.0361C79.5225 20.3164 79.3687 20.5488 79.1294 20.7334C78.8901 20.9111 78.6372 21 78.3706 21H76.3506C76.084 21 75.8926 20.9248 75.7764 20.7744C75.6602 20.6172 75.6021 20.4805 75.6021 20.3643C75.6089 20.248 75.6226 20.1455 75.6431 20.0566ZM81.0366 14.5503H87.5684V9.19775H84.646C83.9897 9.19775 83.4155 9.38574 82.9233 9.76172C82.438 10.1309 82.1099 10.6299 81.939 11.2588L81.0366 14.5503Z" fill="white"/>
</svg>
