<svg width="194" height="197" viewBox="0 0 194 197" fill="none" xmlns="http://www.w3.org/2000/svg">
<path d="M30.0645 172.965C27.2754 175.412 23.1738 176.636 17.7598 176.636C12.3594 176.636 8.25781 175.412 5.45508 172.965C2.65234 170.504 1.25098 166.614 1.25098 161.296C1.25098 155.978 2.65234 152.095 5.45508 149.647C8.25781 147.2 12.3594 145.977 17.7598 145.977C23.1738 145.977 27.2754 147.2 30.0645 149.647C32.8672 152.095 34.2686 155.978 34.2686 161.296C34.2686 166.614 32.8672 170.504 30.0645 172.965ZM24.4658 153.975C23.085 152.334 20.8496 151.514 17.7598 151.514C14.6836 151.514 12.4482 152.334 11.0537 153.975C9.67285 155.615 8.98242 158.062 8.98242 161.316C8.98242 164.557 9.67285 166.997 11.0537 168.638C12.4482 170.265 14.6836 171.078 17.7598 171.078C20.8496 171.078 23.085 170.265 24.4658 168.638C25.8467 166.997 26.5371 164.557 26.5371 161.316C26.5371 158.062 25.8467 155.615 24.4658 153.975ZM36.1963 150.468V148.54C36.1963 147.979 36.3809 147.515 36.75 147.146C37.1328 146.776 37.5908 146.592 38.124 146.592H62.0771C62.6104 146.592 63.0615 146.776 63.4307 147.146C63.8135 147.515 64.0049 147.979 64.0049 148.54V150.837C64.0049 151.397 63.8818 151.938 63.6357 152.457C63.4033 152.977 63.1846 153.346 62.9795 153.564L62.0771 154.487L45.9375 170.196H62.2822C62.8428 170.196 63.3008 170.381 63.6562 170.75C64.0254 171.119 64.21 171.584 64.21 172.145V174.072C64.21 174.633 64.0254 175.098 63.6562 175.467C63.3008 175.822 62.8428 176 62.2822 176H38.4727C37.9395 176 37.4814 175.822 37.0986 175.467C36.7295 175.098 36.5449 174.633 36.5449 174.072V171.796C36.5449 170.483 37.1875 169.185 38.4727 167.899L54.0996 152.396H38.124C37.5908 152.396 37.1328 152.218 36.75 151.862C36.3809 151.493 36.1963 151.028 36.1963 150.468ZM68.1885 174.072V148.54C68.1885 148.007 68.3799 147.549 68.7627 147.166C69.1455 146.783 69.6172 146.592 70.1777 146.592H73.9922C74.5254 146.592 74.9766 146.783 75.3457 147.166C75.7285 147.549 75.9199 148.007 75.9199 148.54V157.769H90.0293V148.54C90.0293 148.007 90.2207 147.549 90.6035 147.166C90.9863 146.783 91.4443 146.592 91.9775 146.592H95.792C96.3525 146.592 96.8174 146.783 97.1865 147.166C97.5693 147.549 97.7607 148.007 97.7607 148.54V174.072C97.7607 174.605 97.5625 175.063 97.166 175.446C96.7832 175.815 96.3252 176 95.792 176H91.9775C91.4443 176 90.9863 175.822 90.6035 175.467C90.2207 175.098 90.0293 174.646 90.0293 174.113V163.572H75.9199V174.113C75.9199 174.646 75.7285 175.098 75.3457 175.467C74.9766 175.822 74.5254 176 73.9922 176H70.1777C69.6445 176 69.1797 175.815 68.7832 175.446C68.3867 175.063 68.1885 174.605 68.1885 174.072ZM103.667 174.113V148.54C103.667 148.007 103.858 147.549 104.241 147.166C104.624 146.783 105.082 146.592 105.615 146.592H109.43C109.99 146.592 110.455 146.783 110.824 147.166C111.207 147.549 111.398 148.007 111.398 148.54V174.072C111.398 174.605 111.2 175.063 110.804 175.446C110.421 175.815 109.963 176 109.43 176H105.615C105.082 176 104.624 175.822 104.241 175.467C103.858 175.098 103.667 174.646 103.667 174.113ZM117.284 174.072V148.54C117.284 148.007 117.469 147.549 117.838 147.166C118.207 146.783 118.658 146.592 119.191 146.592H125.221C125.699 146.592 126.205 146.783 126.738 147.166C127.271 147.549 127.709 148.007 128.051 148.54L140.438 167.592V148.499C140.438 147.966 140.622 147.515 140.991 147.146C141.374 146.776 141.832 146.592 142.365 146.592H145.893C146.426 146.592 146.877 146.776 147.246 147.146C147.629 147.515 147.82 147.979 147.82 148.54V174.072C147.82 174.605 147.629 175.063 147.246 175.446C146.877 175.815 146.426 176 145.893 176H139.084C138.551 176 138.004 175.815 137.443 175.446C136.883 175.063 136.438 174.605 136.11 174.072L124.77 156.477V174.072C124.77 174.605 124.578 175.063 124.195 175.446C123.826 175.815 123.375 176 122.842 176H119.232C118.699 176 118.241 175.815 117.858 175.446C117.476 175.063 117.284 174.605 117.284 174.072ZM151.286 174.113L156.434 154.59C157.828 149.271 162.367 146.605 170.051 146.592H181.104C181.61 146.592 182.027 146.783 182.355 147.166C182.697 147.549 182.868 147.993 182.868 148.499V174.113C182.868 174.646 182.677 175.098 182.294 175.467C181.911 175.822 181.453 176 180.92 176H177.064C176.504 176 176.039 175.822 175.67 175.467C175.314 175.098 175.137 174.633 175.137 174.072V168.904H160.556L159.182 174.072C159.045 174.633 158.737 175.098 158.259 175.467C157.78 175.822 157.274 176 156.741 176H152.701C152.168 176 151.785 175.85 151.553 175.549C151.32 175.234 151.204 174.961 151.204 174.729C151.218 174.496 151.245 174.291 151.286 174.113ZM162.073 163.101H175.137V152.396H169.292C167.979 152.396 166.831 152.771 165.847 153.523C164.876 154.262 164.22 155.26 163.878 156.518L162.073 163.101Z" fill="#AD00FF"/>
<path d="M31.3486 173.037C28.626 175.426 24.6221 176.621 19.3369 176.621C14.0651 176.621 10.0612 175.426 7.3252 173.037C4.58919 170.635 3.22119 166.838 3.22119 161.646C3.22119 156.454 4.58919 152.664 7.3252 150.275C10.0612 147.886 14.0651 146.691 19.3369 146.691C24.6221 146.691 28.626 147.886 31.3486 150.275C34.0846 152.664 35.4526 156.454 35.4526 161.646C35.4526 166.838 34.0846 170.635 31.3486 173.037ZM25.8833 154.499C24.5353 152.897 22.3532 152.097 19.3369 152.097C16.334 152.097 14.1519 152.897 12.7905 154.499C11.4425 156.101 10.7686 158.49 10.7686 161.666C10.7686 164.829 11.4425 167.211 12.7905 168.813C14.1519 170.401 16.334 171.195 19.3369 171.195C22.3532 171.195 24.5353 170.401 25.8833 168.813C27.2313 167.211 27.9053 164.829 27.9053 161.666C27.9053 158.49 27.2313 156.101 25.8833 154.499ZM37.3345 151.076V149.194C37.3345 148.647 37.5146 148.193 37.875 147.833C38.2487 147.472 38.6958 147.292 39.2163 147.292H62.5991C63.1196 147.292 63.5601 147.472 63.9204 147.833C64.2941 148.193 64.481 148.647 64.481 149.194V151.436C64.481 151.983 64.3608 152.51 64.1206 153.018C63.8937 153.525 63.6802 153.885 63.48 154.099L62.5991 155L46.8438 170.334H62.7993C63.3465 170.334 63.7936 170.515 64.1406 170.875C64.501 171.235 64.6812 171.689 64.6812 172.236V174.118C64.6812 174.665 64.501 175.119 64.1406 175.479C63.7936 175.826 63.3465 176 62.7993 176H39.5566C39.0361 176 38.589 175.826 38.2153 175.479C37.855 175.119 37.6748 174.665 37.6748 174.118V171.896C37.6748 170.615 38.3021 169.347 39.5566 168.092L54.8115 152.958H39.2163C38.6958 152.958 38.2487 152.784 37.875 152.437C37.5146 152.077 37.3345 151.623 37.3345 151.076ZM68.5649 174.118V149.194C68.5649 148.673 68.7518 148.226 69.1255 147.853C69.4992 147.479 69.9596 147.292 70.5068 147.292H74.2305C74.751 147.292 75.1914 147.479 75.5518 147.853C75.9255 148.226 76.1123 148.673 76.1123 149.194V158.203H89.8857V149.194C89.8857 148.673 90.0726 148.226 90.4463 147.853C90.82 147.479 91.2671 147.292 91.7876 147.292H95.5112C96.0584 147.292 96.5122 147.479 96.8726 147.853C97.2463 148.226 97.4331 148.673 97.4331 149.194V174.118C97.4331 174.639 97.2396 175.086 96.8525 175.459C96.4788 175.82 96.0317 176 95.5112 176H91.7876C91.2671 176 90.82 175.826 90.4463 175.479C90.0726 175.119 89.8857 174.679 89.8857 174.158V163.868H76.1123V174.158C76.1123 174.679 75.9255 175.119 75.5518 175.479C75.1914 175.826 74.751 176 74.2305 176H70.5068C69.9863 176 69.5326 175.82 69.1455 175.459C68.7585 175.086 68.5649 174.639 68.5649 174.118ZM103.199 174.158V149.194C103.199 148.673 103.386 148.226 103.759 147.853C104.133 147.479 104.58 147.292 105.101 147.292H108.824C109.371 147.292 109.825 147.479 110.186 147.853C110.559 148.226 110.746 148.673 110.746 149.194V174.118C110.746 174.639 110.553 175.086 110.166 175.459C109.792 175.82 109.345 176 108.824 176H105.101C104.58 176 104.133 175.826 103.759 175.479C103.386 175.119 103.199 174.679 103.199 174.158ZM116.492 174.118V149.194C116.492 148.673 116.672 148.226 117.032 147.853C117.393 147.479 117.833 147.292 118.354 147.292H124.239C124.706 147.292 125.2 147.479 125.721 147.853C126.241 148.226 126.668 148.673 127.002 149.194L139.094 167.792V149.154C139.094 148.633 139.274 148.193 139.634 147.833C140.008 147.472 140.455 147.292 140.976 147.292H144.419C144.939 147.292 145.38 147.472 145.74 147.833C146.114 148.193 146.301 148.647 146.301 149.194V174.118C146.301 174.639 146.114 175.086 145.74 175.459C145.38 175.82 144.939 176 144.419 176H137.772C137.252 176 136.718 175.82 136.171 175.459C135.624 175.086 135.19 174.639 134.87 174.118L123.799 156.941V174.118C123.799 174.639 123.612 175.086 123.238 175.459C122.878 175.82 122.438 176 121.917 176H118.394C117.873 176 117.426 175.82 117.052 175.459C116.679 175.086 116.492 174.639 116.492 174.118ZM149.684 174.158L154.709 155.1C156.07 149.908 160.501 147.305 168.002 147.292H178.792C179.286 147.292 179.693 147.479 180.014 147.853C180.347 148.226 180.514 148.66 180.514 149.154V174.158C180.514 174.679 180.327 175.119 179.954 175.479C179.58 175.826 179.133 176 178.612 176H174.849C174.301 176 173.848 175.826 173.487 175.479C173.14 175.119 172.967 174.665 172.967 174.118V169.073H158.733L157.392 174.118C157.258 174.665 156.958 175.119 156.491 175.479C156.024 175.826 155.53 176 155.009 176H151.065C150.545 176 150.171 175.853 149.944 175.56C149.717 175.253 149.604 174.986 149.604 174.759C149.617 174.532 149.644 174.332 149.684 174.158ZM160.214 163.408H172.967V152.958H167.261C165.98 152.958 164.859 153.325 163.898 154.059C162.95 154.779 162.31 155.754 161.976 156.981L160.214 163.408Z" fill="black"/>
<path d="M4.96094 195.156V184.922C4.96094 184.781 5.00521 184.667 5.09375 184.578C5.1875 184.484 5.30208 184.438 5.4375 184.438H6.94531C7.08073 184.438 7.19271 184.484 7.28125 184.578C7.375 184.667 7.42188 184.781 7.42188 184.922V185.156C8.24479 184.573 9.20052 184.281 10.2891 184.281C11.3776 184.281 12.2865 184.667 13.0156 185.438C13.7448 186.203 14.1094 187.302 14.1094 188.734C14.1094 190.161 13.7318 191.255 12.9766 192.016C12.2214 192.776 11.2031 193.156 9.92188 193.156C9.26042 193.156 8.50781 193.023 7.66406 192.758V195.156C7.66406 195.297 7.61719 195.411 7.52344 195.5C7.4349 195.594 7.32292 195.641 7.1875 195.641H5.4375C5.30208 195.641 5.1875 195.594 5.09375 195.5C5.00521 195.411 4.96094 195.297 4.96094 195.156ZM7.66406 190.953C8.33594 191.167 8.90104 191.273 9.35938 191.273C10.0729 191.273 10.5781 191.07 10.875 190.664C11.1771 190.258 11.3281 189.609 11.3281 188.719C11.3281 187.828 11.1849 187.182 10.8984 186.781C10.6172 186.375 10.1927 186.172 9.625 186.172C9.0625 186.172 8.40885 186.406 7.66406 186.875V190.953ZM16.1016 192.438C15.4141 191.958 15.0703 191.281 15.0703 190.406C15.0703 189.531 15.4141 188.859 16.1016 188.391C16.7943 187.922 17.6849 187.688 18.7734 187.688H21.3594C21.3594 187.078 21.2318 186.654 20.9766 186.414C20.7214 186.174 20.2734 186.055 19.6328 186.055C18.9974 186.055 18.5495 186.214 18.2891 186.531C18.0339 186.844 17.7188 187 17.3438 187H16.1797C16.0391 187 15.9219 186.956 15.8281 186.867C15.7396 186.773 15.6953 186.659 15.6953 186.523C15.6953 185.029 17.1146 184.281 19.9531 184.281C21.1927 184.281 22.1875 184.56 22.9375 185.117C23.6875 185.669 24.0625 186.526 24.0625 187.688V192.523C24.0625 192.664 24.0182 192.779 23.9297 192.867C23.8411 192.956 23.7266 193 23.5859 193H22.0781C21.9375 193 21.8229 192.956 21.7344 192.867C21.6458 192.773 21.6016 192.659 21.6016 192.523V192.281C20.7786 192.87 19.8281 193.161 18.75 193.156C17.6771 193.156 16.7943 192.917 16.1016 192.438ZM18.9609 189.461C18.5964 189.461 18.3073 189.549 18.0938 189.727C17.8854 189.904 17.7812 190.133 17.7812 190.414C17.7812 190.695 17.8906 190.927 18.1094 191.109C18.3281 191.292 18.638 191.383 19.0391 191.383C19.8411 191.383 20.6146 191.148 21.3594 190.68V189.461H18.9609ZM25.5078 186.805C25.5078 185.122 26.8646 184.281 29.5781 184.281C32.4323 184.281 33.8594 185.029 33.8594 186.523C33.8594 186.659 33.8151 186.773 33.7266 186.867C33.638 186.956 33.5234 187 33.3828 187H32.2188C31.8438 187 31.5286 186.844 31.2734 186.531C31.0182 186.214 30.5156 186.055 29.7656 186.055C28.7344 186.055 28.2188 186.305 28.2188 186.805C28.2188 187.039 28.4193 187.234 28.8203 187.391C29.2266 187.547 29.7188 187.685 30.2969 187.805C30.8802 187.919 31.4609 188.068 32.0391 188.25C32.6172 188.432 33.1068 188.724 33.5078 189.125C33.9141 189.521 34.1172 190.023 34.1172 190.633C34.1172 192.315 32.6849 193.156 29.8203 193.156C26.9557 193.156 25.5234 192.411 25.5234 190.922C25.5234 190.781 25.5677 190.667 25.6562 190.578C25.75 190.484 25.8672 190.438 26.0078 190.438H27.1719C27.5469 190.438 27.862 190.596 28.1172 190.914C28.3724 191.227 28.875 191.383 29.625 191.383C30.8177 191.383 31.4141 191.133 31.4141 190.633C31.4141 190.398 31.2109 190.203 30.8047 190.047C30.4036 189.891 29.9115 189.753 29.3281 189.633C28.7448 189.508 28.1641 189.357 27.5859 189.18C27.013 188.997 26.5234 188.706 26.1172 188.305C25.7109 187.904 25.5078 187.404 25.5078 186.805ZM35.0859 186.805C35.0859 185.122 36.4427 184.281 39.1562 184.281C42.0104 184.281 43.4375 185.029 43.4375 186.523C43.4375 186.659 43.3932 186.773 43.3047 186.867C43.2161 186.956 43.1016 187 42.9609 187H41.7969C41.4219 187 41.1068 186.844 40.8516 186.531C40.5964 186.214 40.0938 186.055 39.3438 186.055C38.3125 186.055 37.7969 186.305 37.7969 186.805C37.7969 187.039 37.9974 187.234 38.3984 187.391C38.8047 187.547 39.2969 187.685 39.875 187.805C40.4583 187.919 41.0391 188.068 41.6172 188.25C42.1953 188.432 42.6849 188.724 43.0859 189.125C43.4922 189.521 43.6953 190.023 43.6953 190.633C43.6953 192.315 42.263 193.156 39.3984 193.156C36.5339 193.156 35.1016 192.411 35.1016 190.922C35.1016 190.781 35.1458 190.667 35.2344 190.578C35.3281 190.484 35.4453 190.438 35.5859 190.438H36.75C37.125 190.438 37.4401 190.596 37.6953 190.914C37.9505 191.227 38.4531 191.383 39.2031 191.383C40.3958 191.383 40.9922 191.133 40.9922 190.633C40.9922 190.398 40.7891 190.203 40.3828 190.047C39.9818 189.891 39.4896 189.753 38.9062 189.633C38.3229 189.508 37.7422 189.357 37.1641 189.18C36.5911 188.997 36.1016 188.706 35.6953 188.305C35.2891 187.904 35.0859 187.404 35.0859 186.805ZM45.1484 182.805V182.539C45.1484 182.263 45.2266 182.044 45.3828 181.883C45.5443 181.721 45.7656 181.641 46.0469 181.641H47.0156C47.2917 181.641 47.5104 181.721 47.6719 181.883C47.8333 182.039 47.9141 182.258 47.9141 182.539V182.805C47.9141 183.081 47.8333 183.299 47.6719 183.461C47.5156 183.622 47.2969 183.703 47.0156 183.703H46.0469C45.7708 183.703 45.5521 183.622 45.3906 183.461C45.2292 183.299 45.1484 183.081 45.1484 182.805ZM45.1797 192.523V185.109C45.1797 184.969 45.224 184.854 45.3125 184.766C45.4062 184.677 45.5208 184.633 45.6562 184.633H47.4062C47.5469 184.633 47.6615 184.68 47.75 184.773C47.8385 184.862 47.8828 184.974 47.8828 185.109V192.523C47.8828 192.664 47.8359 192.779 47.7422 192.867C47.6536 192.956 47.5417 193 47.4062 193H45.6562C45.5156 193 45.401 192.956 45.3125 192.867C45.224 192.779 45.1797 192.664 45.1797 192.523ZM50.5703 192.031C49.7578 191.281 49.3516 190.177 49.3516 188.719C49.3516 187.255 49.7578 186.151 50.5703 185.406C51.3828 184.656 52.5495 184.281 54.0703 184.281C55.5964 184.281 56.7656 184.656 57.5781 185.406C58.3906 186.151 58.7969 187.255 58.7969 188.719C58.7969 190.177 58.3906 191.281 57.5781 192.031C56.7656 192.781 55.5964 193.156 54.0703 193.156C52.5495 193.156 51.3828 192.781 50.5703 192.031ZM52.5469 186.688C52.224 187.109 52.0625 187.784 52.0625 188.711C52.0625 189.638 52.224 190.315 52.5469 190.742C52.8698 191.169 53.3776 191.383 54.0703 191.383C54.7682 191.383 55.2786 191.169 55.6016 190.742C55.9297 190.315 56.0938 189.638 56.0938 188.711C56.0938 187.784 55.9297 187.109 55.6016 186.688C55.2786 186.266 54.7682 186.055 54.0703 186.055C53.3776 186.055 52.8698 186.266 52.5469 186.688ZM60.2422 192.523V184.922C60.2422 184.781 60.2865 184.667 60.375 184.578C60.4688 184.484 60.5833 184.438 60.7188 184.438H62.4688C62.6042 184.438 62.7161 184.484 62.8047 184.578C62.8984 184.667 62.9453 184.781 62.9453 184.922V185.414C63.8411 184.659 64.7943 184.281 65.8047 184.281C66.8203 184.281 67.6458 184.591 68.2812 185.211C68.9167 185.826 69.2344 186.768 69.2344 188.039V192.523C69.2344 192.659 69.1875 192.773 69.0938 192.867C69.0052 192.956 68.8906 193 68.75 193H67.0078C66.8724 193 66.7578 192.956 66.6641 192.867C66.5755 192.773 66.5312 192.659 66.5312 192.523V188.039C66.5312 186.794 66.0339 186.172 65.0391 186.172C64.388 186.172 63.6901 186.544 62.9453 187.289V192.523C62.9453 192.659 62.8984 192.773 62.8047 192.867C62.7161 192.956 62.6042 193 62.4688 193H60.7188C60.5833 193 60.4688 192.956 60.375 192.867C60.2865 192.773 60.2422 192.659 60.2422 192.523ZM76.7734 182.805V182.539C76.7734 182.263 76.8516 182.044 77.0078 181.883C77.1693 181.721 77.3906 181.641 77.6719 181.641H78.6406C78.9167 181.641 79.1354 181.721 79.2969 181.883C79.4583 182.039 79.5391 182.258 79.5391 182.539V182.805C79.5391 183.081 79.4583 183.299 79.2969 183.461C79.1406 183.622 78.9219 183.703 78.6406 183.703H77.6719C77.3958 183.703 77.1771 183.622 77.0156 183.461C76.8542 183.299 76.7734 183.081 76.7734 182.805ZM76.8047 192.523V185.109C76.8047 184.969 76.849 184.854 76.9375 184.766C77.0312 184.677 77.1458 184.633 77.2812 184.633H79.0312C79.1719 184.633 79.2865 184.68 79.375 184.773C79.4635 184.862 79.5078 184.974 79.5078 185.109V192.523C79.5078 192.664 79.4609 192.779 79.3672 192.867C79.2786 192.956 79.1667 193 79.0312 193H77.2812C77.1406 193 77.026 192.956 76.9375 192.867C76.849 192.779 76.8047 192.664 76.8047 192.523ZM81.4609 192.523V184.922C81.4609 184.781 81.5052 184.667 81.5938 184.578C81.6875 184.484 81.8021 184.438 81.9375 184.438H83.6875C83.8229 184.438 83.9349 184.484 84.0234 184.578C84.1172 184.667 84.1641 184.781 84.1641 184.922V185.414C85.0599 184.659 86.013 184.281 87.0234 184.281C88.0391 184.281 88.8646 184.591 89.5 185.211C90.1354 185.826 90.4531 186.768 90.4531 188.039V192.523C90.4531 192.659 90.4062 192.773 90.3125 192.867C90.224 192.956 90.1094 193 89.9688 193H88.2266C88.0911 193 87.9766 192.956 87.8828 192.867C87.7943 192.773 87.75 192.659 87.75 192.523V188.039C87.75 186.794 87.2526 186.172 86.2578 186.172C85.6068 186.172 84.9089 186.544 84.1641 187.289V192.523C84.1641 192.659 84.1172 192.773 84.0234 192.867C83.9349 192.956 83.8229 193 83.6875 193H81.9375C81.8021 193 81.6875 192.956 81.5938 192.867C81.5052 192.773 81.4609 192.659 81.4609 192.523ZM102.133 193.156C100.674 193.156 99.5391 192.781 98.7266 192.031C97.9141 191.281 97.5078 190.18 97.5078 188.727C97.5078 187.268 97.9115 186.164 98.7188 185.414C99.526 184.659 100.648 184.281 102.086 184.281C103.529 184.281 104.635 184.51 105.406 184.969C106.182 185.427 106.57 186.104 106.57 187C106.57 187.141 106.523 187.255 106.43 187.344C106.341 187.432 106.227 187.477 106.086 187.477H104.922C104.568 187.477 104.268 187.286 104.023 186.906C103.716 186.417 103.172 186.172 102.391 186.172C101.615 186.172 101.07 186.372 100.758 186.773C100.451 187.169 100.297 187.818 100.297 188.719C100.297 189.62 100.456 190.271 100.773 190.672C101.096 191.073 101.654 191.273 102.445 191.273C103.242 191.273 103.794 191.029 104.102 190.539C104.346 190.154 104.646 189.961 105 189.961H106.164C106.305 189.961 106.419 190.008 106.508 190.102C106.602 190.19 106.648 190.302 106.648 190.438C106.648 191.333 106.26 192.01 105.484 192.469C104.714 192.927 103.596 193.156 102.133 193.156ZM113.852 186.422L112.648 186.375C111.945 186.375 111.273 186.76 110.633 187.531V192.523C110.633 192.664 110.586 192.779 110.492 192.867C110.404 192.956 110.292 193 110.156 193H108.406C108.266 193 108.151 192.956 108.062 192.867C107.974 192.779 107.93 192.664 107.93 192.523V184.922C107.93 184.781 107.974 184.667 108.062 184.578C108.156 184.484 108.271 184.438 108.406 184.438H110.156C110.297 184.438 110.411 184.484 110.5 184.578C110.589 184.667 110.633 184.781 110.633 184.922V185.414C111.164 185.029 111.674 184.745 112.164 184.562C112.659 184.375 113.305 184.281 114.102 184.281C114.242 184.281 114.357 184.328 114.445 184.422C114.539 184.51 114.586 184.622 114.586 184.758V185.945C114.586 186.086 114.539 186.201 114.445 186.289C114.357 186.378 114.242 186.422 114.102 186.422H113.852ZM116.352 192.016C115.549 191.255 115.148 190.161 115.148 188.734C115.148 187.302 115.552 186.203 116.359 185.438C117.167 184.667 118.286 184.281 119.719 184.281C121.151 184.281 122.268 184.656 123.07 185.406C123.872 186.151 124.273 187.221 124.273 188.617V189.062C124.273 189.203 124.227 189.32 124.133 189.414C124.044 189.503 123.93 189.547 123.789 189.547H117.906C117.958 190.188 118.141 190.654 118.453 190.945C118.771 191.237 119.276 191.383 119.969 191.383C120.661 191.383 121.135 191.227 121.391 190.914C121.646 190.602 121.961 190.443 122.336 190.438H123.5C123.641 190.438 123.755 190.484 123.844 190.578C123.938 190.667 123.984 190.781 123.984 190.922C123.984 192.417 122.56 193.161 119.711 193.156C118.273 193.156 117.154 192.776 116.352 192.016ZM117.891 187.898H121.523C121.471 186.669 120.867 186.055 119.711 186.055C118.56 186.055 117.953 186.669 117.891 187.898ZM126.258 192.438C125.57 191.958 125.227 191.281 125.227 190.406C125.227 189.531 125.57 188.859 126.258 188.391C126.951 187.922 127.841 187.688 128.93 187.688H131.516C131.516 187.078 131.388 186.654 131.133 186.414C130.878 186.174 130.43 186.055 129.789 186.055C129.154 186.055 128.706 186.214 128.445 186.531C128.19 186.844 127.875 187 127.5 187H126.336C126.195 187 126.078 186.956 125.984 186.867C125.896 186.773 125.852 186.659 125.852 186.523C125.852 185.029 127.271 184.281 130.109 184.281C131.349 184.281 132.344 184.56 133.094 185.117C133.844 185.669 134.219 186.526 134.219 187.688V192.523C134.219 192.664 134.174 192.779 134.086 192.867C133.997 192.956 133.883 193 133.742 193H132.234C132.094 193 131.979 192.956 131.891 192.867C131.802 192.773 131.758 192.659 131.758 192.523V192.281C130.935 192.87 129.984 193.161 128.906 193.156C127.833 193.156 126.951 192.917 126.258 192.438ZM129.117 189.461C128.753 189.461 128.464 189.549 128.25 189.727C128.042 189.904 127.938 190.133 127.938 190.414C127.938 190.695 128.047 190.927 128.266 191.109C128.484 191.292 128.794 191.383 129.195 191.383C129.997 191.383 130.771 191.148 131.516 190.68V189.461H129.117ZM140.227 191.305L141.297 191.211H141.586C141.727 191.211 141.841 191.255 141.93 191.344C142.023 191.432 142.07 191.547 142.07 191.688V192.523C142.07 192.638 142.023 192.742 141.93 192.836C141.841 192.924 141.727 192.979 141.586 193C141.055 193.104 140.362 193.156 139.508 193.156C137.268 193.156 136.148 191.984 136.148 189.641V182.281C136.148 182.141 136.193 182.026 136.281 181.938C136.375 181.844 136.49 181.797 136.625 181.797H138.375C138.51 181.797 138.622 181.844 138.711 181.938C138.805 182.026 138.852 182.141 138.852 182.281V184.891H141.031C141.167 184.891 141.279 184.935 141.367 185.023C141.461 185.112 141.508 185.227 141.508 185.367V186.297C141.508 186.438 141.461 186.552 141.367 186.641C141.279 186.729 141.167 186.773 141.031 186.773H138.852V189.641C138.852 190.172 138.977 190.583 139.227 190.875C139.477 191.161 139.81 191.305 140.227 191.305ZM143.352 182.805V182.539C143.352 182.263 143.43 182.044 143.586 181.883C143.747 181.721 143.969 181.641 144.25 181.641H145.219C145.495 181.641 145.714 181.721 145.875 181.883C146.036 182.039 146.117 182.258 146.117 182.539V182.805C146.117 183.081 146.036 183.299 145.875 183.461C145.719 183.622 145.5 183.703 145.219 183.703H144.25C143.974 183.703 143.755 183.622 143.594 183.461C143.432 183.299 143.352 183.081 143.352 182.805ZM143.383 192.523V185.109C143.383 184.969 143.427 184.854 143.516 184.766C143.609 184.677 143.724 184.633 143.859 184.633H145.609C145.75 184.633 145.865 184.68 145.953 184.773C146.042 184.862 146.086 184.974 146.086 185.109V192.523C146.086 192.664 146.039 192.779 145.945 192.867C145.857 192.956 145.745 193 145.609 193H143.859C143.719 193 143.604 192.956 143.516 192.867C143.427 192.779 143.383 192.664 143.383 192.523ZM147.641 184.438H149.141C149.365 184.438 149.576 184.503 149.773 184.633C149.971 184.758 150.112 184.922 150.195 185.125L152.328 189.992L154.453 185.125C154.536 184.922 154.677 184.758 154.875 184.633C155.073 184.503 155.284 184.438 155.508 184.438H157.016C157.198 184.438 157.318 184.505 157.375 184.641C157.401 184.693 157.411 184.76 157.406 184.844C157.406 184.922 157.383 185.016 157.336 185.125L153.961 192.312C153.867 192.516 153.719 192.682 153.516 192.812C153.318 192.938 153.112 193 152.898 193H151.75C151.536 193 151.331 192.938 151.133 192.812C150.935 192.682 150.789 192.516 150.695 192.312L147.32 185.125C147.268 185.01 147.242 184.914 147.242 184.836C147.242 184.57 147.375 184.438 147.641 184.438ZM158.539 182.805V182.539C158.539 182.263 158.617 182.044 158.773 181.883C158.935 181.721 159.156 181.641 159.438 181.641H160.406C160.682 181.641 160.901 181.721 161.062 181.883C161.224 182.039 161.305 182.258 161.305 182.539V182.805C161.305 183.081 161.224 183.299 161.062 183.461C160.906 183.622 160.688 183.703 160.406 183.703H159.438C159.161 183.703 158.943 183.622 158.781 183.461C158.62 183.299 158.539 183.081 158.539 182.805ZM158.57 192.523V185.109C158.57 184.969 158.615 184.854 158.703 184.766C158.797 184.677 158.911 184.633 159.047 184.633H160.797C160.938 184.633 161.052 184.68 161.141 184.773C161.229 184.862 161.273 184.974 161.273 185.109V192.523C161.273 192.664 161.227 192.779 161.133 192.867C161.044 192.956 160.932 193 160.797 193H159.047C158.906 193 158.792 192.956 158.703 192.867C158.615 192.779 158.57 192.664 158.57 192.523ZM167.305 191.305L168.375 191.211H168.664C168.805 191.211 168.919 191.255 169.008 191.344C169.102 191.432 169.148 191.547 169.148 191.688V192.523C169.148 192.638 169.102 192.742 169.008 192.836C168.919 192.924 168.805 192.979 168.664 193C168.133 193.104 167.44 193.156 166.586 193.156C164.346 193.156 163.227 191.984 163.227 189.641V182.281C163.227 182.141 163.271 182.026 163.359 181.938C163.453 181.844 163.568 181.797 163.703 181.797H165.453C165.589 181.797 165.701 181.844 165.789 181.938C165.883 182.026 165.93 182.141 165.93 182.281V184.891H168.109C168.245 184.891 168.357 184.935 168.445 185.023C168.539 185.112 168.586 185.227 168.586 185.367V186.297C168.586 186.438 168.539 186.552 168.445 186.641C168.357 186.729 168.245 186.773 168.109 186.773H165.93V189.641C165.93 190.172 166.055 190.583 166.305 190.875C166.555 191.161 166.888 191.305 167.305 191.305ZM171.938 193.812L172.961 193.945C173.695 193.945 174.208 193.406 174.5 192.328C173.615 192.328 172.875 192.062 172.281 191.531C171.688 190.995 171.177 190.044 170.75 188.68L169.586 184.906C169.57 184.865 169.562 184.818 169.562 184.766C169.562 184.708 169.594 184.641 169.656 184.562C169.724 184.484 169.823 184.443 169.953 184.438H171.586C171.737 184.438 171.88 184.49 172.016 184.594C172.156 184.693 172.247 184.818 172.289 184.969L173.312 188.281C173.568 189.094 173.826 189.656 174.086 189.969C174.352 190.281 174.664 190.438 175.023 190.438L176.578 184.969C176.62 184.818 176.701 184.693 176.82 184.594C176.945 184.49 177.083 184.438 177.234 184.438H178.883C179.013 184.438 179.109 184.479 179.172 184.562C179.234 184.646 179.266 184.716 179.266 184.773C179.266 184.826 179.26 184.87 179.25 184.906L177.203 192.203C176.839 193.495 176.385 194.417 175.844 194.969C175.307 195.521 174.615 195.797 173.766 195.797C172.917 195.797 172.315 195.766 171.961 195.703C171.612 195.641 171.393 195.562 171.305 195.469C171.216 195.38 171.172 195.276 171.172 195.156V194.297C171.172 194.156 171.216 194.039 171.305 193.945C171.393 193.857 171.508 193.812 171.648 193.812H171.938Z" fill="#85FF72"/>
<path d="M4.96094 194.156V183.922C4.96094 183.781 5.00521 183.667 5.09375 183.578C5.1875 183.484 5.30208 183.438 5.4375 183.438H6.94531C7.08073 183.438 7.19271 183.484 7.28125 183.578C7.375 183.667 7.42188 183.781 7.42188 183.922V184.156C8.24479 183.573 9.20052 183.281 10.2891 183.281C11.3776 183.281 12.2865 183.667 13.0156 184.438C13.7448 185.203 14.1094 186.302 14.1094 187.734C14.1094 189.161 13.7318 190.255 12.9766 191.016C12.2214 191.776 11.2031 192.156 9.92188 192.156C9.26042 192.156 8.50781 192.023 7.66406 191.758V194.156C7.66406 194.297 7.61719 194.411 7.52344 194.5C7.4349 194.594 7.32292 194.641 7.1875 194.641H5.4375C5.30208 194.641 5.1875 194.594 5.09375 194.5C5.00521 194.411 4.96094 194.297 4.96094 194.156ZM7.66406 189.953C8.33594 190.167 8.90104 190.273 9.35938 190.273C10.0729 190.273 10.5781 190.07 10.875 189.664C11.1771 189.258 11.3281 188.609 11.3281 187.719C11.3281 186.828 11.1849 186.182 10.8984 185.781C10.6172 185.375 10.1927 185.172 9.625 185.172C9.0625 185.172 8.40885 185.406 7.66406 185.875V189.953ZM16.1016 191.438C15.4141 190.958 15.0703 190.281 15.0703 189.406C15.0703 188.531 15.4141 187.859 16.1016 187.391C16.7943 186.922 17.6849 186.688 18.7734 186.688H21.3594C21.3594 186.078 21.2318 185.654 20.9766 185.414C20.7214 185.174 20.2734 185.055 19.6328 185.055C18.9974 185.055 18.5495 185.214 18.2891 185.531C18.0339 185.844 17.7188 186 17.3438 186H16.1797C16.0391 186 15.9219 185.956 15.8281 185.867C15.7396 185.773 15.6953 185.659 15.6953 185.523C15.6953 184.029 17.1146 183.281 19.9531 183.281C21.1927 183.281 22.1875 183.56 22.9375 184.117C23.6875 184.669 24.0625 185.526 24.0625 186.688V191.523C24.0625 191.664 24.0182 191.779 23.9297 191.867C23.8411 191.956 23.7266 192 23.5859 192H22.0781C21.9375 192 21.8229 191.956 21.7344 191.867C21.6458 191.773 21.6016 191.659 21.6016 191.523V191.281C20.7786 191.87 19.8281 192.161 18.75 192.156C17.6771 192.156 16.7943 191.917 16.1016 191.438ZM18.9609 188.461C18.5964 188.461 18.3073 188.549 18.0938 188.727C17.8854 188.904 17.7812 189.133 17.7812 189.414C17.7812 189.695 17.8906 189.927 18.1094 190.109C18.3281 190.292 18.638 190.383 19.0391 190.383C19.8411 190.383 20.6146 190.148 21.3594 189.68V188.461H18.9609ZM25.5078 185.805C25.5078 184.122 26.8646 183.281 29.5781 183.281C32.4323 183.281 33.8594 184.029 33.8594 185.523C33.8594 185.659 33.8151 185.773 33.7266 185.867C33.638 185.956 33.5234 186 33.3828 186H32.2188C31.8438 186 31.5286 185.844 31.2734 185.531C31.0182 185.214 30.5156 185.055 29.7656 185.055C28.7344 185.055 28.2188 185.305 28.2188 185.805C28.2188 186.039 28.4193 186.234 28.8203 186.391C29.2266 186.547 29.7188 186.685 30.2969 186.805C30.8802 186.919 31.4609 187.068 32.0391 187.25C32.6172 187.432 33.1068 187.724 33.5078 188.125C33.9141 188.521 34.1172 189.023 34.1172 189.633C34.1172 191.315 32.6849 192.156 29.8203 192.156C26.9557 192.156 25.5234 191.411 25.5234 189.922C25.5234 189.781 25.5677 189.667 25.6562 189.578C25.75 189.484 25.8672 189.438 26.0078 189.438H27.1719C27.5469 189.438 27.862 189.596 28.1172 189.914C28.3724 190.227 28.875 190.383 29.625 190.383C30.8177 190.383 31.4141 190.133 31.4141 189.633C31.4141 189.398 31.2109 189.203 30.8047 189.047C30.4036 188.891 29.9115 188.753 29.3281 188.633C28.7448 188.508 28.1641 188.357 27.5859 188.18C27.013 187.997 26.5234 187.706 26.1172 187.305C25.7109 186.904 25.5078 186.404 25.5078 185.805ZM35.0859 185.805C35.0859 184.122 36.4427 183.281 39.1562 183.281C42.0104 183.281 43.4375 184.029 43.4375 185.523C43.4375 185.659 43.3932 185.773 43.3047 185.867C43.2161 185.956 43.1016 186 42.9609 186H41.7969C41.4219 186 41.1068 185.844 40.8516 185.531C40.5964 185.214 40.0938 185.055 39.3438 185.055C38.3125 185.055 37.7969 185.305 37.7969 185.805C37.7969 186.039 37.9974 186.234 38.3984 186.391C38.8047 186.547 39.2969 186.685 39.875 186.805C40.4583 186.919 41.0391 187.068 41.6172 187.25C42.1953 187.432 42.6849 187.724 43.0859 188.125C43.4922 188.521 43.6953 189.023 43.6953 189.633C43.6953 191.315 42.263 192.156 39.3984 192.156C36.5339 192.156 35.1016 191.411 35.1016 189.922C35.1016 189.781 35.1458 189.667 35.2344 189.578C35.3281 189.484 35.4453 189.438 35.5859 189.438H36.75C37.125 189.438 37.4401 189.596 37.6953 189.914C37.9505 190.227 38.4531 190.383 39.2031 190.383C40.3958 190.383 40.9922 190.133 40.9922 189.633C40.9922 189.398 40.7891 189.203 40.3828 189.047C39.9818 188.891 39.4896 188.753 38.9062 188.633C38.3229 188.508 37.7422 188.357 37.1641 188.18C36.5911 187.997 36.1016 187.706 35.6953 187.305C35.2891 186.904 35.0859 186.404 35.0859 185.805ZM45.1484 181.805V181.539C45.1484 181.263 45.2266 181.044 45.3828 180.883C45.5443 180.721 45.7656 180.641 46.0469 180.641H47.0156C47.2917 180.641 47.5104 180.721 47.6719 180.883C47.8333 181.039 47.9141 181.258 47.9141 181.539V181.805C47.9141 182.081 47.8333 182.299 47.6719 182.461C47.5156 182.622 47.2969 182.703 47.0156 182.703H46.0469C45.7708 182.703 45.5521 182.622 45.3906 182.461C45.2292 182.299 45.1484 182.081 45.1484 181.805ZM45.1797 191.523V184.109C45.1797 183.969 45.224 183.854 45.3125 183.766C45.4062 183.677 45.5208 183.633 45.6562 183.633H47.4062C47.5469 183.633 47.6615 183.68 47.75 183.773C47.8385 183.862 47.8828 183.974 47.8828 184.109V191.523C47.8828 191.664 47.8359 191.779 47.7422 191.867C47.6536 191.956 47.5417 192 47.4062 192H45.6562C45.5156 192 45.401 191.956 45.3125 191.867C45.224 191.779 45.1797 191.664 45.1797 191.523ZM50.5703 191.031C49.7578 190.281 49.3516 189.177 49.3516 187.719C49.3516 186.255 49.7578 185.151 50.5703 184.406C51.3828 183.656 52.5495 183.281 54.0703 183.281C55.5964 183.281 56.7656 183.656 57.5781 184.406C58.3906 185.151 58.7969 186.255 58.7969 187.719C58.7969 189.177 58.3906 190.281 57.5781 191.031C56.7656 191.781 55.5964 192.156 54.0703 192.156C52.5495 192.156 51.3828 191.781 50.5703 191.031ZM52.5469 185.688C52.224 186.109 52.0625 186.784 52.0625 187.711C52.0625 188.638 52.224 189.315 52.5469 189.742C52.8698 190.169 53.3776 190.383 54.0703 190.383C54.7682 190.383 55.2786 190.169 55.6016 189.742C55.9297 189.315 56.0938 188.638 56.0938 187.711C56.0938 186.784 55.9297 186.109 55.6016 185.688C55.2786 185.266 54.7682 185.055 54.0703 185.055C53.3776 185.055 52.8698 185.266 52.5469 185.688ZM60.2422 191.523V183.922C60.2422 183.781 60.2865 183.667 60.375 183.578C60.4688 183.484 60.5833 183.438 60.7188 183.438H62.4688C62.6042 183.438 62.7161 183.484 62.8047 183.578C62.8984 183.667 62.9453 183.781 62.9453 183.922V184.414C63.8411 183.659 64.7943 183.281 65.8047 183.281C66.8203 183.281 67.6458 183.591 68.2812 184.211C68.9167 184.826 69.2344 185.768 69.2344 187.039V191.523C69.2344 191.659 69.1875 191.773 69.0938 191.867C69.0052 191.956 68.8906 192 68.75 192H67.0078C66.8724 192 66.7578 191.956 66.6641 191.867C66.5755 191.773 66.5312 191.659 66.5312 191.523V187.039C66.5312 185.794 66.0339 185.172 65.0391 185.172C64.388 185.172 63.6901 185.544 62.9453 186.289V191.523C62.9453 191.659 62.8984 191.773 62.8047 191.867C62.7161 191.956 62.6042 192 62.4688 192H60.7188C60.5833 192 60.4688 191.956 60.375 191.867C60.2865 191.773 60.2422 191.659 60.2422 191.523ZM76.7734 181.805V181.539C76.7734 181.263 76.8516 181.044 77.0078 180.883C77.1693 180.721 77.3906 180.641 77.6719 180.641H78.6406C78.9167 180.641 79.1354 180.721 79.2969 180.883C79.4583 181.039 79.5391 181.258 79.5391 181.539V181.805C79.5391 182.081 79.4583 182.299 79.2969 182.461C79.1406 182.622 78.9219 182.703 78.6406 182.703H77.6719C77.3958 182.703 77.1771 182.622 77.0156 182.461C76.8542 182.299 76.7734 182.081 76.7734 181.805ZM76.8047 191.523V184.109C76.8047 183.969 76.849 183.854 76.9375 183.766C77.0312 183.677 77.1458 183.633 77.2812 183.633H79.0312C79.1719 183.633 79.2865 183.68 79.375 183.773C79.4635 183.862 79.5078 183.974 79.5078 184.109V191.523C79.5078 191.664 79.4609 191.779 79.3672 191.867C79.2786 191.956 79.1667 192 79.0312 192H77.2812C77.1406 192 77.026 191.956 76.9375 191.867C76.849 191.779 76.8047 191.664 76.8047 191.523ZM81.4609 191.523V183.922C81.4609 183.781 81.5052 183.667 81.5938 183.578C81.6875 183.484 81.8021 183.438 81.9375 183.438H83.6875C83.8229 183.438 83.9349 183.484 84.0234 183.578C84.1172 183.667 84.1641 183.781 84.1641 183.922V184.414C85.0599 183.659 86.013 183.281 87.0234 183.281C88.0391 183.281 88.8646 183.591 89.5 184.211C90.1354 184.826 90.4531 185.768 90.4531 187.039V191.523C90.4531 191.659 90.4062 191.773 90.3125 191.867C90.224 191.956 90.1094 192 89.9688 192H88.2266C88.0911 192 87.9766 191.956 87.8828 191.867C87.7943 191.773 87.75 191.659 87.75 191.523V187.039C87.75 185.794 87.2526 185.172 86.2578 185.172C85.6068 185.172 84.9089 185.544 84.1641 186.289V191.523C84.1641 191.659 84.1172 191.773 84.0234 191.867C83.9349 191.956 83.8229 192 83.6875 192H81.9375C81.8021 192 81.6875 191.956 81.5938 191.867C81.5052 191.773 81.4609 191.659 81.4609 191.523ZM102.133 192.156C100.674 192.156 99.5391 191.781 98.7266 191.031C97.9141 190.281 97.5078 189.18 97.5078 187.727C97.5078 186.268 97.9115 185.164 98.7188 184.414C99.526 183.659 100.648 183.281 102.086 183.281C103.529 183.281 104.635 183.51 105.406 183.969C106.182 184.427 106.57 185.104 106.57 186C106.57 186.141 106.523 186.255 106.43 186.344C106.341 186.432 106.227 186.477 106.086 186.477H104.922C104.568 186.477 104.268 186.286 104.023 185.906C103.716 185.417 103.172 185.172 102.391 185.172C101.615 185.172 101.07 185.372 100.758 185.773C100.451 186.169 100.297 186.818 100.297 187.719C100.297 188.62 100.456 189.271 100.773 189.672C101.096 190.073 101.654 190.273 102.445 190.273C103.242 190.273 103.794 190.029 104.102 189.539C104.346 189.154 104.646 188.961 105 188.961H106.164C106.305 188.961 106.419 189.008 106.508 189.102C106.602 189.19 106.648 189.302 106.648 189.438C106.648 190.333 106.26 191.01 105.484 191.469C104.714 191.927 103.596 192.156 102.133 192.156ZM113.852 185.422L112.648 185.375C111.945 185.375 111.273 185.76 110.633 186.531V191.523C110.633 191.664 110.586 191.779 110.492 191.867C110.404 191.956 110.292 192 110.156 192H108.406C108.266 192 108.151 191.956 108.062 191.867C107.974 191.779 107.93 191.664 107.93 191.523V183.922C107.93 183.781 107.974 183.667 108.062 183.578C108.156 183.484 108.271 183.438 108.406 183.438H110.156C110.297 183.438 110.411 183.484 110.5 183.578C110.589 183.667 110.633 183.781 110.633 183.922V184.414C111.164 184.029 111.674 183.745 112.164 183.562C112.659 183.375 113.305 183.281 114.102 183.281C114.242 183.281 114.357 183.328 114.445 183.422C114.539 183.51 114.586 183.622 114.586 183.758V184.945C114.586 185.086 114.539 185.201 114.445 185.289C114.357 185.378 114.242 185.422 114.102 185.422H113.852ZM116.352 191.016C115.549 190.255 115.148 189.161 115.148 187.734C115.148 186.302 115.552 185.203 116.359 184.438C117.167 183.667 118.286 183.281 119.719 183.281C121.151 183.281 122.268 183.656 123.07 184.406C123.872 185.151 124.273 186.221 124.273 187.617V188.062C124.273 188.203 124.227 188.32 124.133 188.414C124.044 188.503 123.93 188.547 123.789 188.547H117.906C117.958 189.188 118.141 189.654 118.453 189.945C118.771 190.237 119.276 190.383 119.969 190.383C120.661 190.383 121.135 190.227 121.391 189.914C121.646 189.602 121.961 189.443 122.336 189.438H123.5C123.641 189.438 123.755 189.484 123.844 189.578C123.938 189.667 123.984 189.781 123.984 189.922C123.984 191.417 122.56 192.161 119.711 192.156C118.273 192.156 117.154 191.776 116.352 191.016ZM117.891 186.898H121.523C121.471 185.669 120.867 185.055 119.711 185.055C118.56 185.055 117.953 185.669 117.891 186.898ZM126.258 191.438C125.57 190.958 125.227 190.281 125.227 189.406C125.227 188.531 125.57 187.859 126.258 187.391C126.951 186.922 127.841 186.688 128.93 186.688H131.516C131.516 186.078 131.388 185.654 131.133 185.414C130.878 185.174 130.43 185.055 129.789 185.055C129.154 185.055 128.706 185.214 128.445 185.531C128.19 185.844 127.875 186 127.5 186H126.336C126.195 186 126.078 185.956 125.984 185.867C125.896 185.773 125.852 185.659 125.852 185.523C125.852 184.029 127.271 183.281 130.109 183.281C131.349 183.281 132.344 183.56 133.094 184.117C133.844 184.669 134.219 185.526 134.219 186.688V191.523C134.219 191.664 134.174 191.779 134.086 191.867C133.997 191.956 133.883 192 133.742 192H132.234C132.094 192 131.979 191.956 131.891 191.867C131.802 191.773 131.758 191.659 131.758 191.523V191.281C130.935 191.87 129.984 192.161 128.906 192.156C127.833 192.156 126.951 191.917 126.258 191.438ZM129.117 188.461C128.753 188.461 128.464 188.549 128.25 188.727C128.042 188.904 127.938 189.133 127.938 189.414C127.938 189.695 128.047 189.927 128.266 190.109C128.484 190.292 128.794 190.383 129.195 190.383C129.997 190.383 130.771 190.148 131.516 189.68V188.461H129.117ZM140.227 190.305L141.297 190.211H141.586C141.727 190.211 141.841 190.255 141.93 190.344C142.023 190.432 142.07 190.547 142.07 190.688V191.523C142.07 191.638 142.023 191.742 141.93 191.836C141.841 191.924 141.727 191.979 141.586 192C141.055 192.104 140.362 192.156 139.508 192.156C137.268 192.156 136.148 190.984 136.148 188.641V181.281C136.148 181.141 136.193 181.026 136.281 180.938C136.375 180.844 136.49 180.797 136.625 180.797H138.375C138.51 180.797 138.622 180.844 138.711 180.938C138.805 181.026 138.852 181.141 138.852 181.281V183.891H141.031C141.167 183.891 141.279 183.935 141.367 184.023C141.461 184.112 141.508 184.227 141.508 184.367V185.297C141.508 185.438 141.461 185.552 141.367 185.641C141.279 185.729 141.167 185.773 141.031 185.773H138.852V188.641C138.852 189.172 138.977 189.583 139.227 189.875C139.477 190.161 139.81 190.305 140.227 190.305ZM143.352 181.805V181.539C143.352 181.263 143.43 181.044 143.586 180.883C143.747 180.721 143.969 180.641 144.25 180.641H145.219C145.495 180.641 145.714 180.721 145.875 180.883C146.036 181.039 146.117 181.258 146.117 181.539V181.805C146.117 182.081 146.036 182.299 145.875 182.461C145.719 182.622 145.5 182.703 145.219 182.703H144.25C143.974 182.703 143.755 182.622 143.594 182.461C143.432 182.299 143.352 182.081 143.352 181.805ZM143.383 191.523V184.109C143.383 183.969 143.427 183.854 143.516 183.766C143.609 183.677 143.724 183.633 143.859 183.633H145.609C145.75 183.633 145.865 183.68 145.953 183.773C146.042 183.862 146.086 183.974 146.086 184.109V191.523C146.086 191.664 146.039 191.779 145.945 191.867C145.857 191.956 145.745 192 145.609 192H143.859C143.719 192 143.604 191.956 143.516 191.867C143.427 191.779 143.383 191.664 143.383 191.523ZM147.641 183.438H149.141C149.365 183.438 149.576 183.503 149.773 183.633C149.971 183.758 150.112 183.922 150.195 184.125L152.328 188.992L154.453 184.125C154.536 183.922 154.677 183.758 154.875 183.633C155.073 183.503 155.284 183.438 155.508 183.438H157.016C157.198 183.438 157.318 183.505 157.375 183.641C157.401 183.693 157.411 183.76 157.406 183.844C157.406 183.922 157.383 184.016 157.336 184.125L153.961 191.312C153.867 191.516 153.719 191.682 153.516 191.812C153.318 191.938 153.112 192 152.898 192H151.75C151.536 192 151.331 191.938 151.133 191.812C150.935 191.682 150.789 191.516 150.695 191.312L147.32 184.125C147.268 184.01 147.242 183.914 147.242 183.836C147.242 183.57 147.375 183.438 147.641 183.438ZM158.539 181.805V181.539C158.539 181.263 158.617 181.044 158.773 180.883C158.935 180.721 159.156 180.641 159.438 180.641H160.406C160.682 180.641 160.901 180.721 161.062 180.883C161.224 181.039 161.305 181.258 161.305 181.539V181.805C161.305 182.081 161.224 182.299 161.062 182.461C160.906 182.622 160.688 182.703 160.406 182.703H159.438C159.161 182.703 158.943 182.622 158.781 182.461C158.62 182.299 158.539 182.081 158.539 181.805ZM158.57 191.523V184.109C158.57 183.969 158.615 183.854 158.703 183.766C158.797 183.677 158.911 183.633 159.047 183.633H160.797C160.938 183.633 161.052 183.68 161.141 183.773C161.229 183.862 161.273 183.974 161.273 184.109V191.523C161.273 191.664 161.227 191.779 161.133 191.867C161.044 191.956 160.932 192 160.797 192H159.047C158.906 192 158.792 191.956 158.703 191.867C158.615 191.779 158.57 191.664 158.57 191.523ZM167.305 190.305L168.375 190.211H168.664C168.805 190.211 168.919 190.255 169.008 190.344C169.102 190.432 169.148 190.547 169.148 190.688V191.523C169.148 191.638 169.102 191.742 169.008 191.836C168.919 191.924 168.805 191.979 168.664 192C168.133 192.104 167.44 192.156 166.586 192.156C164.346 192.156 163.227 190.984 163.227 188.641V181.281C163.227 181.141 163.271 181.026 163.359 180.938C163.453 180.844 163.568 180.797 163.703 180.797H165.453C165.589 180.797 165.701 180.844 165.789 180.938C165.883 181.026 165.93 181.141 165.93 181.281V183.891H168.109C168.245 183.891 168.357 183.935 168.445 184.023C168.539 184.112 168.586 184.227 168.586 184.367V185.297C168.586 185.438 168.539 185.552 168.445 185.641C168.357 185.729 168.245 185.773 168.109 185.773H165.93V188.641C165.93 189.172 166.055 189.583 166.305 189.875C166.555 190.161 166.888 190.305 167.305 190.305ZM171.938 192.812L172.961 192.945C173.695 192.945 174.208 192.406 174.5 191.328C173.615 191.328 172.875 191.062 172.281 190.531C171.688 189.995 171.177 189.044 170.75 187.68L169.586 183.906C169.57 183.865 169.562 183.818 169.562 183.766C169.562 183.708 169.594 183.641 169.656 183.562C169.724 183.484 169.823 183.443 169.953 183.438H171.586C171.737 183.438 171.88 183.49 172.016 183.594C172.156 183.693 172.247 183.818 172.289 183.969L173.312 187.281C173.568 188.094 173.826 188.656 174.086 188.969C174.352 189.281 174.664 189.438 175.023 189.438L176.578 183.969C176.62 183.818 176.701 183.693 176.82 183.594C176.945 183.49 177.083 183.438 177.234 183.438H178.883C179.013 183.438 179.109 183.479 179.172 183.562C179.234 183.646 179.266 183.716 179.266 183.773C179.266 183.826 179.26 183.87 179.25 183.906L177.203 191.203C176.839 192.495 176.385 193.417 175.844 193.969C175.307 194.521 174.615 194.797 173.766 194.797C172.917 194.797 172.315 194.766 171.961 194.703C171.612 194.641 171.393 194.562 171.305 194.469C171.216 194.38 171.172 194.276 171.172 194.156V193.297C171.172 193.156 171.216 193.039 171.305 192.945C171.393 192.857 171.508 192.812 171.648 192.812H171.938Z" fill="black"/>
<g filter="url(#filter0_d_897:57)">
<circle cx="67.2589" cy="54.1472" r="16.1468" fill="#C4C4C4"/>
</g>
<g filter="url(#filter1_d_897:57)">
<circle cx="73" cy="56" r="19" fill="#C4C4C4"/>
</g>
<g filter="url(#filter2_d_897:57)">
<circle cx="76.5994" cy="79.3605" r="16.1468" fill="#C4C4C4"/>
</g>
<g filter="url(#filter3_d_897:57)">
<circle cx="83.2541" cy="90.3622" r="16.1468" fill="#C4C4C4"/>
</g>
<g filter="url(#filter4_d_897:57)">
<circle cx="97.6033" cy="95.7425" r="16.1468" fill="#C4C4C4"/>
</g>
<g filter="url(#filter5_d_897:57)">
<circle cx="106.569" cy="79.6019" r="16.1468" fill="#C4C4C4"/>
</g>
<g filter="url(#filter6_d_897:57)">
<circle cx="111.2" cy="67.8271" r="16.1468" fill="#C4C4C4"/>
</g>
<g filter="url(#filter7_d_897:57)">
<circle cx="118.121" cy="44.76" r="16.1468" fill="#C4C4C4"/>
</g>
<g filter="url(#filter8_d_897:57)">
<circle cx="115.147" cy="46.1468" r="16.1468" fill="#C4C4C4"/>
</g>
<g filter="url(#filter9_d_897:57)">
<circle cx="105.636" cy="49.0302" r="16.1468" fill="#C4C4C4"/>
</g>
<g filter="url(#filter10_d_897:57)">
<circle cx="117.147" cy="76.1468" r="16.1468" fill="#C4C4C4"/>
</g>
<g filter="url(#filter11_d_897:57)">
<circle cx="89.1468" cy="47.1468" r="16.1468" fill="#C4C4C4"/>
</g>
<path d="M73.7545 31.484L84.275 37.5581C87.8332 39.6124 90.025 43.4088 90.025 47.5174V59.6655C90.025 63.774 87.8331 67.5705 84.275 69.6248L73.7545 75.6988C70.1964 77.7531 65.8126 77.7531 62.2545 75.6988L51.7339 69.6247C48.1758 67.5705 45.9839 63.774 45.9839 59.6655V47.5174C45.9839 43.4088 48.1758 39.6124 51.7339 37.5581L62.2545 31.484C65.8126 29.4298 70.1964 29.4298 73.7545 31.484Z" fill="black" stroke="black"/>
<path d="M92.4814 30.9067L105.002 38.1354C107.941 39.8324 109.752 42.9687 109.752 46.3627V60.8202C109.752 64.2142 107.941 67.3504 105.002 69.0474L92.4814 76.2761C89.5421 77.9732 85.9207 77.9732 82.9814 76.2761L70.4609 69.0474C67.5216 67.3504 65.7109 64.2142 65.7109 60.8202V46.3627C65.7109 42.9686 67.5216 39.8324 70.4609 38.1354L82.9814 30.9067C85.9207 29.2097 89.5421 29.2097 92.4814 30.9067Z" fill="black" stroke="black"/>
<path d="M79.9278 47.0473L92.4484 54.2761C95.3877 55.9731 97.1984 59.1093 97.1984 62.5033V76.9608C97.1984 80.3548 95.3877 83.491 92.4484 85.188L79.9278 92.4168C76.9885 94.1138 73.3671 94.1138 70.4278 92.4168L57.9073 85.188C54.968 83.491 53.1573 80.3548 53.1573 76.9608V62.5033C53.1573 59.1093 54.968 55.9731 57.9073 54.2761L70.4278 47.0473C73.3671 45.3503 76.9885 45.3503 79.9278 47.0473Z" fill="black" stroke="black"/>
<path d="M121.087 52.6686L131.479 63.0604C133.626 65.2077 134.465 68.3375 133.679 71.2708L129.875 85.4662C129.089 88.3995 126.798 90.6906 123.865 91.4766L109.669 95.2803C106.736 96.0662 103.606 95.2276 101.459 93.0803L91.0672 82.6885C88.9199 80.5412 88.0813 77.4114 88.8673 74.4782L92.6709 60.2827C93.4569 57.3494 95.7481 55.0583 98.6813 54.2723L112.877 50.4687C115.81 49.6827 118.94 50.5213 121.087 52.6686Z" fill="black" stroke="black"/>
<path d="M120.677 27.0311L129.538 32.1471C132.168 33.6654 133.788 36.4715 133.788 39.5083V49.7402C133.788 52.777 132.168 55.5831 129.538 57.1014L120.677 62.2174C118.047 63.7358 114.807 63.7358 112.177 62.2174L103.316 57.1014C100.686 55.5831 99.0657 52.777 99.0657 49.7402V39.5083C99.0657 36.4715 100.686 33.6654 103.316 32.1471L112.177 27.0311C114.807 25.5127 118.047 25.5127 120.677 27.0311Z" fill="black" stroke="black"/>
<path d="M106.027 68.9151L113.68 77.696C117.083 81.6014 118.145 87.0258 116.464 91.9261L112.686 102.944C111.006 107.844 106.839 111.476 101.755 112.47L90.324 114.707C85.2401 115.702 80.0116 113.909 76.608 110.004L68.9556 101.223C65.552 97.3175 64.4905 91.893 66.1709 86.9928L69.9491 75.9751C71.6295 71.0749 75.7965 67.4433 80.8804 66.4485L92.3111 64.2117C97.395 63.2168 102.623 65.0098 106.027 68.9151Z" fill="black" stroke="black"/>
<circle cx="69.0214" cy="53.351" r="18.9677" stroke="#211929" stroke-width="3"/>
<circle cx="92.0473" cy="86.6111" r="21.5261" stroke="#211929" stroke-width="3"/>
<circle cx="88.5" cy="54.5" r="20" stroke="#211929" stroke-width="3"/>
<circle cx="115.074" cy="45.6756" r="13.8508" stroke="#211929" stroke-width="3"/>
<circle cx="112.515" cy="73.8188" r="16.4092" stroke="#211929" stroke-width="3"/>
<circle cx="74.1383" cy="71.2603" r="18.9677" stroke="#211929" stroke-width="3"/>
<defs>
<filter id="filter0_d_897:57" x="31.1121" y="18.0004" width="72.2936" height="72.2936" filterUnits="userSpaceOnUse" color-interpolation-filters="sRGB">
<feFlood flood-opacity="0" result="BackgroundImageFix"/>
<feColorMatrix in="SourceAlpha" type="matrix" values="0 0 0 0 0 0 0 0 0 0 0 0 0 0 0 0 0 0 127 0" result="hardAlpha"/>
<feOffset/>
<feGaussianBlur stdDeviation="10"/>
<feComposite in2="hardAlpha" operator="out"/>
<feColorMatrix type="matrix" values="0 0 0 0 1 0 0 0 0 0.233333 0 0 0 0 0.233333 0 0 0 1 0"/>
<feBlend mode="normal" in2="BackgroundImageFix" result="effect1_dropShadow_897:57"/>
<feBlend mode="normal" in="SourceGraphic" in2="effect1_dropShadow_897:57" result="shape"/>
</filter>
<filter id="filter1_d_897:57" x="24" y="7" width="98" height="98" filterUnits="userSpaceOnUse" color-interpolation-filters="sRGB">
<feFlood flood-opacity="0" result="BackgroundImageFix"/>
<feColorMatrix in="SourceAlpha" type="matrix" values="0 0 0 0 0 0 0 0 0 0 0 0 0 0 0 0 0 0 127 0" result="hardAlpha"/>
<feOffset/>
<feGaussianBlur stdDeviation="15"/>
<feComposite in2="hardAlpha" operator="out"/>
<feColorMatrix type="matrix" values="0 0 0 0 1 0 0 0 0 0.441667 0 0 0 0 0.441667 0 0 0 1 0"/>
<feBlend mode="normal" in2="BackgroundImageFix" result="effect1_dropShadow_897:57"/>
<feBlend mode="normal" in="SourceGraphic" in2="effect1_dropShadow_897:57" result="shape"/>
</filter>
<filter id="filter2_d_897:57" x="40.4526" y="43.2137" width="72.2936" height="72.2936" filterUnits="userSpaceOnUse" color-interpolation-filters="sRGB">
<feFlood flood-opacity="0" result="BackgroundImageFix"/>
<feColorMatrix in="SourceAlpha" type="matrix" values="0 0 0 0 0 0 0 0 0 0 0 0 0 0 0 0 0 0 127 0" result="hardAlpha"/>
<feOffset/>
<feGaussianBlur stdDeviation="10"/>
<feComposite in2="hardAlpha" operator="out"/>
<feColorMatrix type="matrix" values="0 0 0 0 1 0 0 0 0 0.4 0 0 0 0 0.796 0 0 0 1 0"/>
<feBlend mode="normal" in2="BackgroundImageFix" result="effect1_dropShadow_897:57"/>
<feBlend mode="normal" in="SourceGraphic" in2="effect1_dropShadow_897:57" result="shape"/>
</filter>
<filter id="filter3_d_897:57" x="47.1073" y="57.2154" width="72.2936" height="72.2936" filterUnits="userSpaceOnUse" color-interpolation-filters="sRGB">
<feFlood flood-opacity="0" result="BackgroundImageFix"/>
<feColorMatrix in="SourceAlpha" type="matrix" values="0 0 0 0 0 0 0 0 0 0 0 0 0 0 0 0 0 0 127 0" result="hardAlpha"/>
<feOffset dy="3"/>
<feGaussianBlur stdDeviation="10"/>
<feComposite in2="hardAlpha" operator="out"/>
<feColorMatrix type="matrix" values="0 0 0 0 0.699 0 0 0 0 0.4625 0 0 0 0 1 0 0 0 1 0"/>
<feBlend mode="normal" in2="BackgroundImageFix" result="effect1_dropShadow_897:57"/>
<feBlend mode="normal" in="SourceGraphic" in2="effect1_dropShadow_897:57" result="shape"/>
</filter>
<filter id="filter4_d_897:57" x="51.4565" y="52.5957" width="92.2936" height="92.2936" filterUnits="userSpaceOnUse" color-interpolation-filters="sRGB">
<feFlood flood-opacity="0" result="BackgroundImageFix"/>
<feColorMatrix in="SourceAlpha" type="matrix" values="0 0 0 0 0 0 0 0 0 0 0 0 0 0 0 0 0 0 127 0" result="hardAlpha"/>
<feOffset dy="3"/>
<feGaussianBlur stdDeviation="15"/>
<feComposite in2="hardAlpha" operator="out"/>
<feColorMatrix type="matrix" values="0 0 0 0 0.0799999 0 0 0 0 0 0 0 0 0 1 0 0 0 1 0"/>
<feBlend mode="normal" in2="BackgroundImageFix" result="effect1_dropShadow_897:57"/>
<feBlend mode="normal" in="SourceGraphic" in2="effect1_dropShadow_897:57" result="shape"/>
</filter>
<filter id="filter5_d_897:57" x="60.4224" y="36.455" width="92.2936" height="92.2936" filterUnits="userSpaceOnUse" color-interpolation-filters="sRGB">
<feFlood flood-opacity="0" result="BackgroundImageFix"/>
<feColorMatrix in="SourceAlpha" type="matrix" values="0 0 0 0 0 0 0 0 0 0 0 0 0 0 0 0 0 0 127 0" result="hardAlpha"/>
<feOffset dy="3"/>
<feGaussianBlur stdDeviation="15"/>
<feComposite in2="hardAlpha" operator="out"/>
<feColorMatrix type="matrix" values="0 0 0 0 0 0 0 0 0 0.4 0 0 0 0 1 0 0 0 0.21 0"/>
<feBlend mode="normal" in2="BackgroundImageFix" result="effect1_dropShadow_897:57"/>
<feBlend mode="normal" in="SourceGraphic" in2="effect1_dropShadow_897:57" result="shape"/>
</filter>
<filter id="filter6_d_897:57" x="85.0532" y="44.6803" width="52.2936" height="52.2936" filterUnits="userSpaceOnUse" color-interpolation-filters="sRGB">
<feFlood flood-opacity="0" result="BackgroundImageFix"/>
<feColorMatrix in="SourceAlpha" type="matrix" values="0 0 0 0 0 0 0 0 0 0 0 0 0 0 0 0 0 0 127 0" result="hardAlpha"/>
<feOffset dy="3"/>
<feGaussianBlur stdDeviation="5"/>
<feComposite in2="hardAlpha" operator="out"/>
<feColorMatrix type="matrix" values="0 0 0 0 0 0 0 0 0 1 0 0 0 0 0.0999999 0 0 0 1 0"/>
<feBlend mode="normal" in2="BackgroundImageFix" result="effect1_dropShadow_897:57"/>
<feBlend mode="normal" in="SourceGraphic" in2="effect1_dropShadow_897:57" result="shape"/>
</filter>
<filter id="filter7_d_897:57" x="81.9739" y="8.61317" width="72.2936" height="72.2936" filterUnits="userSpaceOnUse" color-interpolation-filters="sRGB">
<feFlood flood-opacity="0" result="BackgroundImageFix"/>
<feColorMatrix in="SourceAlpha" type="matrix" values="0 0 0 0 0 0 0 0 0 0 0 0 0 0 0 0 0 0 127 0" result="hardAlpha"/>
<feOffset/>
<feGaussianBlur stdDeviation="10"/>
<feComposite in2="hardAlpha" operator="out"/>
<feColorMatrix type="matrix" values="0 0 0 0 0.92 0 0 0 0 1 0 0 0 0 0 0 0 0 0.8 0"/>
<feBlend mode="normal" in2="BackgroundImageFix" result="effect1_dropShadow_897:57"/>
<feBlend mode="normal" in="SourceGraphic" in2="effect1_dropShadow_897:57" result="shape"/>
</filter>
<filter id="filter8_d_897:57" x="69" y="1.52588e-05" width="92.2936" height="92.2936" filterUnits="userSpaceOnUse" color-interpolation-filters="sRGB">
<feFlood flood-opacity="0" result="BackgroundImageFix"/>
<feColorMatrix in="SourceAlpha" type="matrix" values="0 0 0 0 0 0 0 0 0 0 0 0 0 0 0 0 0 0 127 0" result="hardAlpha"/>
<feOffset/>
<feGaussianBlur stdDeviation="15"/>
<feComposite in2="hardAlpha" operator="out"/>
<feColorMatrix type="matrix" values="0 0 0 0 0.92 0 0 0 0 1 0 0 0 0 0 0 0 0 0.2 0"/>
<feBlend mode="normal" in2="BackgroundImageFix" result="effect1_dropShadow_897:57"/>
<feBlend mode="normal" in="SourceGraphic" in2="effect1_dropShadow_897:57" result="shape"/>
</filter>
<filter id="filter9_d_897:57" x="79.4891" y="22.8834" width="52.2936" height="52.2936" filterUnits="userSpaceOnUse" color-interpolation-filters="sRGB">
<feFlood flood-opacity="0" result="BackgroundImageFix"/>
<feColorMatrix in="SourceAlpha" type="matrix" values="0 0 0 0 0 0 0 0 0 0 0 0 0 0 0 0 0 0 127 0" result="hardAlpha"/>
<feOffset/>
<feGaussianBlur stdDeviation="5"/>
<feComposite in2="hardAlpha" operator="out"/>
<feColorMatrix type="matrix" values="0 0 0 0 0.92 0 0 0 0 1 0 0 0 0 0 0 0 0 0.5 0"/>
<feBlend mode="normal" in2="BackgroundImageFix" result="effect1_dropShadow_897:57"/>
<feBlend mode="normal" in="SourceGraphic" in2="effect1_dropShadow_897:57" result="shape"/>
</filter>
<filter id="filter10_d_897:57" x="71" y="30" width="92.2936" height="92.2936" filterUnits="userSpaceOnUse" color-interpolation-filters="sRGB">
<feFlood flood-opacity="0" result="BackgroundImageFix"/>
<feColorMatrix in="SourceAlpha" type="matrix" values="0 0 0 0 0 0 0 0 0 0 0 0 0 0 0 0 0 0 127 0" result="hardAlpha"/>
<feOffset/>
<feGaussianBlur stdDeviation="15"/>
<feComposite in2="hardAlpha" operator="out"/>
<feColorMatrix type="matrix" values="0 0 0 0 0 0 0 0 0 0.46 0 0 0 0 1 0 0 0 1 0"/>
<feBlend mode="normal" in2="BackgroundImageFix" result="effect1_dropShadow_897:57"/>
<feBlend mode="normal" in="SourceGraphic" in2="effect1_dropShadow_897:57" result="shape"/>
</filter>
<filter id="filter11_d_897:57" x="43" y="1" width="92.2936" height="92.2936" filterUnits="userSpaceOnUse" color-interpolation-filters="sRGB">
<feFlood flood-opacity="0" result="BackgroundImageFix"/>
<feColorMatrix in="SourceAlpha" type="matrix" values="0 0 0 0 0 0 0 0 0 0 0 0 0 0 0 0 0 0 127 0" result="hardAlpha"/>
<feOffset/>
<feGaussianBlur stdDeviation="15"/>
<feComposite in2="hardAlpha" operator="out"/>
<feColorMatrix type="matrix" values="0 0 0 0 0.92 0 0 0 0 1 0 0 0 0 0 0 0 0 1 0"/>
<feBlend mode="normal" in2="BackgroundImageFix" result="effect1_dropShadow_897:57"/>
<feBlend mode="normal" in="SourceGraphic" in2="effect1_dropShadow_897:57" result="shape"/>
</filter>
</defs>
</svg>
