<svg width="101" height="45" viewBox="0 0 101 45" fill="none" xmlns="http://www.w3.org/2000/svg">
<path d="M7.518 33.446H10.458C12.138 33.446 12.978 32.62 12.978 30.968V21.014C12.978 19.418 12.124 18.62 10.416 18.62H7.56C5.88 18.62 5.04 19.418 5.04 21.014V31.052C5.04 32.648 5.866 33.446 7.518 33.446ZM15.918 32.144C15.918 34.048 14.784 35 12.516 35H5.502C3.234 35 2.1 34.048 2.1 32.144V19.922C2.1 17.962 3.234 16.982 5.502 16.982H12.474C14.77 16.982 15.918 17.962 15.918 19.922V32.144ZM21.0308 31.556L28.0028 20.972C28.6188 20.216 28.9268 19.628 28.9268 19.208C28.9268 18.816 28.6328 18.62 28.0448 18.62H21.2828C20.1068 18.62 19.5188 18.34 19.5188 17.78C19.5188 17.248 20.0508 16.982 21.1148 16.982H30.9848C32.5808 16.982 33.3788 17.332 33.3788 18.032V18.074C33.3788 18.55 32.9728 19.292 32.1608 20.3L24.8948 31.052C24.1948 31.892 23.8448 32.494 23.8448 32.858C23.8448 33.222 24.1668 33.404 24.8108 33.404H31.5728C32.7768 33.404 33.3788 33.67 33.3788 34.202C33.3788 34.734 32.8468 35 31.7828 35H21.9548C20.3308 35 19.5188 34.664 19.5188 33.992V33.95C19.5188 33.838 19.6308 33.586 19.8548 33.194C20.1068 32.774 20.4988 32.228 21.0308 31.556ZM47.9614 33.026V28.616C47.9614 27.16 47.1214 26.432 45.4414 26.432H42.5854C40.9054 26.432 40.0654 27.16 40.0654 28.616L40.0234 33.026C40.0234 34.426 39.5334 35.126 38.5534 35.126C37.5734 35.126 37.0834 34.482 37.0834 33.194V18.83C37.0834 17.514 37.5734 16.856 38.5534 16.856C39.5614 16.856 40.0654 17.556 40.0654 18.956V22.61C40.0654 24.094 40.9054 24.836 42.5854 24.836H45.5254C47.1494 24.836 47.9614 24.094 47.9614 22.61V18.956C47.9614 17.556 48.4514 16.856 49.4314 16.856C50.4394 16.856 50.9434 17.514 50.9434 18.83V33.194C50.9434 34.482 50.4394 35.126 49.4314 35.126C48.4514 35.126 47.9614 34.426 47.9614 33.026ZM56.9802 35.084C56.0282 35.084 55.5522 34.398 55.5522 33.026L55.5102 18.704C55.5102 17.388 55.9862 16.73 56.9382 16.73C57.9182 16.73 58.4082 17.402 58.4082 18.746L58.4502 33.026C58.4502 34.398 57.9602 35.084 56.9802 35.084ZM72.7942 30.128C73.1582 30.94 73.4382 31.346 73.6342 31.346C73.7742 31.346 73.8442 31.094 73.8442 30.59L73.8862 19.376C73.8862 17.696 74.3762 16.856 75.3562 16.856C76.3642 16.856 76.8682 17.542 76.8682 18.914L76.8262 32.186C76.8262 34.202 75.9022 35.21 74.0542 35.21C73.1862 35.21 72.4582 34.552 71.8702 33.236L66.9142 21.938C66.5502 21.406 66.3122 21.14 66.2002 21.14C66.0322 21.14 65.9482 21.476 65.9482 22.148V32.9C65.9482 34.412 65.4582 35.168 64.4782 35.168C63.4702 35.168 62.9662 34.496 62.9662 33.152L63.0082 19.838C63.0082 17.794 63.9182 16.772 65.7382 16.772C66.4382 16.772 67.1662 17.458 67.9222 18.83L72.7942 30.128ZM89.247 18.62H86.391C84.711 18.62 83.871 19.502 83.871 21.266V22.862C83.871 24.542 84.697 25.382 86.349 25.382H89.331C90.983 25.382 91.809 24.346 91.809 22.274V20.72C91.809 19.32 90.955 18.62 89.247 18.62ZM91.809 32.732V29.036C91.809 27.664 90.955 26.978 89.247 26.978H86.391C84.711 26.978 83.871 27.664 83.871 29.036V32.774C83.871 34.23 83.381 34.958 82.401 34.958C81.421 34.958 80.931 34.3 80.931 32.984V20.006C80.931 17.99 81.953 16.982 83.997 16.982H91.263C93.587 16.982 94.749 17.99 94.749 20.006V32.942C94.749 34.286 94.259 34.958 93.279 34.958C92.299 34.958 91.809 34.216 91.809 32.732Z" fill="#24FF00"/>
<path d="M8.30091 33.1448H11.1709C12.8109 33.1448 13.6309 32.3384 13.6309 30.7258V21.0088C13.6309 19.4508 12.7972 18.6718 11.1299 18.6718H8.34191C6.70191 18.6718 5.88191 19.4508 5.88191 21.0088V30.8078C5.88191 32.3658 6.68825 33.1448 8.30091 33.1448ZM16.5009 31.8738C16.5009 33.7324 15.3939 34.6618 13.1799 34.6618H6.33291C4.11891 34.6618 3.01191 33.7324 3.01191 31.8738V19.9428C3.01191 18.0294 4.11891 17.0728 6.33291 17.0728H13.1389C15.3802 17.0728 16.5009 18.0294 16.5009 19.9428V31.8738ZM21.492 31.2998L28.298 20.9678C28.8994 20.2298 29.2 19.6558 29.2 19.2458C29.2 18.8631 28.913 18.6718 28.339 18.6718H21.738C20.59 18.6718 20.016 18.3984 20.016 17.8518C20.016 17.3324 20.5354 17.0728 21.574 17.0728H31.209C32.767 17.0728 33.546 17.4144 33.546 18.0978V18.1388C33.546 18.6034 33.1497 19.3278 32.357 20.3118L25.264 30.8078C24.5807 31.6278 24.239 32.2154 24.239 32.5708C24.239 32.9261 24.5534 33.1038 25.182 33.1038H31.783C32.9584 33.1038 33.546 33.3634 33.546 33.8828C33.546 34.4021 33.0267 34.6618 31.988 34.6618H22.394C20.8087 34.6618 20.016 34.3338 20.016 33.6778V33.6368C20.016 33.5274 20.1254 33.2814 20.344 32.8988C20.59 32.4888 20.9727 31.9558 21.492 31.2998ZM47.7814 32.7348V28.4298C47.7814 27.0084 46.9614 26.2978 45.3214 26.2978H42.5334C40.8934 26.2978 40.0734 27.0084 40.0734 28.4298L40.0324 32.7348C40.0324 34.1014 39.554 34.7848 38.5974 34.7848C37.6407 34.7848 37.1624 34.1561 37.1624 32.8988V18.8768C37.1624 17.5921 37.6407 16.9498 38.5974 16.9498C39.5814 16.9498 40.0734 17.6331 40.0734 18.9998V22.5668C40.0734 24.0154 40.8934 24.7398 42.5334 24.7398H45.4034C46.9887 24.7398 47.7814 24.0154 47.7814 22.5668V18.9998C47.7814 17.6331 48.2597 16.9498 49.2164 16.9498C50.2004 16.9498 50.6924 17.5921 50.6924 18.8768V32.8988C50.6924 34.1561 50.2004 34.7848 49.2164 34.7848C48.2597 34.7848 47.7814 34.1014 47.7814 32.7348ZM56.5855 34.7438C55.6561 34.7438 55.1915 34.0741 55.1915 32.7348L55.1505 18.7538C55.1505 17.4691 55.6151 16.8268 56.5445 16.8268C57.5011 16.8268 57.9795 17.4828 57.9795 18.7948L58.0205 32.7348C58.0205 34.0741 57.5421 34.7438 56.5855 34.7438ZM72.0229 29.9058C72.3783 30.6984 72.6516 31.0948 72.8429 31.0948C72.9796 31.0948 73.0479 30.8488 73.0479 30.3568L73.0889 19.4098C73.0889 17.7698 73.5673 16.9498 74.5239 16.9498C75.5079 16.9498 75.9999 17.6194 75.9999 18.9588L75.9589 31.9148C75.9589 33.8828 75.0569 34.8668 73.2529 34.8668C72.4056 34.8668 71.6949 34.2244 71.1209 32.9398L66.2829 21.9108C65.9276 21.3914 65.6953 21.1318 65.5859 21.1318C65.4219 21.1318 65.3399 21.4598 65.3399 22.1158V32.6118C65.3399 34.0878 64.8616 34.8258 63.9049 34.8258C62.9209 34.8258 62.4289 34.1698 62.4289 32.8578L62.4699 19.8608C62.4699 17.8654 63.3583 16.8678 65.1349 16.8678C65.8183 16.8678 66.5289 17.5374 67.2669 18.8768L72.0229 29.9058ZM88.084 18.6718H85.296C83.656 18.6718 82.836 19.5328 82.836 21.2548V22.8128C82.836 24.4528 83.6424 25.2728 85.255 25.2728H88.166C89.7787 25.2728 90.585 24.2614 90.585 22.2388V20.7218C90.585 19.3551 89.7514 18.6718 88.084 18.6718ZM90.585 32.4478V28.8398C90.585 27.5004 89.7514 26.8308 88.084 26.8308H85.296C83.656 26.8308 82.836 27.5004 82.836 28.8398V32.4888C82.836 33.9101 82.3577 34.6208 81.401 34.6208C80.4444 34.6208 79.966 33.9784 79.966 32.6938V20.0248C79.966 18.0568 80.9637 17.0728 82.959 17.0728H90.052C92.3207 17.0728 93.455 18.0568 93.455 20.0248V32.6528C93.455 33.9648 92.9767 34.6208 92.02 34.6208C91.0634 34.6208 90.585 33.8964 90.585 32.4478Z" fill="black"/>
</svg>
