<svg width="25" height="28" viewBox="0 0 25 28" fill="none" xmlns="http://www.w3.org/2000/svg">
<rect width="25" height="27.2727" fill="black"/>
<line x1="2.27246" y1="5.81818" x2="22.727" y2="5.81818" stroke="#ADFF00" stroke-width="2"/>
<line x1="2.27246" y1="19.4545" x2="22.727" y2="19.4545" stroke="#ADFF00" stroke-width="2"/>
<path d="M6.2251 13.2432H5.57568V15H4.37598V10.0234H6.33447C6.92464 10.0234 7.38607 10.1545 7.71875 10.4165C8.05143 10.6785 8.21777 11.0488 8.21777 11.5273C8.21777 11.8737 8.14714 12.1608 8.00586 12.3887C7.86686 12.6165 7.64811 12.8011 7.34961 12.9424L8.38867 14.9487V15H7.10352L6.2251 13.2432ZM5.57568 12.3169H6.33447C6.56234 12.3169 6.73324 12.2576 6.84717 12.1392C6.96338 12.0184 7.02148 11.8509 7.02148 11.6367C7.02148 11.4225 6.96338 11.255 6.84717 11.1343C6.73096 11.0112 6.56006 10.9497 6.33447 10.9497H5.57568V12.3169ZM13.772 12.8911H11.8853V14.0771H14.1138V15H10.6855V10.0234H14.1206V10.9497H11.8853V11.999H13.772V12.8911ZM20.4199 14.3848C20.2354 14.5898 19.9653 14.755 19.6099 14.8804C19.2544 15.0057 18.8647 15.0684 18.4409 15.0684C17.7892 15.0684 17.2686 14.869 16.8789 14.4702C16.4893 14.0715 16.2808 13.5166 16.2534 12.8057L16.25 12.375C16.25 11.8851 16.3366 11.4578 16.5098 11.0933C16.6829 10.7264 16.9302 10.445 17.2515 10.249C17.575 10.0508 17.9487 9.95166 18.3726 9.95166C18.9924 9.95166 19.4731 10.0941 19.8149 10.3789C20.159 10.6615 20.3595 11.0841 20.4165 11.647H19.2612C19.2202 11.369 19.1313 11.1707 18.9946 11.0522C18.8579 10.9338 18.6642 10.8745 18.4136 10.8745C18.1128 10.8745 17.8804 11.0021 17.7163 11.2573C17.5522 11.5125 17.4691 11.8771 17.4668 12.3511V12.6519C17.4668 13.1486 17.5511 13.5223 17.7197 13.7729C17.8906 14.0213 18.1584 14.1455 18.5229 14.1455C18.8351 14.1455 19.0675 14.076 19.2202 13.937V13.1646H18.3862V12.3408H20.4199V14.3848Z" fill="white"/>
</svg>
