<svg width="69" height="69" viewBox="0 0 69 69" fill="none" xmlns="http://www.w3.org/2000/svg">
<rect x="34.5002" y="0.500305" width="48.0829" height="48.0829" transform="rotate(45 34.5002 0.500305)" fill="black"/>
<line x1="20" y1="32.5" x2="49" y2="32.5" stroke="#AD00FF"/>
<line x1="20" y1="37.5" x2="49" y2="37.5" stroke="#ADFF00"/>
<path d="M22.8142 35.9884H21.7009V39.0001H19.6443V30.4689H23.0017C24.0134 30.4689 24.8044 30.6935 25.3748 31.1427C25.9451 31.5919 26.2302 32.2267 26.2302 33.047C26.2302 33.6407 26.1091 34.1329 25.8669 34.5235C25.6287 34.9142 25.2537 35.2306 24.7419 35.4728L26.5232 38.9122V39.0001H24.3201L22.8142 35.9884ZM21.7009 34.4005H23.0017C23.3923 34.4005 23.6853 34.2989 23.8806 34.0958C24.0798 33.8888 24.1794 33.6017 24.1794 33.2345C24.1794 32.8673 24.0798 32.5802 23.8806 32.3732C23.6814 32.1622 23.3884 32.0567 23.0017 32.0567H21.7009V34.4005ZM35.7517 35.3849H32.5173V37.4181H36.3376V39.0001H30.4607V30.4689H36.3494V32.0567H32.5173V33.8556H35.7517V35.3849ZM47.1482 37.9454C46.8318 38.297 46.3689 38.5802 45.7595 38.795C45.1501 39.0099 44.4822 39.1173 43.7556 39.1173C42.6384 39.1173 41.7458 38.7755 41.0779 38.0919C40.4099 37.4083 40.0525 36.4571 40.0056 35.2384L39.9998 34.5001C39.9998 33.6603 40.1482 32.9278 40.4451 32.3028C40.7419 31.6739 41.1658 31.1915 41.7166 30.8556C42.2712 30.5157 42.9119 30.3458 43.6384 30.3458C44.7009 30.3458 45.5251 30.59 46.1111 31.0782C46.7009 31.5626 47.0447 32.2872 47.1423 33.2521H45.1619C45.0916 32.7755 44.9392 32.4357 44.7048 32.2325C44.4705 32.0294 44.1384 31.9278 43.7087 31.9278C43.1931 31.9278 42.7947 32.1466 42.5134 32.5841C42.2322 33.0216 42.0896 33.6466 42.0857 34.4591V34.9747C42.0857 35.8263 42.2302 36.4669 42.5193 36.8966C42.8123 37.3224 43.2712 37.5353 43.8962 37.5353C44.4314 37.5353 44.8298 37.4161 45.0916 37.1778V35.8536H43.6619V34.4415H47.1482V37.9454ZM49.4744 37.0841C49.7869 37.0841 50.0466 37.1778 50.2537 37.3653C50.4607 37.5489 50.5642 37.7853 50.5642 38.0743C50.5642 38.3634 50.4607 38.6017 50.2537 38.7892C50.0466 38.9728 49.7869 39.0646 49.4744 39.0646C49.158 39.0646 48.8962 38.9708 48.6892 38.7833C48.4861 38.5958 48.3845 38.3595 48.3845 38.0743C48.3845 37.7892 48.4861 37.5528 48.6892 37.3653C48.8962 37.1778 49.158 37.0841 49.4744 37.0841Z" fill="white"/>
</svg>
