<svg width="92" height="72" viewBox="0 0 92 72" fill="none" xmlns="http://www.w3.org/2000/svg">
<rect y="22" width="71" height="24" rx="11" fill="black"/>
<g filter="url(#filter0_ddd)">
<path d="M50 35L60 40.7735V29.2265L50 35ZM59 36H62V34H59V36Z" fill="white"/>
</g>
<path d="M12.3535 38V32.498H11.3516V31.6602H12.3535V31.0098C12.3535 30.3301 12.5352 29.8047 12.8984 29.4336C13.2617 29.0625 13.7754 28.877 14.4395 28.877C14.6895 28.877 14.9375 28.9102 15.1836 28.9766L15.125 29.8555C14.9414 29.8203 14.7461 29.8027 14.5391 29.8027C14.1875 29.8027 13.916 29.9062 13.7246 30.1133C13.5332 30.3164 13.4375 30.6094 13.4375 30.9922V31.6602H14.791V32.498H13.4375V38H12.3535ZM16.0156 37.4316C16.0156 37.2441 16.0703 37.0879 16.1797 36.9629C16.293 36.8379 16.4609 36.7754 16.6836 36.7754C16.9062 36.7754 17.0742 36.8379 17.1875 36.9629C17.3047 37.0879 17.3633 37.2441 17.3633 37.4316C17.3633 37.6113 17.3047 37.7617 17.1875 37.8828C17.0742 38.0039 16.9062 38.0645 16.6836 38.0645C16.4609 38.0645 16.293 38.0039 16.1797 37.8828C16.0703 37.7617 16.0156 37.6113 16.0156 37.4316Z" fill="white"/>
<path d="M45.1758 34.9004C45.1758 35.8652 44.9551 36.6426 44.5137 37.2324C44.0723 37.8223 43.4746 38.1172 42.7207 38.1172C41.9512 38.1172 41.3457 37.873 40.9043 37.3848V40.4375H39.8203V31.6602H40.8105L40.8633 32.3633C41.3047 31.8164 41.918 31.543 42.7031 31.543C43.4648 31.543 44.0664 31.8301 44.5078 32.4043C44.9531 32.9785 45.1758 33.7773 45.1758 34.8008V34.9004ZM44.0918 34.7773C44.0918 34.0625 43.9395 33.498 43.6348 33.084C43.3301 32.6699 42.9121 32.4629 42.3809 32.4629C41.7246 32.4629 41.2324 32.7539 40.9043 33.3359V36.3652C41.2285 36.9434 41.7246 37.2324 42.3926 37.2324C42.9121 37.2324 43.3242 37.0273 43.6289 36.6172C43.9375 36.2031 44.0918 35.5898 44.0918 34.7773ZM46.582 37.4316C46.582 37.2441 46.6367 37.0879 46.7461 36.9629C46.8594 36.8379 47.0273 36.7754 47.25 36.7754C47.4727 36.7754 47.6406 36.8379 47.7539 36.9629C47.8711 37.0879 47.9297 37.2441 47.9297 37.4316C47.9297 37.6113 47.8711 37.7617 47.7539 37.8828C47.6406 38.0039 47.4727 38.0645 47.25 38.0645C47.0273 38.0645 46.8594 38.0039 46.7461 37.8828C46.6367 37.7617 46.582 37.6113 46.582 37.4316Z" fill="white"/>
<path d="M22.4512 38.1172C21.5918 38.1172 20.8926 37.8359 20.3535 37.2734C19.8145 36.707 19.5449 35.9512 19.5449 35.0059V34.8066C19.5449 34.1777 19.6641 33.6172 19.9023 33.125C20.1445 32.6289 20.4805 32.2422 20.9102 31.9648C21.3438 31.6836 21.8125 31.543 22.3164 31.543C23.1406 31.543 23.7812 31.8145 24.2383 32.3574C24.6953 32.9004 24.9238 33.6777 24.9238 34.6895V35.1406H20.6289C20.6445 35.7656 20.8262 36.2715 21.1738 36.6582C21.5254 37.041 21.9707 37.2324 22.5098 37.2324C22.8926 37.2324 23.2168 37.1543 23.4824 36.998C23.748 36.8418 23.9805 36.6348 24.1797 36.377L24.8418 36.8926C24.3105 37.709 23.5137 38.1172 22.4512 38.1172ZM22.3164 32.4336C21.8789 32.4336 21.5117 32.5938 21.2148 32.9141C20.918 33.2305 20.7344 33.6758 20.6641 34.25H23.8398V34.168C23.8086 33.6172 23.6602 33.1914 23.3945 32.8906C23.1289 32.5859 22.7695 32.4336 22.3164 32.4336ZM26.207 37.4316C26.207 37.2441 26.2617 37.0879 26.3711 36.9629C26.4844 36.8379 26.6523 36.7754 26.875 36.7754C27.0977 36.7754 27.2656 36.8379 27.3789 36.9629C27.4961 37.0879 27.5547 37.2441 27.5547 37.4316C27.5547 37.6113 27.4961 37.7617 27.3789 37.8828C27.2656 38.0039 27.0977 38.0645 26.875 38.0645C26.6523 38.0645 26.4844 38.0039 26.3711 37.8828C26.2617 37.7617 26.207 37.6113 26.207 37.4316Z" fill="white"/>
<path d="M33.7344 37.373C33.3125 37.8691 32.6934 38.1172 31.877 38.1172C31.2012 38.1172 30.6855 37.9219 30.3301 37.5312C29.9785 37.1367 29.8008 36.5547 29.7969 35.7852V31.6602H30.8809V35.7559C30.8809 36.7168 31.2715 37.1973 32.0527 37.1973C32.8809 37.1973 33.4316 36.8887 33.7051 36.2715V31.6602H34.7891V38H33.7578L33.7344 37.373ZM36.4648 37.4316C36.4648 37.2441 36.5195 37.0879 36.6289 36.9629C36.7422 36.8379 36.9102 36.7754 37.1328 36.7754C37.3555 36.7754 37.5234 36.8379 37.6367 36.9629C37.7539 37.0879 37.8125 37.2441 37.8125 37.4316C37.8125 37.6113 37.7539 37.7617 37.6367 37.8828C37.5234 38.0039 37.3555 38.0645 37.1328 38.0645C36.9102 38.0645 36.7422 38.0039 36.6289 37.8828C36.5195 37.7617 36.4648 37.6113 36.4648 37.4316Z" fill="white"/>
<defs>
<filter id="filter0_ddd" x="20" y="0.226501" width="72" height="71.547" filterUnits="userSpaceOnUse" color-interpolation-filters="sRGB">
<feFlood flood-opacity="0" result="BackgroundImageFix"/>
<feColorMatrix in="SourceAlpha" type="matrix" values="0 0 0 0 0 0 0 0 0 0 0 0 0 0 0 0 0 0 127 0" result="hardAlpha"/>
<feOffset dy="1"/>
<feGaussianBlur stdDeviation="10"/>
<feComposite in2="hardAlpha" operator="out"/>
<feColorMatrix type="matrix" values="0 0 0 0 1 0 0 0 0 1 0 0 0 0 1 0 0 0 1 0"/>
<feBlend mode="normal" in2="BackgroundImageFix" result="effect1_dropShadow"/>
<feColorMatrix in="SourceAlpha" type="matrix" values="0 0 0 0 0 0 0 0 0 0 0 0 0 0 0 0 0 0 127 0" result="hardAlpha"/>
<feOffset dy="1"/>
<feGaussianBlur stdDeviation="15"/>
<feComposite in2="hardAlpha" operator="out"/>
<feColorMatrix type="matrix" values="0 0 0 0 1 0 0 0 0 1 0 0 0 0 1 0 0 0 1 0"/>
<feBlend mode="normal" in2="effect1_dropShadow" result="effect2_dropShadow"/>
<feColorMatrix in="SourceAlpha" type="matrix" values="0 0 0 0 0 0 0 0 0 0 0 0 0 0 0 0 0 0 127 0" result="hardAlpha"/>
<feOffset dy="1"/>
<feGaussianBlur stdDeviation="5"/>
<feComposite in2="hardAlpha" operator="out"/>
<feColorMatrix type="matrix" values="0 0 0 0 1 0 0 0 0 1 0 0 0 0 1 0 0 0 1 0"/>
<feBlend mode="normal" in2="effect2_dropShadow" result="effect3_dropShadow"/>
<feBlend mode="normal" in="SourceGraphic" in2="effect3_dropShadow" result="shape"/>
</filter>
</defs>
</svg>
