<svg width="66" height="66" viewBox="0 0 66 66" fill="none" xmlns="http://www.w3.org/2000/svg">
<path d="M24.199 25.2679C23.5255 23.9233 25.6782 23.311 26.2283 21.8867C26.5567 21.0368 28.8159 20.6326 29.5 20C30.3983 19.1694 34.8697 21.5583 35.8954 22.1888M35.5982 18.3981C34.4259 18.2879 30.9748 14.1046 27.5002 16.5C24.7469 18.3981 24.944 19.8661 24.962 21.2416M29.9867 19.83C32.1391 19.5055 33.8776 13.5 38.894 17C40.3056 17.9849 42.8931 23.8506 41.1025 23.7531C39.7883 23.6815 39.8358 22.2239 38.894 21.3642M28.2059 21.8867C28.3668 22.9292 32.8119 21.9327 33.8776 22.1888C36.0928 22.7211 40.0255 20.9661 37 18M24.7472 28.7097C23.275 28.0174 25.2347 26.2462 25.8785 24.7697C26.1644 24.114 29.5037 24.5465 29.9867 24.0034M33.1264 24.0034C31.5704 23.6068 30.1413 25.1297 29.9867 26.6768M38.077 23.47C35.4875 23.6829 42.3058 27.5238 40.4826 29.3335M32.4025 31.8267C32.4914 33.7916 35.8667 31.8592 37.5722 30.7149C39.3789 29.5027 40.133 28.1638 40.5083 26.0999C41.4262 21.0515 30.4404 33.7955 27.2989 29.7487M34.6987 29.8715C32.6987 30.2869 30.3745 26.2863 32.2664 25.5191C33.5633 24.9931 34.5208 25.8543 35.5983 26.6772C37.5858 28.1952 32.3311 33.1119 38.077 33.0763M30.8385 23.4699C28.9215 21.7633 33.7211 31.0148 31.1463 30.4679M33.1068 30.0519C32.5113 31.0212 31.9349 31.7621 30.7763 31.8795C28.9517 32.0646 29.6897 29.1822 28.2059 28.1931C26.8024 27.2577 24.9291 25.7317 23.9469 27.1193C23.0789 28.3458 25.3821 31.7517 26.7087 32.3776C32.2665 35 35.6776 33.0762 37.5722 32.3776" stroke="white"/>
<path d="M23 41L23 38L17 38L17 41L23 41ZM17 46C17 47.6569 18.3431 49 20 49C21.6569 49 23 47.6569 23 46L17 46ZM17 41L17 46L23 46L23 41L17 41Z" fill="white"/>
<path d="M49 41L49 38L43 38L43 41L49 41ZM43 46C43 47.6569 44.3431 49 46 49C47.6569 49 49 47.6569 49 46L43 46ZM43 41L43 46L49 46L49 41L43 41Z" fill="white"/>
<rect x="25" y="38" width="16" height="10" fill="white"/>
<circle cx="33" cy="33" r="30.5" stroke="white" stroke-width="5"/>
</svg>
